<svg width="46" height="46" viewBox="0 0 46 46" fill="none" xmlns="http://www.w3.org/2000/svg">
<path d="M46 23C46 35.7024 35.7024 46 23 46C10.2989 46 0 35.7024 0 23C0 10.2989 10.2989 0 23 0C35.7024 0 46 10.2989 46 23Z" fill="#FFCC4D"/>
<path d="M21.2928 13.4717C21.1635 13.4155 21.0192 13.4036 20.8824 13.4378C20.7457 13.472 20.624 13.5504 20.5363 13.6608C20.5248 13.6761 19.2854 15.1967 16.2749 16.017C15.3411 16.2797 14.3764 16.4168 13.4063 16.4246C12.1388 16.4246 11.4143 16.1537 11.4104 16.1525C11.2789 16.0994 11.1334 16.0917 10.9969 16.1307C10.8605 16.1696 10.741 16.253 10.6573 16.3675C10.5735 16.482 10.5304 16.6212 10.5347 16.763C10.5389 16.9048 10.5904 17.0411 10.6808 17.1504C10.7716 17.2616 12.9553 19.8938 15.9517 19.8938C16.4002 19.8938 16.8487 19.8337 17.2844 19.7149C20.9312 18.7208 21.6416 14.338 21.6697 14.1515C21.6904 14.0125 21.6647 13.8705 21.5965 13.7477C21.5284 13.6248 21.4216 13.5278 21.2928 13.4717ZM35.3164 16.2253C35.2306 16.1132 35.1102 16.0325 34.9739 15.9958C34.8376 15.9591 34.693 15.9683 34.5625 16.0221C34.5548 16.026 33.7537 16.3492 32.343 16.3492C31.4497 16.3432 30.5603 16.2295 29.6942 16.0106C26.6671 15.2657 25.3893 13.7758 25.3791 13.7643C25.2895 13.6549 25.1661 13.5783 25.0283 13.5465C24.8904 13.5147 24.7459 13.5296 24.6175 13.5888C24.489 13.648 24.3838 13.7482 24.3184 13.8736C24.2529 13.999 24.231 14.1426 24.2559 14.2818C24.2892 14.4671 25.1095 18.8307 28.778 19.7341C29.1754 19.8325 29.5817 19.8823 29.9868 19.8823C33.0483 19.8823 35.2244 17.1223 35.3151 17.0047C35.4005 16.8928 35.4468 16.756 35.4471 16.6152C35.4473 16.4745 35.4014 16.3375 35.3164 16.2253ZM12.7751 12.7779C12.464 12.7772 12.1638 12.6631 11.9308 12.4569C11.6979 12.2507 11.5482 11.9666 11.5097 11.6579C11.4713 11.3491 11.5469 11.037 11.7222 10.78C11.8975 10.523 12.1606 10.3388 12.4621 10.2619C12.5081 10.2504 17.0531 9.03396 19.3007 4.54002C19.3758 4.38992 19.4797 4.25608 19.6065 4.14615C19.7334 4.03621 19.8806 3.95233 20.0398 3.89929C20.1991 3.84625 20.3672 3.8251 20.5346 3.83703C20.702 3.84897 20.8654 3.89376 21.0155 3.96885C21.1656 4.04394 21.2994 4.14786 21.4094 4.27467C21.5193 4.40149 21.6032 4.54872 21.6562 4.70795C21.7093 4.86718 21.7304 5.0353 21.7185 5.20271C21.7066 5.37011 21.6618 5.53353 21.5867 5.68363C18.7998 11.256 13.3182 12.682 13.0869 12.7408C12.9834 12.7664 12.8786 12.7779 12.7751 12.7779ZM33.2221 12.7779C33.1199 12.7779 33.0164 12.7651 32.9129 12.7395C32.6803 12.682 27.1987 11.2547 24.4131 5.68235C24.2615 5.37922 24.2364 5.02825 24.3436 4.70667C24.4507 4.38509 24.6811 4.11923 24.9843 3.96757C25.2874 3.81592 25.6384 3.7909 25.96 3.89801C26.2815 4.00513 26.5474 4.2356 26.6991 4.53874C28.9454 9.03268 33.4904 10.2491 33.5377 10.2606C34.2188 10.4357 34.6328 11.1308 34.4603 11.8131C34.3902 12.0885 34.2305 12.3328 34.0064 12.5075C33.7822 12.6821 33.5063 12.7773 33.2221 12.7779ZM22.9999 37.0109C18.3705 37.0109 15.2987 37.5501 11.4999 38.2887C10.6323 38.4561 8.94434 38.2887 8.94434 35.7331C8.94434 30.622 14.8157 24.2331 22.9999 24.2331C31.1828 24.2331 37.0554 30.622 37.0554 35.7331C37.0554 38.2887 35.3675 38.4574 34.4999 38.2887C30.7011 37.5501 27.6293 37.0109 22.9999 37.0109Z" fill="#664500"/>
<path d="M12.7778 31.9446C12.7778 31.9446 16.6112 30.6668 23.0001 30.6668C29.3889 30.6668 33.2223 31.9446 33.2223 31.9446C33.2223 31.9446 30.6667 26.8335 23.0001 26.8335C15.3334 26.8335 12.7778 31.9446 12.7778 31.9446Z" fill="white"/>
</svg>
