<svg width="46" height="46" viewBox="0 0 46 46" fill="none" xmlns="http://www.w3.org/2000/svg">
<path d="M23 46C35.7025 46 46 35.7025 46 23C46 10.2975 35.7025 0 23 0C10.2975 0 0 10.2975 0 23C0 35.7025 10.2975 46 23 46Z" fill="#FFCC4D"/>
<path d="M32.5642 34.9841C32.5067 34.7553 31.0718 29.3887 23 29.3887C14.927 29.3887 13.4934 34.7553 13.4359 34.9841C13.4023 35.1189 13.4137 35.2611 13.4684 35.3889C13.523 35.5167 13.618 35.6231 13.7387 35.6919C13.86 35.7605 14.0002 35.788 14.1384 35.7702C14.2766 35.7525 14.4053 35.6905 14.5054 35.5936C14.5297 35.5693 17.0022 33.222 23 33.222C28.9979 33.222 31.4717 35.5693 31.4947 35.5923C31.5936 35.69 31.7217 35.753 31.8595 35.7717C31.9973 35.7903 32.1375 35.7637 32.2588 35.6958C32.3806 35.627 32.4765 35.52 32.5317 35.3915C32.5868 35.2629 32.5983 35.1198 32.5642 34.9841Z" fill="#664500"/>
<path d="M15.3334 21.7223C17.0976 21.7223 18.5278 19.72 18.5278 17.2501C18.5278 14.7801 17.0976 12.7778 15.3334 12.7778C13.5691 12.7778 12.1389 14.7801 12.1389 17.2501C12.1389 19.72 13.5691 21.7223 15.3334 21.7223Z" fill="#664500"/>
<path d="M30.6666 21.7223C32.4309 21.7223 33.8611 19.72 33.8611 17.2501C33.8611 14.7801 32.4309 12.7778 30.6666 12.7778C28.9024 12.7778 27.4722 14.7801 27.4722 17.2501C27.4722 19.72 28.9024 21.7223 30.6666 21.7223Z" fill="#664500"/>
</svg>