<svg width="46" height="46" viewBox="0 0 46 46" fill="none" xmlns="http://www.w3.org/2000/svg">
<path d="M46 23C46 35.7024 35.7024 46 23 46C10.2989 46 0 35.7024 0 23C0 10.2989 10.2989 0 23 0C35.7024 0 46 10.2989 46 23Z" fill="#FFCC4D"/>
<path d="M36.3618 22.7407C36.2851 22.5682 34.4464 18.5278 30.6667 18.5278C26.8884 18.5278 25.0484 22.5682 24.9717 22.7407C24.9175 22.8695 24.9068 23.0125 24.9412 23.1479C24.9756 23.2834 25.0532 23.4039 25.1623 23.4913C25.2713 23.5787 25.4059 23.6282 25.5456 23.6322C25.6853 23.6363 25.8225 23.5947 25.9364 23.5137C25.9517 23.5022 27.549 22.3612 30.6667 22.3612C33.7666 22.3612 35.3613 23.4869 35.3971 23.5124C35.51 23.5989 35.6486 23.6451 35.7907 23.6436C35.9329 23.6421 36.0705 23.593 36.1815 23.5042C36.2926 23.4153 36.3706 23.2919 36.4033 23.1535C36.436 23.0151 36.4214 22.8698 36.3618 22.7407ZM22.3062 22.7407C22.2296 22.5682 20.3909 18.5278 16.6112 18.5278C12.8328 18.5278 10.9928 22.5682 10.9161 22.7407C10.8578 22.8696 10.8439 23.0143 10.8769 23.1519C10.9098 23.2896 10.9876 23.4124 11.098 23.501C11.2083 23.5895 11.3451 23.6389 11.4866 23.6412C11.6281 23.6435 11.7664 23.5986 11.8796 23.5137C11.8962 23.5022 13.4921 22.3612 16.6112 22.3612C19.7111 22.3612 21.3057 23.4869 21.3415 23.5124C21.4548 23.5964 21.5927 23.6406 21.7338 23.638C21.8748 23.6354 22.011 23.5862 22.1211 23.4981C22.2313 23.41 22.3091 23.2879 22.3426 23.1509C22.3761 23.0139 22.3633 22.8696 22.3062 22.7407ZM16.6112 35.7778C16.6112 35.7778 17.889 30.6667 23.0001 30.6667C28.1112 30.6667 29.389 35.7778 29.389 35.7778C29.389 35.7778 28.1112 34.5001 23.0001 34.5001C17.889 34.5001 16.6112 35.7778 16.6112 35.7778Z" fill="#664500"/>
<path d="M14.0556 14.0556C14.0556 15.75 13.3825 17.3751 12.1843 18.5732C10.9862 19.7714 9.36116 20.4445 7.66672 20.4445C5.97228 20.4445 4.34724 19.7714 3.14909 18.5732C1.95095 17.3751 1.27783 15.75 1.27783 14.0556C1.27783 10.5264 6.38894 1.27783 7.66672 1.27783C8.9445 1.27783 14.0556 10.5264 14.0556 14.0556Z" fill="#5DADEC"/>
</svg>