<svg width="46" height="46" viewBox="0 0 46 46" fill="none" xmlns="http://www.w3.org/2000/svg">
<path d="M46 23C46 35.7024 35.7024 46 23 46C10.2989 46 0 35.7024 0 23C0 10.2989 10.2989 0 23 0C35.7024 0 46 10.2989 46 23Z" fill="#FFCC4D"/>
<path d="M31.9443 33.2221H14.0554C13.7166 33.2221 13.3916 33.0875 13.1519 32.8479C12.9123 32.6082 12.7777 32.2832 12.7777 31.9443C12.7777 31.6054 12.9123 31.2804 13.1519 31.0408C13.3916 30.8012 13.7166 30.6666 14.0554 30.6666H31.9443C32.2832 30.6666 32.6082 30.8012 32.8479 31.0408C33.0875 31.2804 33.2221 31.6054 33.2221 31.9443C33.2221 32.2832 33.0875 32.6082 32.8479 32.8479C32.6082 33.0875 32.2832 33.2221 31.9443 33.2221ZM19.1666 22.9999H10.2221C9.88323 22.9999 9.55822 22.8653 9.31859 22.6256C9.07896 22.386 8.94434 22.061 8.94434 21.7221C8.94434 21.3832 9.07896 21.0582 9.31859 20.8186C9.55822 20.579 9.88323 20.4443 10.2221 20.4443H19.1666C19.5054 20.4443 19.8305 20.579 20.0701 20.8186C20.3097 21.0582 20.4443 21.3832 20.4443 21.7221C20.4443 22.061 20.3097 22.386 20.0701 22.6256C19.8305 22.8653 19.5054 22.9999 19.1666 22.9999ZM35.7777 22.9999H26.8332C26.4943 22.9999 26.1693 22.8653 25.9297 22.6256C25.6901 22.386 25.5554 22.061 25.5554 21.7221C25.5554 21.3832 25.6901 21.0582 25.9297 20.8186C26.1693 20.579 26.4943 20.4443 26.8332 20.4443H35.7777C36.1166 20.4443 36.4416 20.579 36.6812 20.8186C36.9208 21.0582 37.0554 21.3832 37.0554 21.7221C37.0554 22.061 36.9208 22.386 36.6812 22.6256C36.4416 22.8653 36.1166 22.9999 35.7777 22.9999Z" fill="#664500"/>
</svg>