<svg width="46" height="46" viewBox="0 0 46 46" fill="none" xmlns="http://www.w3.org/2000/svg">
<path d="M46 23C46 35.7024 35.7024 46 23 46C10.2976 46 0 35.7024 0 23C0 10.2976 10.2976 0 23 0C35.7024 0 46 10.2976 46 23Z" fill="#FFCC4D"/>
<path d="M36.1765 19.9488C36.0665 19.8608 35.9307 19.8114 35.7898 19.8081C35.649 19.8049 35.511 19.848 35.3971 19.9309C35.3818 19.9424 33.7858 21.0834 30.6667 21.0834C27.549 21.0834 25.9517 19.9424 25.939 19.9334C25.8258 19.8485 25.6877 19.8036 25.5463 19.8056C25.4049 19.8077 25.2681 19.8566 25.1575 19.9447C25.0468 20.0329 24.9686 20.1552 24.9349 20.2926C24.9013 20.43 24.9142 20.5747 24.9717 20.7039C25.0484 20.8764 26.8884 24.9168 30.6667 24.9168C34.4464 24.9168 36.2851 20.8764 36.3618 20.7039C36.4187 20.5753 36.4314 20.4314 36.3979 20.2948C36.3644 20.1581 36.2865 20.0365 36.1765 19.9488ZM20.0637 19.9309C20.0484 19.9424 18.4537 21.0834 15.3334 21.0834C12.2144 21.0834 10.6184 19.9424 10.6056 19.9334C10.4925 19.8485 10.3544 19.8036 10.213 19.8056C10.0715 19.8077 9.93476 19.8566 9.82412 19.9447C9.71348 20.0329 9.63522 20.1552 9.6016 20.2926C9.56798 20.43 9.58091 20.5747 9.63836 20.7039C9.71503 20.8764 11.555 24.9168 15.3334 24.9168C19.1131 24.9168 20.9518 20.8764 21.0285 20.7039C21.0849 20.575 21.0972 20.431 21.0636 20.2943C21.0299 20.1576 20.9521 20.0358 20.8423 19.9478C20.7324 19.8598 20.5966 19.8104 20.4559 19.8074C20.3151 19.8043 20.1773 19.8477 20.0637 19.9309ZM37.0569 16.6112C36.8583 16.6116 36.6623 16.5656 36.4846 16.4769C36.3069 16.3881 36.1524 16.2591 36.0334 16.1001C32.7214 11.6841 27.1388 12.7421 27.0839 12.7523C26.9193 12.7856 26.7498 12.7861 26.585 12.7538C26.4203 12.7214 26.2636 12.6569 26.1238 12.5638C25.9841 12.4707 25.8641 12.351 25.7708 12.2114C25.6774 12.0718 25.6126 11.9152 25.5799 11.7505C25.5137 11.4183 25.582 11.0733 25.7698 10.7914C25.9576 10.5094 26.2496 10.3135 26.5817 10.2466C26.8769 10.1865 33.8101 8.87682 38.0766 14.5655C38.2192 14.7551 38.3062 14.9808 38.3278 15.2171C38.3494 15.4534 38.3048 15.6911 38.1989 15.9034C38.0931 16.1158 37.9301 16.2945 37.7284 16.4195C37.5267 16.5445 37.2942 16.6109 37.0569 16.6112ZM8.94325 16.6112C8.70606 16.611 8.47362 16.5447 8.27194 16.4199C8.07027 16.295 7.90733 16.1165 7.80136 15.9043C7.69539 15.6921 7.65058 15.4546 7.67194 15.2184C7.6933 14.9821 7.77999 14.7565 7.9223 14.5668C12.1888 8.87554 19.1233 10.1891 19.4172 10.2479C19.7383 10.3252 20.0171 10.5238 20.1951 10.8021C20.3731 11.0804 20.4366 11.4167 20.3722 11.7407C20.3078 12.0647 20.1205 12.3512 19.8496 12.5403C19.5787 12.7293 19.2452 12.8062 18.9189 12.7549C18.6812 12.7102 13.2506 11.7224 9.96675 16.1001C9.84774 16.2591 9.69323 16.3881 9.51553 16.4769C9.33784 16.5656 9.14187 16.6116 8.94325 16.6112ZM29.7135 30.1263C29.5944 30.0574 29.4566 30.0277 29.3197 30.0414C29.1828 30.0552 29.0537 30.1117 28.9507 30.2029C28.9379 30.2132 27.6563 31.3057 23.0001 31.3057C18.3477 31.3057 17.0635 30.2144 17.0635 30.2144C16.9646 30.116 16.8363 30.0526 16.698 30.034C16.5597 30.0154 16.4191 30.0426 16.2977 30.1114C16.1763 30.1802 16.0808 30.2868 16.0257 30.415C15.9707 30.5433 15.9591 30.686 15.9927 30.8214C16.0055 30.8776 17.4545 36.4168 23.0001 36.4168C28.5456 36.4168 29.9946 30.8776 30.0087 30.8214C30.0404 30.6892 30.0288 30.5503 29.9757 30.4252C29.9225 30.3001 29.8306 30.1953 29.7135 30.1263Z" fill="#664500"/>
</svg>