<svg width="46" height="46" viewBox="0 0 46 46" fill="none" xmlns="http://www.w3.org/2000/svg">
<path d="M23 46C35.7025 46 46 35.7025 46 23C46 10.2975 35.7025 0 23 0C10.2975 0 0 10.2975 0 23C0 35.7025 10.2975 46 23 46Z" fill="#FFCC4D"/>
<path d="M13.436 30.1826C13.4935 30.4113 14.9284 35.778 23.0001 35.778C31.0731 35.778 32.5068 30.4113 32.5643 30.1826C32.5979 30.0477 32.5865 29.9055 32.5318 29.7778C32.4771 29.65 32.3822 29.5435 32.2615 29.4747C32.1402 29.4061 32 29.3786 31.8618 29.3964C31.7236 29.4141 31.5948 29.4761 31.4948 29.5731C31.4705 29.5973 28.998 31.9446 23.0001 31.9446C17.0022 31.9446 14.5285 29.5973 14.5055 29.5743C14.4065 29.4766 14.2785 29.4136 14.1407 29.395C14.0029 29.3763 13.8627 29.4029 13.7413 29.4708C13.6195 29.5397 13.5237 29.6466 13.4685 29.7752C13.4133 29.9037 13.4019 30.0469 13.436 30.1826Z" fill="#664500"/>
<path d="M15.3334 21.7223C17.0976 21.7223 18.5278 19.72 18.5278 17.2501C18.5278 14.7801 17.0976 12.7778 15.3334 12.7778C13.5691 12.7778 12.1389 14.7801 12.1389 17.2501C12.1389 19.72 13.5691 21.7223 15.3334 21.7223Z" fill="#664500"/>
<path d="M30.6666 21.7223C32.4309 21.7223 33.8611 19.72 33.8611 17.2501C33.8611 14.7801 32.4309 12.7778 30.6666 12.7778C28.9024 12.7778 27.4722 14.7801 27.4722 17.2501C27.4722 19.72 28.9024 21.7223 30.6666 21.7223Z" fill="#664500"/>
</svg>