<svg width="46" height="46" viewBox="0 0 46 46" fill="none" xmlns="http://www.w3.org/2000/svg">
<path d="M46 23C46 35.7024 35.7024 46 23 46C10.2989 46 0 35.7024 0 23C0 10.2989 10.2989 0 23 0C35.7024 0 46 10.2989 46 23Z" fill="#FFCC4D"/>
<path d="M20.4443 23.0002C19.9089 23.0002 19.4106 22.6616 19.2317 22.1262C18.9723 21.3608 17.9322 19.1669 16.611 19.1669C15.254 19.1669 14.1986 21.5014 13.9903 22.1262C13.9388 22.2874 13.8559 22.4368 13.7463 22.5657C13.6366 22.6946 13.5025 22.8005 13.3516 22.8771C13.2007 22.9537 13.0361 22.9996 12.8673 23.0121C12.6986 23.0246 12.529 23.0035 12.3685 22.9499C12.208 22.8964 12.0597 22.8115 11.9323 22.7001C11.8048 22.5888 11.7008 22.4532 11.6261 22.3014C11.5515 22.1495 11.5078 21.9843 11.4975 21.8154C11.4873 21.6465 11.5106 21.4772 11.5663 21.3174C11.7261 20.8369 13.2326 16.6113 16.611 16.6113C19.9894 16.6113 21.4959 20.8369 21.6569 21.3187C21.7209 21.5108 21.7383 21.7153 21.7078 21.9154C21.6772 22.1156 21.5995 22.3056 21.4811 22.4698C21.3626 22.634 21.2069 22.7678 21.0266 22.86C20.8464 22.9522 20.6468 23.0003 20.4443 23.0002ZM33.2221 23.0002C32.954 23.0002 32.6927 22.9158 32.4753 22.7589C32.2578 22.602 32.0953 22.3807 32.0108 22.1262C31.7514 21.3608 30.7087 19.1669 29.3888 19.1669C28.0318 19.1669 26.9751 21.5014 26.7668 22.1262C26.6562 22.4435 26.4252 22.7044 26.1237 22.8526C25.8221 23.0007 25.4744 23.0242 25.1557 22.9178C24.837 22.8115 24.5731 22.5839 24.4209 22.2844C24.2688 21.9848 24.2407 21.6374 24.3428 21.3174C24.5038 20.8369 26.0091 16.6113 29.3888 16.6113C32.7685 16.6113 34.2737 20.8369 34.4334 21.3187C34.4974 21.5107 34.5148 21.7151 34.4843 21.9151C34.4538 22.1152 34.3762 22.3051 34.2579 22.4693C34.1396 22.6335 33.9841 22.7672 33.804 22.8595C33.6239 22.9519 33.4245 23.0001 33.2221 23.0002ZM22.9999 28.1113C18.3705 28.1113 15.2987 27.5721 11.4999 26.8336C10.6323 26.6662 8.94434 26.8336 8.94434 29.3891C8.94434 34.5002 14.8157 40.8891 22.9999 40.8891C31.1828 40.8891 37.0554 34.5002 37.0554 29.3891C37.0554 26.8336 35.3675 26.6649 34.4999 26.8336C30.7011 27.5721 27.6293 28.1113 22.9999 28.1113Z" fill="#664500"/>
<path d="M11.5 29.3887C11.5 29.3887 15.3333 30.6664 23 30.6664C30.6667 30.6664 34.5 29.3887 34.5 29.3887C34.5 29.3887 32.7827 38.0137 23 38.0137C13.2173 38.0137 11.5 29.3887 11.5 29.3887Z" fill="white"/>
<path d="M22.9998 35.2588C18.405 35.2588 14.9856 34.7835 12.8581 34.3069L11.804 31.9162C12.8556 32.3148 16.7732 33.0623 23.0011 33.0623C29.3312 33.0623 33.2706 32.2752 34.3273 31.8638L33.4316 34.2174C31.3437 34.703 27.7851 35.2588 22.9998 35.2588Z" fill="#664500"/>
</svg>