<svg width="76" height="217" viewBox="0 0 76 217" fill="none" xmlns="http://www.w3.org/2000/svg">
<path d="M55.6465 52.6219H26.5059V43.7647C35.7142 37.3486 43.8729 37.9063 54.6058 44.2857L55.6465 52.6219Z" fill="#EE4950"/>
<path d="M19.7593 209.944L13.3796 209.943L12.4258 185.306L19.7604 185.307L19.7593 209.944Z" fill="#FFB8B8"/>
<path d="M21.3849 216.135L0.814453 216.135V215.874C0.81444 214.821 1.02153 213.779 1.42389 212.806C1.82626 211.834 2.41602 210.95 3.15951 210.206C3.903 209.461 4.78565 208.871 5.75706 208.468C6.72848 208.065 7.76964 207.858 8.82109 207.858H8.82159L21.3853 207.858L21.3849 216.135Z" fill="#2F2E41"/>
<path d="M55.6915 209.944L62.0712 209.943L63.025 185.306L55.6904 185.307L55.6915 209.944Z" fill="#FFB8B8"/>
<path d="M54.0645 207.858L66.6281 207.858H66.6286C67.6801 207.858 68.7212 208.065 69.6927 208.468C70.6641 208.871 71.5467 209.461 72.2902 210.206C73.0337 210.95 73.6235 211.834 74.0259 212.806C74.4282 213.779 74.6353 214.821 74.6353 215.874V216.135L54.0649 216.135L54.0645 207.858Z" fill="#2F2E41"/>
<path d="M55.8597 206.786C55.3274 206.785 54.8114 206.602 54.3961 206.269C53.9808 205.935 53.6907 205.471 53.5732 204.951L37.761 135.897C37.7263 135.722 37.6308 135.564 37.4914 135.452C37.3521 135.34 37.1777 135.281 36.9991 135.285H36.9952C36.8159 135.282 36.6412 135.342 36.5021 135.456C36.363 135.569 36.2685 135.728 36.2353 135.905L21.7147 204.493C21.6014 205.018 21.3126 205.488 20.896 205.826C20.4794 206.164 19.96 206.349 19.4238 206.351H12.5067C12.1876 206.351 11.8718 206.286 11.5788 206.159C11.2857 206.033 11.0217 205.847 10.8027 205.615C10.5838 205.382 10.4147 205.107 10.3058 204.807C10.1968 204.507 10.1503 204.187 10.1691 203.868L15.3212 116.935L17.3944 116.321L17.4333 116.322L58.1564 116.678L66.8296 203.516C66.8599 203.825 66.8283 204.138 66.7366 204.435C66.6449 204.733 66.495 205.009 66.2956 205.248C66.0962 205.486 65.8513 205.683 65.5752 205.826C65.2991 205.969 64.9973 206.055 64.6875 206.08L56.0473 206.779C55.9844 206.784 55.9219 206.786 55.8597 206.786Z" fill="#2F2E41"/>
<path d="M39.0425 36.7477C46.1011 36.7477 51.8233 31.0185 51.8233 23.9512C51.8233 16.8839 46.1011 11.1547 39.0425 11.1547C31.9839 11.1547 26.2617 16.8839 26.2617 23.9512C26.2617 31.0185 31.9839 36.7477 39.0425 36.7477Z" fill="#FFB8B8"/>
<path d="M31.2133 126.466C28.9711 126.494 26.7378 126.18 24.5903 125.533C22.6803 124.957 20.9084 123.995 19.3837 122.707C17.8589 121.419 16.6136 119.832 15.7242 118.044C15.4424 117.506 15.3799 116.879 15.5499 116.296C16.9595 111.479 23.771 86.4419 19.425 66.5383C18.8115 63.7733 18.7606 60.9129 19.2751 58.1278C19.7896 55.3427 20.8591 52.6898 22.4198 50.3275C23.9441 47.9837 25.9243 45.9712 28.2423 44.4103C30.5602 42.8493 33.1685 41.7717 35.9114 41.2419L35.9115 41.2414C36.6323 41.1004 37.3571 40.9849 38.0654 40.8974C41.0974 40.5237 44.1745 40.8257 47.0764 41.7816C49.9782 42.7375 52.6332 44.3238 54.8513 46.427C57.1353 48.5715 58.9175 51.195 60.0705 54.1097C61.2234 57.0244 61.7184 60.1583 61.5202 63.287L58.18 116.953C58.1569 117.355 58.0298 117.745 57.811 118.083C57.5923 118.421 57.2894 118.697 56.9321 118.882C53.0853 120.901 41.5295 126.466 31.2133 126.466Z" fill="#3F3D56"/>
<path d="M53.4804 14.5317C52.1527 11.1911 49.7209 8.40738 46.5907 6.64529C43.4605 4.8832 39.8214 4.24933 36.2808 4.84948L40.3105 8.10985C35.3038 8.27865 30.0335 7.91973 26.4586 11.4335C27.5967 11.4019 29.0883 13.8392 30.2264 13.8076C28.0987 13.8497 26.1693 15.3466 25.2294 17.2583C24.359 19.2224 24.1554 21.418 24.6497 23.5089C25.07 25.5977 28.2757 30.4913 29.1386 32.4391C28.9902 27.3487 38.9992 15.207 43.8868 16.4741C41.4036 17.3966 39.2488 19.0346 37.6942 21.1816C41.0193 19.5015 44.7798 18.8854 48.4663 19.4169C49.308 19.6102 50.1763 19.6588 51.0343 19.5608C51.5602 19.4567 52.0506 19.2193 52.4587 18.8713C52.8668 18.5233 53.179 18.0764 53.3654 17.5732C53.5519 17.07 53.6064 16.5274 53.5237 15.9971C53.441 15.4668 53.2239 14.9666 52.8931 14.5443L53.4804 14.5317Z" fill="#2F2E41"/>
<path d="M30.332 123.244C30.0091 123.243 29.6899 123.176 29.3943 123.046L5.14484 112.448C4.62974 112.227 4.21168 111.827 3.96758 111.322C3.72347 110.817 3.66973 110.241 3.81622 109.699L19.8695 48.9811C20.168 47.8513 20.6885 46.7925 21.4007 45.8666C22.1128 44.9407 23.0023 44.1663 24.017 43.5888C25.0317 43.0113 26.1513 42.6423 27.3103 42.5033C28.4692 42.3643 29.6441 42.4582 30.7664 42.7794L37.1853 44.6136L32.6666 121.035C32.6433 121.413 32.5297 121.778 32.3354 122.102C32.141 122.426 31.8715 122.698 31.5498 122.895C31.184 123.122 30.7624 123.243 30.332 123.244Z" fill="#EE4950"/>
<path d="M75.2128 109.698L74.1459 105.671L72.6005 99.8148L71.8563 97.0066L70.3109 91.1661L59.1593 48.98C58.8619 47.8497 58.3419 46.7903 57.63 45.864C56.918 44.9376 56.0285 44.1629 55.0135 43.5854C53.9985 43.0079 52.8786 42.6392 51.7194 42.5009C50.5601 42.3626 49.385 42.4575 48.2629 42.78L41.8467 44.614L45.0261 98.3664L45.3541 103.978L45.5622 107.515V107.521L45.895 113.101L46.3636 121.035C46.4018 121.631 46.6641 122.19 47.0976 122.6C47.5311 123.01 48.1036 123.24 48.6999 123.245C49.0223 123.243 49.341 123.175 49.6367 123.047L73.8857 112.449C74.4011 112.228 74.8194 111.828 75.0633 111.322C75.3072 110.817 75.3602 110.24 75.2128 109.698Z" fill="#EE4950"/>
<path d="M71.8566 97.0065L45.3547 103.978L45.0264 98.3664L70.3116 91.166L71.8566 97.0065Z" fill="#CCCCCC"/>
<path d="M74.1458 105.671L45.895 113.101L45.5625 107.521V107.515L72.6008 99.8148L74.1458 105.671Z" fill="#CCCCCC"/>
<path d="M33.6776 99.5752L33.3493 105.082L7.35742 97.3296L8.88157 91.5673L33.6776 99.5752Z" fill="#CCCCCC"/>
<path d="M33.1358 108.708L6.61257 100.138L5.08789 105.916L32.8131 114.184L33.1358 108.708Z" fill="#CCCCCC"/>
<path d="M7.07499 114.468C7.86574 114.261 8.60163 113.883 9.23082 113.361C9.86 112.839 10.3672 112.185 10.7166 111.445C11.0661 110.706 11.2493 109.898 11.2534 109.08C11.2574 108.262 11.0823 107.453 10.7402 106.709L23.2093 67.5163L14.3675 65.6622L2.93558 104.088C1.72679 104.746 0.801097 105.826 0.333909 107.121C-0.13328 108.417 -0.109502 109.839 0.400734 111.119C0.910969 112.398 1.87221 113.446 3.10232 114.063C4.33243 114.68 5.74593 114.824 7.07499 114.468Z" fill="#FFB8B8"/>
<path d="M23.5552 48.2484C26.094 48.5077 27.5221 51.3658 26.8909 54.9246L23.8617 72.0024C23.6346 73.2826 22.5824 74.2963 21.7078 74.0774L11.4615 71.513C10.673 71.3156 10.3826 70.1941 10.8294 69.0719L16.9806 53.6222C18.3164 50.267 21.0936 47.997 23.5552 48.2484Z" fill="#3F3D56"/>
<path d="M38.9955 2.93908e-10C43.3211 0.000464523 47.4767 1.68655 50.5824 4.70121C53.688 7.71588 55.4998 11.8224 55.6341 16.1513H58.7695C59.0456 16.1513 59.3103 16.2611 59.5055 16.4565C59.7006 16.6519 59.8103 16.9169 59.8103 17.1933V21.3613C59.8103 21.6377 59.7006 21.9027 59.5055 22.0981C59.3103 22.2936 59.0456 22.4034 58.7695 22.4034H23.3845C23.1085 22.4034 22.8438 22.2936 22.6486 22.0981C22.4534 21.9027 22.3438 21.6377 22.3438 21.3613V16.6722C22.3437 14.4828 22.7745 12.3148 23.6113 10.292C24.4481 8.26925 25.6747 6.43132 27.2209 4.88316C28.7672 3.335 30.6029 2.10692 32.6232 1.26907C34.6435 0.431214 36.8088 -1.29996e-05 38.9955 2.93908e-10Z" fill="#EE4950"/>
<path d="M40.9859 103.058H33.6301C33.3941 103.059 33.1663 102.971 32.9915 102.812C32.8167 102.654 32.7075 102.435 32.6853 102.2L31.2129 87.0898H43.4032L41.9308 102.2C41.9086 102.435 41.7994 102.654 41.6246 102.812C41.4498 102.971 41.222 103.059 40.9859 103.058Z" fill="#E6E6E6"/>
<path d="M43.3828 88.9907H31.2316C30.9799 88.9904 30.7386 88.8902 30.5606 88.712C30.3826 88.5338 30.2825 88.2922 30.2822 88.0402V85.7591C30.2825 85.5071 30.3826 85.2655 30.5606 85.0873C30.7386 84.9091 30.9799 84.8089 31.2316 84.8086H43.3828C43.6345 84.8089 43.8758 84.9091 44.0538 85.0873C44.2318 85.2655 44.3319 85.5071 44.3322 85.7591V88.0402C44.3319 88.2922 44.2318 88.5338 44.0538 88.712C43.8758 88.8902 43.6345 88.9904 43.3828 88.9907Z" fill="#CCCCCC"/>
<path d="M37.4648 94.9545C37.7509 94.9876 38.0338 95.0432 38.3112 95.1209L57.901 78.3006L56.7559 72.129L65.8325 69.1814L68.9202 79.9096C69.1696 80.7763 69.1315 81.7007 68.8116 82.5438C68.4917 83.387 67.9073 84.1035 67.146 84.5858L42.3361 100.305C42.3537 101.415 42.0333 102.505 41.4173 103.429C40.8014 104.352 39.9191 105.066 38.888 105.476C37.8569 105.885 36.7257 105.97 35.6449 105.72C34.5641 105.47 33.585 104.897 32.8377 104.076C32.0904 103.255 31.6104 102.226 31.4615 101.126C31.3127 100.025 31.502 98.9052 32.0043 97.915C32.5066 96.9248 33.2981 96.1112 34.2735 95.5823C35.2489 95.0535 36.3621 94.8345 37.4648 94.9546V94.9545Z" fill="#FFB8B8"/>
<path d="M57.952 49.659C60.664 48.8989 63.3738 50.9656 64.2818 54.4866L68.6391 71.383C68.9657 72.6496 68.3313 73.9956 67.3405 74.1383L55.7327 75.81C54.8395 75.9386 54.0526 75.0214 54.0198 73.8137L53.5691 57.1867C53.4713 53.5758 55.3227 50.3959 57.952 49.659Z" fill="#3F3D56"/>
</svg>
