<svg width="106" height="207" viewBox="0 0 106 207" fill="none" xmlns="http://www.w3.org/2000/svg">
<path d="M10.7027 59.0893H3.34693C3.11092 59.0901 2.88311 59.0025 2.70829 58.8437C2.53347 58.685 2.42424 58.4665 2.40205 58.2313L0.929688 43.1211H13.1199L11.6475 58.2311C11.6254 58.4664 11.5162 58.6849 11.3414 58.8437C11.1665 59.0025 10.9387 59.0901 10.7027 59.0893Z" fill="#E6E6E6"/>
<path d="M13.1006 45.0221H0.94933C0.697644 45.0218 0.456352 44.9216 0.278383 44.7434C0.100415 44.5652 0.000296092 44.3236 0 44.0716V41.7904C0.000296095 41.5385 0.100414 41.2969 0.278383 41.1187C0.456352 40.9405 0.697645 40.8403 0.94933 40.84H13.1006C13.3523 40.8403 13.5936 40.9405 13.7716 41.1187C13.9495 41.2969 14.0497 41.5385 14.05 41.7904V44.0716C14.0497 44.3236 13.9495 44.5652 13.7716 44.7434C13.5936 44.9216 13.3523 45.0218 13.1006 45.0221Z" fill="#CCCCCC"/>
<path d="M82.9706 147.825C77.6262 140.707 73.4013 132.812 70.4425 124.415C70.2711 123.913 70.2833 123.366 70.4769 122.872C70.6705 122.377 71.033 121.968 71.4998 121.716L89.7883 111.905C90.0842 111.745 90.4126 111.655 90.7485 111.641C91.0845 111.628 91.4191 111.691 91.727 111.826C92.0405 111.963 92.3189 112.169 92.5408 112.429C92.7628 112.69 92.9225 112.997 93.0078 113.329C95.1364 121.421 99.1377 128.898 104.688 135.154C104.916 135.409 105.084 135.712 105.177 136.042C105.271 136.371 105.288 136.717 105.228 137.054C105.17 137.386 105.037 137.7 104.84 137.972C104.643 138.245 104.386 138.469 104.089 138.627L85.8002 148.438C85.3324 148.688 84.7913 148.763 84.2731 148.651C83.755 148.539 83.2934 148.246 82.9706 147.825Z" fill="#CCCCCC"/>
<path d="M84.2177 146.886C84.3161 147.009 84.4543 147.094 84.6084 147.125C84.7625 147.157 84.9228 147.134 85.0618 147.06L103.35 137.249C103.439 137.202 103.516 137.136 103.575 137.055C103.634 136.974 103.673 136.88 103.69 136.781C103.709 136.677 103.704 136.57 103.674 136.468C103.645 136.366 103.593 136.272 103.521 136.194C97.8072 129.753 93.6881 122.056 91.4968 113.725C91.4714 113.622 91.4227 113.527 91.3542 113.446C91.2858 113.365 91.1996 113.301 91.1023 113.259C91.0107 113.218 90.9109 113.199 90.8106 113.203C90.7104 113.207 90.6124 113.234 90.5245 113.283L72.2363 123.094C72.0977 123.169 71.9897 123.29 71.9308 123.437C71.872 123.583 71.8659 123.745 71.9138 123.895C74.8196 132.142 78.969 139.896 84.2177 146.886V146.886Z" fill="white"/>
<path d="M90.9879 125.907L81.0272 130.309C80.6484 130.476 80.2189 130.486 79.8329 130.336C79.447 130.186 79.1362 129.89 78.9686 129.511L78.7223 128.952C78.5555 128.573 78.5459 128.142 78.6954 127.756C78.845 127.37 79.1415 127.058 79.52 126.891L89.4807 122.488C89.8595 122.321 90.289 122.312 90.6749 122.462C91.0608 122.611 91.3717 122.908 91.5392 123.287L91.7856 123.846C91.9523 124.225 91.962 124.655 91.8124 125.042C91.6629 125.428 91.3663 125.739 90.9879 125.907Z" fill="#CCCCCC"/>
<path d="M94.6314 132.68L84.6708 137.082C84.2919 137.249 83.8624 137.259 83.4765 137.109C83.0906 136.96 82.7797 136.663 82.6122 136.284L82.3658 135.725C82.1991 135.346 82.1894 134.916 82.339 134.529C82.4885 134.143 82.7851 133.832 83.1636 133.664L93.1242 129.261C93.5031 129.095 93.9325 129.085 94.3185 129.235C94.7044 129.384 95.0152 129.681 95.1828 130.06L95.4291 130.619C95.5959 130.998 95.6055 131.428 95.456 131.815C95.3064 132.201 95.0099 132.512 94.6314 132.68Z" fill="#CCCCCC"/>
<path d="M71.2699 127.036C70.5826 126.594 70.0005 126.005 69.5648 125.313C69.1291 124.621 68.8502 123.841 68.7479 123.03C68.6456 122.218 68.7223 121.393 68.9726 120.615C69.223 119.836 69.6408 119.121 70.1968 118.521L65.9961 58.8358L78.0962 60.0107L78.4286 118.461C79.373 119.463 79.9175 120.777 79.9589 122.154C80.0004 123.531 79.5358 124.875 78.6534 125.932C77.771 126.989 76.532 127.685 75.1712 127.889C73.8104 128.092 72.4222 127.789 71.2699 127.036L71.2699 127.036Z" fill="#A0616A"/>
<path d="M68.7347 78.8911C68.4514 78.6871 68.2174 78.422 68.05 78.1153C67.8826 77.8087 67.786 77.4683 67.7675 77.1193L66.8809 61.0326C66.7931 59.4389 67.2978 57.869 68.2977 56.6257C69.2975 55.3825 70.7217 54.5539 72.2956 54.2997C73.8695 54.0456 75.4817 54.3838 76.8212 55.2493C78.1608 56.1147 79.1328 57.4461 79.55 58.9867L83.4447 73.3691C83.6065 73.9692 83.524 74.6091 83.2151 75.1483C82.9063 75.6876 82.3965 76.0821 81.7975 76.2455L70.7185 79.253C70.3818 79.3451 70.0289 79.3604 69.6855 79.2977C69.3422 79.2351 69.0173 79.0961 68.7347 78.8911Z" fill="#3F3D56"/>
<path d="M48.1117 200.414H41.7321L38.6973 175.777H48.1128L48.1117 200.414Z" fill="#A0616A"/>
<path d="M37.1754 198.589H49.4789V206.345H29.4287C29.4287 205.327 29.6291 204.318 30.0184 203.377C30.4077 202.436 30.9783 201.581 31.6977 200.861C32.417 200.14 33.271 199.569 34.2109 199.179C35.1507 198.79 36.1581 198.589 37.1754 198.589Z" fill="#2F2E41"/>
<path d="M72.0493 200.414H65.6696L62.6348 175.777H72.0503L72.0493 200.414Z" fill="#A0616A"/>
<path d="M61.1119 198.589H73.4154V206.345H53.3652C53.3652 205.327 53.5656 204.318 53.9549 203.377C54.3442 202.436 54.9148 201.581 55.6342 200.861C56.3535 200.14 57.2075 199.569 58.1474 199.179C59.0873 198.79 60.0946 198.589 61.1119 198.589Z" fill="#2F2E41"/>
<path d="M47.8105 188.003L40.7874 187.667C40.1892 187.639 39.6245 187.382 39.2097 186.949C38.7948 186.517 38.5613 185.942 38.5572 185.342C36.7057 156.729 34.1414 126.048 38.0671 114.195C38.0648 113.857 38.1353 113.523 38.274 113.215C38.4126 112.907 38.6161 112.633 38.8704 112.411C39.1247 112.189 39.4238 112.025 39.7474 111.929C40.0709 111.834 40.4113 111.81 40.7451 111.858L68.8417 115.942C69.3969 116.019 69.9053 116.295 70.2737 116.718C70.6421 117.141 70.8456 117.683 70.847 118.244C74.4341 132.279 74.5962 157.727 74.4606 184.17C74.4629 184.479 74.404 184.786 74.2874 185.072C74.1708 185.359 73.9987 185.619 73.781 185.839C73.5633 186.059 73.3044 186.233 73.0191 186.352C72.7339 186.471 72.4279 186.532 72.1189 186.532H64.5476C63.989 186.534 63.4482 186.336 63.0236 185.972C62.599 185.609 62.3189 185.105 62.2344 184.552L57.563 154.819C57.4948 154.384 57.2716 153.989 56.9347 153.706C56.5978 153.422 56.17 153.271 55.7302 153.279C55.2904 153.287 54.8685 153.454 54.5423 153.75C54.216 154.045 54.0076 154.449 53.9554 154.886L50.2471 185.939C50.1773 186.508 49.9025 187.032 49.4744 187.412C49.0462 187.793 48.4941 188.004 47.9217 188.006C47.8849 188.006 47.8478 188.005 47.8105 188.003Z" fill="#2F2E41"/>
<path d="M52.7544 118.247C46.5623 114.803 41.7241 113.898 39.3914 113.665C39.0814 113.635 38.7807 113.542 38.5076 113.392C38.2344 113.242 37.9945 113.039 37.8024 112.793C37.6061 112.546 37.4619 112.261 37.3786 111.957C37.2953 111.652 37.2746 111.334 37.3179 111.021L44.0502 60.9777C44.4378 58.05 45.5671 55.2704 47.3309 52.9032C49.0946 50.536 51.4339 48.6601 54.1263 47.4539C56.7325 46.2544 59.6019 45.7425 62.4616 45.9669C65.3212 46.1913 68.0759 47.1446 70.4636 48.7361C70.6943 48.8897 70.9206 49.0466 71.1427 49.2067C73.8924 51.2239 75.9842 54.0108 77.1543 57.2164C78.3245 60.4219 78.5208 63.9026 77.7183 67.2196C73.59 84.129 72.1719 111.85 71.9295 117.236C71.9105 117.695 71.7561 118.138 71.4859 118.509C71.2157 118.881 70.8417 119.164 70.4111 119.323C67.871 120.247 65.1906 120.725 62.488 120.735C59.0841 120.756 55.7321 119.899 52.7544 118.247Z" fill="#3F3D56"/>
<path d="M58.3853 40.6589C65.4439 40.6589 71.1661 34.9297 71.1661 27.8624C71.1661 20.7951 65.4439 15.0659 58.3853 15.0659C51.3266 15.0659 45.6045 20.7951 45.6045 27.8624C45.6045 34.9297 51.3266 40.6589 58.3853 40.6589Z" fill="#A0616A"/>
<path d="M77.5313 44.7006C77.2081 49.1861 72.9593 48.5848 70.6364 43.5863C70.4559 43.1983 70.2945 42.7995 70.1547 42.3954C69.3566 40.087 69.2072 37.7563 68.0686 35.4397C67.7889 34.8617 67.4414 34.3439 67.0588 33.9355C64.06 30.7995 62.8142 37.6202 60.0427 34.8044C58.3433 33.0778 58.0103 29.4024 56.4093 27.3508C54.2963 24.6429 52.3575 27.1966 50.0702 26.1753C47.5253 25.039 45.513 19.8085 45.3978 16.174C45.2574 11.7415 46.9284 8.66312 49.2861 7.3547C51.6437 6.04628 54.6241 6.31101 57.6365 7.07544C61.0591 7.94398 64.763 9.56362 68.1714 13.2857C72.3165 17.8122 75.4334 24.9008 76.9956 31.5355C77.9459 35.5715 77.7952 41.0377 77.5313 44.7006Z" fill="#2F2E41"/>
<path d="M77.5517 50.4274C77.3279 49.375 75.4078 47.937 72.6603 46.7648C68.244 44.9738 63.4676 44.2527 58.7201 44.6601C53.9727 45.0675 49.3885 46.592 45.341 49.1093C45.0586 49.1245 44.789 49.2322 44.5737 49.4157C44.3584 49.5993 44.2093 49.8486 44.1493 50.1253L34.9075 91.0505L33.7054 96.3804L32.9093 99.9076L31.7073 105.222L31.0672 108.061C31.0263 108.243 31.0245 108.431 31.0621 108.613C31.0997 108.796 31.1757 108.968 31.2851 109.118C31.3945 109.269 31.5347 109.394 31.6964 109.486C31.858 109.578 32.0374 109.634 32.2225 109.65L72.1296 113.1C72.1659 113.1 72.2076 113.105 72.2439 113.105C72.5732 113.103 72.8894 112.976 73.1289 112.75C73.3684 112.523 73.5133 112.215 73.5344 111.886L73.9143 106.097L74.3203 99.9076L74.4971 97.2244L74.8978 91.0505L77.5569 50.4952V50.4587L77.5517 50.4274Z" fill="#EE4950"/>
<path d="M12.071 53.0035C12.1348 53.2847 12.1765 53.5704 12.1955 53.8581L34.5492 66.7697L39.9826 63.6379L45.7749 71.2302L34.1513 79.5249L8.64912 59.3814C7.60899 59.7667 6.47635 59.8259 5.4018 59.5511C4.32726 59.2762 3.36173 58.6803 2.63366 57.8427C1.90559 57.005 1.44948 55.9653 1.32597 54.8618C1.20246 53.7583 1.4174 52.6433 1.94223 51.6651C2.46706 50.6869 3.2769 49.8918 4.26404 49.3856C5.25117 48.8794 6.36879 48.6861 7.46832 48.8314C8.56784 48.9767 9.59714 49.4537 10.4193 50.199C11.2415 50.9443 11.8176 51.9225 12.0709 53.0035H12.071Z" fill="#A0616A"/>
<path d="M35.3473 65.6717C35.3101 65.3242 35.3512 64.9728 35.4676 64.6434C35.5841 64.3139 35.7729 64.0149 36.0202 63.7683L47.3972 52.3746C48.5245 51.2458 50.0292 50.5749 51.6212 50.4912C53.2133 50.4075 54.7799 50.9169 56.019 51.9211C57.2582 52.9254 58.0821 54.3535 58.3318 55.93C58.5816 57.5065 58.2396 59.1197 57.3717 60.4587L49.2696 72.9588C48.931 73.4799 48.3999 73.8452 47.7927 73.9746C47.1854 74.104 46.5517 73.987 46.0305 73.6492L36.4015 67.3927C36.1084 67.203 35.8616 66.95 35.6791 66.6521C35.4967 66.3543 35.3833 66.0192 35.3473 65.6717Z" fill="#3F3D56"/>
<path d="M74.8975 91.0504L74.4968 97.2244L33.7051 96.3803L34.9071 91.0504H74.8975Z" fill="#CCCCCC"/>
<path d="M74.3206 99.9076L73.9141 106.097L31.707 105.222L32.9096 99.9076H74.3206Z" fill="#CCCCCC"/>
<path d="M58.636 3.00012C54.3104 3.00059 50.1549 4.68668 47.0492 7.70134C43.9436 10.716 42.1318 14.8225 41.9975 19.1514H38.862C38.586 19.1514 38.3213 19.2612 38.1261 19.4566C37.931 19.652 37.8213 19.917 37.8213 20.1934V24.3615C37.8213 24.6378 37.931 24.9029 38.1261 25.0983C38.3213 25.2937 38.586 25.4035 38.862 25.4035H74.2471C74.5231 25.4035 74.7879 25.2937 74.983 25.0983C75.1782 24.9029 75.2878 24.6378 75.2878 24.3615V19.6724C75.2879 17.4829 74.8572 15.3149 74.0203 13.2922C73.1835 11.2694 71.957 9.43143 70.4107 7.88327C68.8644 6.33511 67.0287 5.10704 65.0084 4.26919C62.9881 3.43134 60.8228 3.00011 58.636 3.00012Z" fill="#EE4950"/>
</svg>
