<svg xmlns="http://www.w3.org/2000/svg" viewBox="0 0 184.17 189.75"><path d="M69.76,139.39A69.7,69.7,0,1,0,0,69.69,69.73,69.73,0,0,0,69.76,139.39Z" style="fill:#eee;fill-opacity:0.4000000059604645"/><path d="M75.73,97.42c6-3.33,13.58-2.66,20.1-.39s12.43,6,18.77,8.75a68.75,68.75,0,0,0,60.92-3.54c1.73,4-.12,8.59-2.16,12.46s-4.35,8-3.51,12.33c1.07,5.48,6.82,8.77,9.15,13.85,2.22,4.82,1,10.47-.67,15.5s-3.9,10.08-3.61,15.38,4.14,10.89,9.45,10.89c-7.87,1.22-15.89,2.45-23.75,1.19s-15.68-5.4-19.33-12.47c-1.82-3.53-2.53-7.59-4.62-11-3.57-5.75-10.42-8.46-16.88-10.5s-13.37-4-17.92-9c-4.34-4.78-5.71-11.44-8-17.47A55.76,55.76,0,0,0,74.32,98.22" style="fill:#916"/><path d="M82.74,72.37a8.74,8.74,0,0,0-6.9-.4c-2.16.92-3.63,3.27-2.93,5.36.31.94,1,1.87.75,2.82A2.85,2.85,0,0,1,72,81.71a6.57,6.57,0,0,0-2.09,1.22,1.36,1.36,0,0,0,0,2c.22.15.5.22.71.38a1,1,0,0,1,.38.57,1.16,1.16,0,0,1,0,.69,2.68,2.68,0,0,1-.85,1.12c-.76.66-1.77,1.41-1.53,2.34a1.64,1.64,0,0,0,.43.65,1.58,1.58,0,0,0,.68.38,5.5,5.5,0,0,0,1.62.21L93.74,92A8.62,8.62,0,0,0,96,91.89a2.54,2.54,0,0,0,1-.41,2.59,2.59,0,0,0,.75-.76,2.44,2.44,0,0,0-.38-2.52,25.58,25.58,0,0,0-1.9-2,3.18,3.18,0,0,1-1-2.41,6.09,6.09,0,0,1,.88-2,2,2,0,0,0,.1-2C94.76,79,93.3,79,92.6,78.27a3.45,3.45,0,0,1-.47-2.18A5.3,5.3,0,0,0,89,71.77a6.22,6.22,0,0,0-5.67.39Z" style="fill:#2f2e41"/><path d="M68.56,186.08,65,185,67.44,171l5.19,1.56Z" style="fill:#a0616a"/><path d="M68.43,189.75l-11.34-3.4,0-.14a4.59,4.59,0,0,1,.84-1.59,4.38,4.38,0,0,1,1.39-1.14,4.49,4.49,0,0,1,1.71-.53,4.69,4.69,0,0,1,1.79.17h0l6.93,2.08Z" style="fill:#2f2e41"/><path d="M101.73,186.2H98.06l-1.75-14.15h5.42Z" style="fill:#a0616a"/><path d="M102.66,189.75H90.83v-.15a4.64,4.64,0,0,1,.35-1.76,4.44,4.44,0,0,1,1-1.49,4.54,4.54,0,0,1,1.49-1,4.66,4.66,0,0,1,1.77-.35h7.22Z" style="fill:#2f2e41"/><path d="M96.63,175.5a1.37,1.37,0,0,1-.87-.32,1.34,1.34,0,0,1-.46-.81l-5.45-34a1,1,0,0,0-.31-.59,1,1,0,0,0-.6-.28,1,1,0,0,0-.65.13,1.07,1.07,0,0,0-.44.5l-14.12,34a1.35,1.35,0,0,1-1.67.76L67,173.19a1.35,1.35,0,0,1-.89-1.58l11.57-51.15a1.35,1.35,0,0,1,.36-.65,1.42,1.42,0,0,1,.65-.37l15.52-3.6a1.42,1.42,0,0,1,.58,0,1.48,1.48,0,0,1,.53.23c10.22,7.42,9.36,31.66,7.45,58a1.36,1.36,0,0,1-.4.87,1.33,1.33,0,0,1-.88.38l-4.76.21Z" style="fill:#2f2e41"/><path d="M83.57,91.84a7.35,7.35,0,1,0-7.35-7.35A7.35,7.35,0,0,0,83.57,91.84Z" style="fill:#a0616a"/><path d="M83.89,122.57a12,12,0,0,1-5.1-1.18l-.06,0,0,0-6.59-17.07-.13-3a7.25,7.25,0,0,1,.49-2.91,7.17,7.17,0,0,1,4.11-4,7.05,7.05,0,0,1,2.91-.45l7,.39a7.13,7.13,0,0,1,6.71,7.07,4.78,4.78,0,0,1-1,5.64c-.1.58-1,6.65,2.36,10l.09.1-.08.1C94.49,117.23,90.19,122.57,83.89,122.57Z" style="fill:#2f80ed"/><path d="M93.72,123.86a3.08,3.08,0,0,0,1.8-1.8,3,3,0,0,0-.22-2.54l7-8.09-5.51-.72-5.8,7.8a3,3,0,0,0,2.74,5.35Z" style="fill:#a0616a"/><path d="M98.09,117.61a1.39,1.39,0,0,1-.74-.22l-3.46-2.27a1.34,1.34,0,0,1-.41-1.81l2.5-4.2a2,2,0,0,0,.25-.75,1.87,1.87,0,0,0-.07-.78,2,2,0,0,0-.39-.68,1.87,1.87,0,0,0-.64-.47l-7.19-3.22a4.27,4.27,0,0,1-2-1.95,4.34,4.34,0,0,1-.38-2.81,4.44,4.44,0,0,1,.82-1.76,4.36,4.36,0,0,1,1.52-1.21,4.27,4.27,0,0,1,1.89-.41,4.42,4.42,0,0,1,1.89.46l10.91,5.59a5.73,5.73,0,0,1,3,3.77,5.72,5.72,0,0,1-.93,4.69l-5.4,7.47a1.24,1.24,0,0,1-.47.41A1.32,1.32,0,0,1,98.09,117.61Z" style="fill:#2f80ed"/><path d="M76.05,83.45a4.57,4.57,0,0,0,4-4.82A3.84,3.84,0,0,0,81,81.24a3.91,3.91,0,0,0,2.42,1.35c1.07.12,2.23-.21,3.16.33s1.36,2,2.43,2.55a2.29,2.29,0,0,0,2.85-1.2,4.58,4.58,0,0,0,0-3.36A9.48,9.48,0,0,0,76.11,77a6,6,0,0,0-1.88,3.61A3.53,3.53,0,0,0,76,84.13Z" style="fill:#2f2e41"/><path d="M58.94,63.1a3,3,0,0,1,1,.85,3,3,0,0,1,.53,1.19,3,3,0,0,1-.59,2.47l5.73,9L60,76.54,55.45,68a3,3,0,0,1-1-1.92,3,3,0,0,1,4.46-3Z" style="fill:#a0616a"/><path d="M63.56,69.52,71,87l7.74,13.12a4.24,4.24,0,0,1-.77,5.27,4.31,4.31,0,0,1-1.66,1A4.29,4.29,0,0,1,71.19,104L56.26,72.17a1.48,1.48,0,0,1-.13-.55,1.38,1.38,0,0,1,.12-.56,1.35,1.35,0,0,1,.33-.46,1.33,1.33,0,0,1,.49-.28l4.84-1.56a.92.92,0,0,1,.28-.05,1.34,1.34,0,0,1,1.37.81Z" style="fill:#2f80ed"/><path d="M85.16,32.37V56.89a.28.28,0,0,1-.3.3.34.34,0,0,1-.21-.08.35.35,0,0,1-.08-.22V32.37a.29.29,0,0,1,.29-.3.31.31,0,0,1,.22.09A.3.3,0,0,1,85.16,32.37Z" style="fill:#ccc"/><path d="M111.16,53.18l-8.47,8.46a.32.32,0,0,1-.21.08.3.3,0,0,1-.21-.08.31.31,0,0,1-.09-.22.29.29,0,0,1,.09-.21l8.47-8.46a.18.18,0,0,1,.09-.06.27.27,0,0,1,.12,0,.2.2,0,0,1,.11,0,.24.24,0,0,1,.16.16.23.23,0,0,1,0,.11.41.41,0,0,1-.09.22Z" style="fill:#ccc"/><path d="M58.57,53.18,67,61.64a.32.32,0,0,0,.42,0,.31.31,0,0,0,.09-.22.29.29,0,0,0-.09-.21L59,52.75a.18.18,0,0,0-.09-.06l-.12,0a.2.2,0,0,0-.11,0,.21.21,0,0,0-.1.06.36.36,0,0,0-.07.1.43.43,0,0,0,0,.11.5.5,0,0,0,0,.12A.61.61,0,0,0,58.57,53.18Z" style="fill:#ccc"/></svg>