<svg xmlns="http://www.w3.org/2000/svg" viewBox="0 0 20 21.09">
    <title>Component</title>
    <path class="sidebar_Icon" d="M13,6.26H13a.81.81,0,0,0-.93.67.8.8,0,0,0,.66.93h.05A3.2,3.2,0,0,1,15.39,11,.82.82,0,0,0,17,11,4.83,4.83,0,0,0,13,6.26Z"/>
    <path class="sidebar_Icon" d="M19.58,8.94a7.3,7.3,0,0,0-5.52-5.28,20.82,20.82,0,0,0-2.2-.32,6.4,6.4,0,0,0-2-2.25A5.84,5.84,0,0,0,6.61,0H5.68A6.28,6.28,0,0,0,4,.24,5.39,5.39,0,0,0,0,5.41v6.21H0c0,.37,0,.72,0,1.09H0v.16L0,13A11.8,11.8,0,0,0,.4,15.35,7.31,7.31,0,0,0,6,20.66l.17,0a18.7,18.7,0,0,0,7.67,0l.17,0a7.33,7.33,0,0,0,5.59-5.31A12.66,12.66,0,0,0,19.58,8.94ZM4.38,1.8a4.74,4.74,0,0,1,1.3-.18h.93a4.26,4.26,0,0,1,2.29.8,5.37,5.37,0,0,1,.94.83,21.11,21.11,0,0,0-3.07.28c-.31,0-.6.08-.84.13A7.26,7.26,0,0,0,1.62,6.44v-1A3.78,3.78,0,0,1,4.38,1.8Zm9.29,17.28-.17,0a17.24,17.24,0,0,1-7,0l-.17,0A5.7,5.7,0,0,1,2,14.94a10.86,10.86,0,0,1-.29-3.89c0-.14,0-.28,0-.42A9.37,9.37,0,0,1,2,9.35a5.66,5.66,0,0,1,4.28-4.1c.23,0,.47-.07.7-.11,1.19-.14,2.89-.21,4-.22a18.27,18.27,0,0,1,2.75.33A5.66,5.66,0,0,1,18,9.35a11,11,0,0,1,0,5.59A5.72,5.72,0,0,1,13.67,19.08Z"/>
</svg>