<svg xmlns="http://www.w3.org/2000/svg" viewBox="0 0 20 22"><title>Dashboard</title><circle class="sidebar_Icon_Selected" cx="13.5" cy="15.5" r="6.5"/><path class="sidebar_Icon" d="M19.78,8.67,13.45,2.29A19.11,19.11,0,0,0,11.72.68,2.75,2.75,0,0,0,10,0,2.75,2.75,0,0,0,8.28.68,19.11,19.11,0,0,0,6.55,2.29L.22,8.67a.77.77,0,1,0,1.1,1.08l.43-.44v3.4a7.15,7.15,0,0,0,5.5,7,11.89,11.89,0,0,0,5.5,0,7.15,7.15,0,0,0,5.5-7V9.31l.43.44a.77.77,0,1,0,1.1-1.08ZM8.62,18.36a3,3,0,0,1-.2-1.74l0-.1A1.56,1.56,0,0,1,9.55,15.3a1.72,1.72,0,0,1,.9,0,1.56,1.56,0,0,1,1.11,1.22l0,.1a3,3,0,0,1-.2,1.74A10.62,10.62,0,0,1,8.62,18.36Zm8.09-5.65A5.6,5.6,0,0,1,13.09,18a4.36,4.36,0,0,0,0-1.61l0-.11a3.09,3.09,0,0,0-2.22-2.41,3.14,3.14,0,0,0-1.72,0,3.09,3.09,0,0,0-2.22,2.41l0,.11a4.36,4.36,0,0,0,0,1.61,5.6,5.6,0,0,1-3.62-5.24v-5L7.64,3.38A16.28,16.28,0,0,1,9.21,1.9,1.25,1.25,0,0,1,10,1.54a1.25,1.25,0,0,1,.79.36,16.28,16.28,0,0,1,1.57,1.48l4.35,4.38Z"/></svg>