<svg xmlns="http://www.w3.org/2000/svg" viewBox="0 0 20 20">
    <title>Ideas</title>
    <path class="sidebar_Icon" d="M6.83,8.75,5.56,8.3,5.11,7A1.33,1.33,0,0,0,2.6,7L2.15,8.3.89,8.75a1.32,1.32,0,0,0,0,2.5l1.26.45L2.6,13a1.33,1.33,0,0,0,2.51,0l.45-1.26,1.27-.45A1.33,1.33,0,0,0,6.83,8.75ZM5,10.28a1.33,1.33,0,0,0-.81.81l-.28.8-.29-.8a1.33,1.33,0,0,0-.81-.81L2,10l.8-.28a1.33,1.33,0,0,0,.81-.81l.29-.8.28.8A1.33,1.33,0,0,0,5,9.72l.8.28Z"/>
    <path class="sidebar_Icon" d="M19,4l-2.29-.78L15.87,1A1.54,1.54,0,0,0,13,1l-.81,2.2L9.88,4a1.49,1.49,0,0,0,0,2.83l2.3.78L13,9.78a1.54,1.54,0,0,0,2.88,0l.81-2.2L19,6.8A1.49,1.49,0,0,0,19,4ZM15.23,7l-.8,2.19L13.62,7a1.51,1.51,0,0,0-.93-.9L10.5,5.38l2.19-.74a1.51,1.51,0,0,0,.93-.9l.81-2.19.8,2.19a1.5,1.5,0,0,0,.94.9l2.18.74-2.18.75A1.5,1.5,0,0,0,15.23,7Z"/>
    <path class="sidebar_Icon" d="M13,15.41,12,15l-.38-1a1.28,1.28,0,0,0-2.39,0L8.8,15l-1.09.37a1.24,1.24,0,0,0,0,2.36l1.09.37.38,1h0a1.28,1.28,0,0,0,2.39,0l.38-1L13,17.77A1.24,1.24,0,0,0,13,15.41Zm-1.71,1.32a1.24,1.24,0,0,0-.77.75l-.18.48-.17-.48a1.28,1.28,0,0,0-.78-.75L9,16.59l.4-.13a1.3,1.3,0,0,0,.78-.76l.17-.47.18.47a1.26,1.26,0,0,0,.77.76l.4.13Z"/>
</svg>