<svg xmlns="http://www.w3.org/2000/svg" viewBox="0 0 20 20"><title>Improvements</title><path class="sidebar_Icon" d="M10,12.31H6.92a.77.77,0,0,0,0,1.54H10a.77.77,0,0,0,0-1.54Z"/><path class="sidebar_Icon" d="M6.92,7.69H11a.77.77,0,0,0,0-1.54H6.92a.77.77,0,0,0,0,1.54Z"/><path class="sidebar_Icon" d="M13.08,9.23H6.92a.77.77,0,0,0,0,1.54h6.16a.77.77,0,0,0,0-1.54Z"/><path class="sidebar_Icon" d="M19.62,6.7A8.48,8.48,0,0,0,13.3.38a14.43,14.43,0,0,0-6.6,0A8.48,8.48,0,0,0,.38,6.7a14.43,14.43,0,0,0,0,6.6A8.48,8.48,0,0,0,6.7,19.62a14.43,14.43,0,0,0,6.6,0,8.48,8.48,0,0,0,6.32-6.32A14.43,14.43,0,0,0,19.62,6.7ZM13,18.12a12.78,12.78,0,0,1-5.9,0A6.92,6.92,0,0,1,1.88,13a12.78,12.78,0,0,1,0-5.9A6.92,6.92,0,0,1,7.05,1.88a12.78,12.78,0,0,1,5.9,0,6.92,6.92,0,0,1,5.17,5.17,12.78,12.78,0,0,1,0,5.9A6.92,6.92,0,0,1,13,18.12Z"/></svg>