<svg xmlns="http://www.w3.org/2000/svg" viewBox="0 0 20 20">
    <title>Leaderboard</title>
    <path class="sidebar_Icon" d="M19.62,6.7A8.48,8.48,0,0,0,13.3.38a14.43,14.43,0,0,0-6.6,0A8.48,8.48,0,0,0,.38,6.7a14.43,14.43,0,0,0,0,6.6A8.48,8.48,0,0,0,6.7,19.62a14.43,14.43,0,0,0,6.6,0,8.48,8.48,0,0,0,6.32-6.32A14.43,14.43,0,0,0,19.62,6.7ZM18.12,13A6.92,6.92,0,0,1,13,18.12a12.78,12.78,0,0,1-5.9,0A6.92,6.92,0,0,1,1.88,13a12.78,12.78,0,0,1,0-5.9A6.92,6.92,0,0,1,7.05,1.88a12.78,12.78,0,0,1,5.9,0,6.92,6.92,0,0,1,5.17,5.17A12.78,12.78,0,0,1,18.12,13Z"/>
    <path class="sidebar_Icon" d="M10,6a.77.77,0,0,0-.77.77v5.33a.77.77,0,1,0,1.54,0V6.8A.77.77,0,0,0,10,6Z"/>
    <path class="sidebar_Icon" d="M13.2,9.23a.78.78,0,0,0-.77.77v3.2a.77.77,0,1,0,1.54,0V10A.77.77,0,0,0,13.2,9.23Z"/>
    <path class="sidebar_Icon" d="M6.8,8.16A.77.77,0,0,0,6,8.93V13.2a.77.77,0,1,0,1.54,0V8.93A.78.78,0,0,0,6.8,8.16Z"/>
</svg>