<svg xmlns="http://www.w3.org/2000/svg" viewBox="0 0 20 18"><title>People</title><path class="sidebar_Icon" d="M6.92,0a4.37,4.37,0,1,0,4.36,4.37A4.37,4.37,0,0,0,6.92,0Zm0,7.2A2.83,2.83,0,1,1,9.74,4.37,2.83,2.83,0,0,1,6.92,7.2Z"/><path class="sidebar_Icon" d="M9.68,10.72l-.18,0a15.89,15.89,0,0,0-5.15,0l-.18,0A5,5,0,0,0,0,15.62,2.38,2.38,0,0,0,2.38,18h9.09a2.39,2.39,0,0,0,2.38-2.38A5,5,0,0,0,9.68,10.72Zm1.79,5.74H2.38a.84.84,0,0,1-.84-.84,3.43,3.43,0,0,1,2.87-3.38l.18,0a14.57,14.57,0,0,1,4.66,0l.19,0a3.43,3.43,0,0,1,2.87,3.38A.85.85,0,0,1,11.47,16.46Z"/><path class="sidebar_Icon" d="M15.83,10.72a2.63,2.63,0,0,0-.49,0h-1a.77.77,0,0,0,0,1.54h1l.25,0a3.43,3.43,0,0,1,2.87,3.38.84.84,0,0,1-.84.84H15.53a.77.77,0,0,0,0,1.54h2.09A2.38,2.38,0,0,0,20,15.62,5,5,0,0,0,15.83,10.72Z"/><path class="sidebar_Icon" d="M13.08,0a.77.77,0,1,0,0,1.54,2.83,2.83,0,0,1,0,5.66.77.77,0,1,0,0,1.54,4.37,4.37,0,0,0,0-8.74Z"/></svg>