<svg xmlns="http://www.w3.org/2000/svg" viewBox="0 0 20 22">
    <title>Settings</title>
    <circle class="sidebar_Icon_Selected" cx="13.5" cy="15.5" r="6.5"/>
    <path class="sidebar_Icon" d="M20,9.56a2.52,2.52,0,0,0-2.48-2.13h-.66c-.06-.15-.12-.3-.19-.44l.47-.47a2.51,2.51,0,0,0,.25-3.26,3.64,3.64,0,0,0-.62-.62,2.51,2.51,0,0,0-3.26.25L13,3.36l-.44-.19V2.51A2.52,2.52,0,0,0,10.44,0a3.24,3.24,0,0,0-.88,0A2.52,2.52,0,0,0,7.43,2.51v.66L7,3.36l-.47-.47a2.51,2.51,0,0,0-3.26-.25,3.64,3.64,0,0,0-.62.62,2.51,2.51,0,0,0,.25,3.26L3.36,7c-.07.14-.13.29-.19.44H2.51A2.52,2.52,0,0,0,0,9.56a3.24,3.24,0,0,0,0,.88H0a2.52,2.52,0,0,0,2.48,2.13h.66c.06.15.12.3.19.44l-.47.47a2.51,2.51,0,0,0-.25,3.26,3.64,3.64,0,0,0,.62.62,2.51,2.51,0,0,0,3.26-.25L7,16.64l.44.19v.66A2.52,2.52,0,0,0,9.56,20a3.24,3.24,0,0,0,.88,0,2.52,2.52,0,0,0,2.13-2.48v-.66l.44-.19.47.47a2.51,2.51,0,0,0,3.26.25,3.64,3.64,0,0,0,.62-.62,2.51,2.51,0,0,0-.25-3.26L16.64,13c.07-.14.13-.29.19-.44h.66A2.52,2.52,0,0,0,20,10.44,3.24,3.24,0,0,0,20,9.56ZM17.49,11H16.28a.78.78,0,0,0-.74.56l.74.21h0l-.74-.21A5.82,5.82,0,0,1,15,12.8a.77.77,0,0,0,.13.92l.86.85a1,1,0,0,1,.09,1.25,1.07,1.07,0,0,1-.3.3A1,1,0,0,1,14.57,16l-.85-.86A.77.77,0,0,0,12.8,15a5.82,5.82,0,0,1-1.21.5l.21.74h0l-.21-.74a.78.78,0,0,0-.56.74v1.21a1,1,0,0,1-.82,1,1.48,1.48,0,0,1-.42,0,1,1,0,0,1-.82-1V16.28a.78.78,0,0,0-.56-.74A5.82,5.82,0,0,1,7.2,15a.77.77,0,0,0-.92.13l.55.54h0l-.55-.54L5.43,16a1,1,0,0,1-1.25.09,1.07,1.07,0,0,1-.3-.3A1,1,0,0,1,4,14.57l.86-.85A.77.77,0,0,0,5,12.8l-.67.37h0L5,12.8a5.82,5.82,0,0,1-.5-1.21l-.74.21h0l.74-.21A.78.78,0,0,0,3.72,11H2.51a1,1,0,0,1-1-.82,1.48,1.48,0,0,1,0-.42,1,1,0,0,1,1-.82H3.72a.78.78,0,0,0,.74-.56L3.72,8.2h0l.74.21A5.82,5.82,0,0,1,5,7.2l-.67-.37h0L5,7.2a.77.77,0,0,0-.13-.92L4,5.43a1,1,0,0,1-.09-1.25,1.07,1.07,0,0,1,.3-.3A1,1,0,0,1,5.43,4l.85.86.55-.54h0l-.55.54A.77.77,0,0,0,7.2,5a5.82,5.82,0,0,1,1.21-.5A.78.78,0,0,0,9,3.72V2.51a1,1,0,0,1,.82-1,1.48,1.48,0,0,1,.42,0,1,1,0,0,1,.82,1V3.72a.78.78,0,0,0,.56.74l.21-.74h0l-.21.74A5.82,5.82,0,0,1,12.8,5a.77.77,0,0,0,.92-.13L14.57,4a1,1,0,0,1,1.25-.09,1.07,1.07,0,0,1,.3.3A1,1,0,0,1,16,5.43l-.86.85A.77.77,0,0,0,15,7.2a5.82,5.82,0,0,1,.5,1.21l.74-.21h0l-.74.21a.78.78,0,0,0,.74.56h1.21a1,1,0,0,1,1,.82,1.48,1.48,0,0,1,0,.42A1,1,0,0,1,17.49,11Z"/>
    <path class="sidebar_Icon" d="M10,6.67A3.33,3.33,0,1,0,13.33,10,3.33,3.33,0,0,0,10,6.67Zm0,5.12A1.79,1.79,0,1,1,11.79,10,1.79,1.79,0,0,1,10,11.79Z"/>
</svg>