<svg xmlns="http://www.w3.org/2000/svg" viewBox="0 0 20 20">
    <title>Sign In</title>
    <path class="sidebar_Icon_SignIn" d="M6.26,13.88a.76.76,0,0,1,.75.75v.95a3,3,0,0,0,3.15,2.92h5.18a3.05,3.05,0,0,0,3.16-2.93V4.43A3.05,3.05,0,0,0,15.34,1.5H10.17A3.05,3.05,0,0,0,7,4.43v.94a.75.75,0,0,1-1.5,0V4.43A4.55,4.55,0,0,1,10.17,0h5.17A4.55,4.55,0,0,1,20,4.43V15.57A4.55,4.55,0,0,1,15.34,20H10.16a4.54,4.54,0,0,1-4.65-4.42v-.95A.75.75,0,0,1,6.26,13.88Z"/>
    <path class="sidebar_Icon_SignIn" d="M13.92,10.39l0,0a.73.73,0,0,0,0-.58l0,0a.66.66,0,0,0-.14-.2h0l-3-2.85a.73.73,0,0,0-1,0,.74.74,0,0,0,0,1l1.7,1.59H.74a.73.73,0,0,0-.74.73.74.74,0,0,0,.74.74H11.41l-1.7,1.58a.74.74,0,0,0,1,1.08l3-2.86h0A.8.8,0,0,0,13.92,10.39Z"/>
</svg>