<svg xmlns="http://www.w3.org/2000/svg" viewBox="0 0 20 22">
    <title>Workshop</title>
    <circle class="sidebar_Icon_Selected" cx="13.5" cy="15.5" r="6.5"/>
    <path class="sidebar_Icon" d="M13.22,8.63,11.47,10.2a2.39,2.39,0,0,1-.26.23L11,10.15,10.26,9a6.41,6.41,0,0,0-.46-.63A1.24,1.24,0,0,0,9,7.92a1.28,1.28,0,0,0-.89.24,6.46,6.46,0,0,0-.6.49L5.75,10.23a.77.77,0,1,0,1,1.14L8.53,9.8a2.39,2.39,0,0,1,.26-.23L9,9.85,9.74,11a6.41,6.41,0,0,0,.46.63,1.24,1.24,0,0,0,.81.45,1.28,1.28,0,0,0,.89-.24,6.46,6.46,0,0,0,.6-.49l1.75-1.58a.77.77,0,1,0-1-1.14Z"/>
    <path class="sidebar_Icon" d="M19.62,6.7A8.48,8.48,0,0,0,13.3.38a14.43,14.43,0,0,0-6.6,0A8.48,8.48,0,0,0,.38,6.7a14.43,14.43,0,0,0,0,6.6A8.48,8.48,0,0,0,6.7,19.62a14.43,14.43,0,0,0,6.6,0,8.48,8.48,0,0,0,6.32-6.32A14.43,14.43,0,0,0,19.62,6.7ZM13,18.12a12.78,12.78,0,0,1-5.9,0A6.92,6.92,0,0,1,1.88,13a12.78,12.78,0,0,1,0-5.9A6.92,6.92,0,0,1,7.05,1.88a12.78,12.78,0,0,1,5.9,0,6.92,6.92,0,0,1,5.17,5.17,12.78,12.78,0,0,1,0,5.9A6.92,6.92,0,0,1,13,18.12Z"/>
</svg>