<svg width="57" height="16" viewBox="0 0 57 16" fill="none" xmlns="http://www.w3.org/2000/svg">
<path d="M0 8C0 3.58172 3.58172 0 8 0H49C53.4183 0 57 3.58172 57 8V8C57 12.4183 53.4183 16 49 16H8C3.58172 16 0 12.4183 0 8V8Z" fill="#E7F9E9"/>
<path d="M4 8C4 5.79086 5.79086 4 8 4V4C10.2091 4 12 5.79086 12 8V8C12 10.2091 10.2091 12 8 12V12C5.79086 12 4 10.2091 4 8V8Z" fill="#37D046"/>
<path d="M18.996 12V4.152H21.096C22.296 4.152 23.232 4.476 23.904 5.124C24.576 5.772 24.912 6.744 24.912 8.04C24.912 9.344 24.58 10.332 23.916 11.004C23.252 11.668 22.336 12 21.168 12H18.996ZM20.388 10.872H21C21.792 10.872 22.404 10.644 22.836 10.188C23.268 9.724 23.484 9.008 23.484 8.04C23.484 7.08 23.268 6.38 22.836 5.94C22.404 5.5 21.792 5.28 21 5.28H20.388V10.872ZM28.976 12.144C28.432 12.144 27.94 12.024 27.5 11.784C27.06 11.536 26.712 11.184 26.456 10.728C26.2 10.264 26.072 9.708 26.072 9.06C26.072 8.42 26.2 7.868 26.456 7.404C26.72 6.94 27.06 6.584 27.476 6.336C27.892 6.088 28.328 5.964 28.784 5.964C29.32 5.964 29.768 6.084 30.128 6.324C30.488 6.556 30.76 6.884 30.944 7.308C31.128 7.724 31.22 8.208 31.22 8.76C31.22 9.048 31.2 9.272 31.16 9.432H27.416C27.48 9.952 27.668 10.356 27.98 10.644C28.292 10.932 28.684 11.076 29.156 11.076C29.412 11.076 29.648 11.04 29.864 10.968C30.088 10.888 30.308 10.78 30.524 10.644L30.992 11.508C30.712 11.692 30.4 11.844 30.056 11.964C29.712 12.084 29.352 12.144 28.976 12.144ZM27.404 8.496H30.02C30.02 8.04 29.92 7.684 29.72 7.428C29.52 7.164 29.22 7.032 28.82 7.032C28.476 7.032 28.168 7.16 27.896 7.416C27.632 7.664 27.468 8.024 27.404 8.496ZM32.618 12V6.108H33.758L33.854 6.912H33.902C34.15 6.648 34.418 6.424 34.706 6.24C35.002 6.056 35.334 5.964 35.702 5.964C36.134 5.964 36.478 6.06 36.734 6.252C36.998 6.436 37.198 6.692 37.334 7.02C37.614 6.716 37.906 6.464 38.21 6.264C38.522 6.064 38.862 5.964 39.23 5.964C39.854 5.964 40.314 6.168 40.61 6.576C40.906 6.984 41.054 7.56 41.054 8.304V12H39.662V8.484C39.662 7.996 39.586 7.652 39.434 7.452C39.29 7.252 39.066 7.152 38.762 7.152C38.394 7.152 37.982 7.396 37.526 7.884V12H36.146V8.484C36.146 7.996 36.07 7.652 35.918 7.452C35.774 7.252 35.546 7.152 35.234 7.152C34.866 7.152 34.454 7.396 33.998 7.884V12H32.618ZM45.2233 12.144C44.7353 12.144 44.2793 12.024 43.8553 11.784C43.4313 11.536 43.0873 11.184 42.8233 10.728C42.5593 10.264 42.4273 9.708 42.4273 9.06C42.4273 8.404 42.5593 7.848 42.8233 7.392C43.0873 6.928 43.4313 6.576 43.8553 6.336C44.2793 6.088 44.7353 5.964 45.2233 5.964C45.7193 5.964 46.1793 6.088 46.6033 6.336C47.0273 6.576 47.3713 6.928 47.6353 7.392C47.8993 7.848 48.0313 8.404 48.0313 9.06C48.0313 9.708 47.8993 10.264 47.6353 10.728C47.3713 11.184 47.0273 11.536 46.6033 11.784C46.1793 12.024 45.7193 12.144 45.2233 12.144ZM45.2233 11.016C45.6553 11.016 45.9953 10.836 46.2433 10.476C46.4913 10.116 46.6153 9.644 46.6153 9.06C46.6153 8.468 46.4913 7.992 46.2433 7.632C45.9953 7.272 45.6553 7.092 45.2233 7.092C44.7913 7.092 44.4513 7.272 44.2033 7.632C43.9633 7.992 43.8433 8.468 43.8433 9.06C43.8433 9.644 43.9633 10.116 44.2033 10.476C44.4513 10.836 44.7913 11.016 45.2233 11.016Z" fill="#2AC437"/>
</svg>
