<svg width="75" height="16" viewBox="0 0 75 16" fill="none" xmlns="http://www.w3.org/2000/svg">
<path d="M0 8C0 3.58172 3.58172 0 8 0H67C71.4183 0 75 3.58172 75 8V8C75 12.4183 71.4183 16 67 16H8C3.58172 16 0 12.4183 0 8V8Z" fill="#E7F9E9"/>
<path d="M4 8C4 5.79086 5.79086 4 8 4V4C10.2091 4 12 5.79086 12 8V8C12 10.2091 10.2091 12 8 12V12C5.79086 12 4 10.2091 4 8V8Z" fill="#37D046"/>
<path d="M18.996 12V4.152H23.736V5.328H20.388V7.548H23.244V8.724H20.388V12H18.996ZM24.8388 12V6.108H25.9788L26.0748 7.152H26.1228C26.3308 6.768 26.5828 6.476 26.8788 6.276C27.1748 6.068 27.4788 5.964 27.7908 5.964C28.0708 5.964 28.2948 6.004 28.4628 6.084L28.2228 7.284C28.1188 7.252 28.0228 7.228 27.9348 7.212C27.8468 7.196 27.7388 7.188 27.6108 7.188C27.3788 7.188 27.1348 7.28 26.8788 7.464C26.6228 7.64 26.4028 7.952 26.2188 8.4V12H24.8388ZM31.7982 12.144C31.2542 12.144 30.7622 12.024 30.3222 11.784C29.8822 11.536 29.5342 11.184 29.2782 10.728C29.0222 10.264 28.8942 9.708 28.8942 9.06C28.8942 8.42 29.0222 7.868 29.2782 7.404C29.5422 6.94 29.8822 6.584 30.2982 6.336C30.7142 6.088 31.1502 5.964 31.6062 5.964C32.1422 5.964 32.5902 6.084 32.9502 6.324C33.3102 6.556 33.5822 6.884 33.7662 7.308C33.9502 7.724 34.0422 8.208 34.0422 8.76C34.0422 9.048 34.0222 9.272 33.9822 9.432H30.2382C30.3022 9.952 30.4902 10.356 30.8022 10.644C31.1142 10.932 31.5062 11.076 31.9782 11.076C32.2342 11.076 32.4702 11.04 32.6862 10.968C32.9102 10.888 33.1302 10.78 33.3462 10.644L33.8142 11.508C33.5342 11.692 33.2222 11.844 32.8782 11.964C32.5342 12.084 32.1742 12.144 31.7982 12.144ZM30.2262 8.496H32.8422C32.8422 8.04 32.7422 7.684 32.5422 7.428C32.3422 7.164 32.0422 7.032 31.6422 7.032C31.2982 7.032 30.9902 7.16 30.7182 7.416C30.4542 7.664 30.2902 8.024 30.2262 8.496ZM37.9602 12.144C37.4162 12.144 36.9242 12.024 36.4842 11.784C36.0442 11.536 35.6962 11.184 35.4402 10.728C35.1842 10.264 35.0562 9.708 35.0562 9.06C35.0562 8.42 35.1842 7.868 35.4402 7.404C35.7042 6.94 36.0442 6.584 36.4602 6.336C36.8762 6.088 37.3122 5.964 37.7682 5.964C38.3042 5.964 38.7522 6.084 39.1122 6.324C39.4722 6.556 39.7442 6.884 39.9282 7.308C40.1122 7.724 40.2042 8.208 40.2042 8.76C40.2042 9.048 40.1842 9.272 40.1442 9.432H36.4002C36.4642 9.952 36.6522 10.356 36.9642 10.644C37.2762 10.932 37.6682 11.076 38.1402 11.076C38.3962 11.076 38.6322 11.04 38.8482 10.968C39.0722 10.888 39.2922 10.78 39.5082 10.644L39.9762 11.508C39.6962 11.692 39.3842 11.844 39.0402 11.964C38.6962 12.084 38.3362 12.144 37.9602 12.144ZM36.3882 8.496H39.0042C39.0042 8.04 38.9042 7.684 38.7042 7.428C38.5042 7.164 38.2042 7.032 37.8042 7.032C37.4602 7.032 37.1522 7.16 36.8802 7.416C36.6162 7.664 36.4522 8.024 36.3882 8.496ZM45.7886 12V5.328H43.5206V4.152H49.4486V5.328H47.1806V12H45.7886ZM50.188 12V6.108H51.328L51.424 7.152H51.472C51.68 6.768 51.932 6.476 52.228 6.276C52.524 6.068 52.828 5.964 53.14 5.964C53.42 5.964 53.644 6.004 53.812 6.084L53.572 7.284C53.468 7.252 53.372 7.228 53.284 7.212C53.196 7.196 53.088 7.188 52.96 7.188C52.728 7.188 52.484 7.28 52.228 7.464C51.972 7.64 51.752 7.952 51.568 8.4V12H50.188ZM54.7446 12V6.108H56.1246V12H54.7446ZM55.4406 5.076C55.1926 5.076 54.9926 5.004 54.8406 4.86C54.6886 4.716 54.6126 4.524 54.6126 4.284C54.6126 4.052 54.6886 3.864 54.8406 3.72C54.9926 3.576 55.1926 3.504 55.4406 3.504C55.6886 3.504 55.8886 3.576 56.0406 3.72C56.1926 3.864 56.2686 4.052 56.2686 4.284C56.2686 4.524 56.1926 4.716 56.0406 4.86C55.8886 5.004 55.6886 5.076 55.4406 5.076ZM59.3932 12.144C58.8812 12.144 58.4612 11.984 58.1332 11.664C57.8132 11.344 57.6532 10.928 57.6532 10.416C57.6532 9.784 57.9292 9.296 58.4812 8.952C59.0332 8.6 59.9132 8.36 61.1212 8.232C61.1132 7.92 61.0292 7.652 60.8692 7.428C60.7172 7.196 60.4412 7.08 60.0412 7.08C59.7532 7.08 59.4692 7.136 59.1892 7.248C58.9172 7.36 58.6492 7.496 58.3852 7.656L57.8812 6.732C58.2092 6.524 58.5772 6.344 58.9852 6.192C59.4012 6.04 59.8412 5.964 60.3052 5.964C61.0412 5.964 61.5892 6.184 61.9492 6.624C62.3172 7.056 62.5012 7.684 62.5012 8.508V12H61.3612L61.2652 11.352H61.2172C60.9532 11.576 60.6692 11.764 60.3652 11.916C60.0692 12.068 59.7452 12.144 59.3932 12.144ZM59.8372 11.064C60.0772 11.064 60.2932 11.008 60.4852 10.896C60.6852 10.776 60.8972 10.616 61.1212 10.416V9.096C60.3212 9.2 59.7652 9.356 59.4532 9.564C59.1412 9.764 58.9852 10.012 58.9852 10.308C58.9852 10.572 59.0652 10.764 59.2252 10.884C59.3852 11.004 59.5892 11.064 59.8372 11.064ZM65.5767 12.144C65.0887 12.144 64.7407 11.996 64.5327 11.7C64.3327 11.404 64.2327 11 64.2327 10.488V3.528H65.6127V10.56C65.6127 10.728 65.6447 10.848 65.7087 10.92C65.7727 10.984 65.8407 11.016 65.9127 11.016C65.9447 11.016 65.9727 11.016 65.9967 11.016C66.0287 11.008 66.0727 11 66.1287 10.992L66.3087 12.024C66.2287 12.056 66.1247 12.084 65.9967 12.108C65.8767 12.132 65.7367 12.144 65.5767 12.144Z" fill="#2AC437"/>
</svg>
