<svg width="111" height="16" viewBox="0 0 111 16" fill="none" xmlns="http://www.w3.org/2000/svg">
<path d="M0.5 8C0.5 3.58172 4.08172 0 8.5 0H102.5C106.918 0 110.5 3.58172 110.5 8V8C110.5 12.4183 106.918 16 102.5 16H8.5C4.08172 16 0.5 12.4183 0.5 8V8Z" fill="#FBE5EA"/>
<path d="M4.5 8C4.5 5.79086 6.29086 4 8.5 4V4C10.7091 4 12.5 5.79086 12.5 8V8C12.5 10.2091 10.7091 12 8.5 12V12C6.29086 12 4.5 10.2091 4.5 8V8Z" fill="#DE294C"/>
<path d="M19.496 12V4.152H20.924L23.372 8.568L24.176 10.236H24.224C24.192 9.836 24.152 9.4 24.104 8.928C24.064 8.456 24.044 8 24.044 7.56V4.152H25.376V12H23.948L21.5 7.584L20.696 5.916H20.648C20.68 6.332 20.716 6.768 20.756 7.224C20.804 7.68 20.828 8.128 20.828 8.568V12H19.496ZM29.743 12.144C29.255 12.144 28.799 12.024 28.375 11.784C27.951 11.536 27.607 11.184 27.343 10.728C27.079 10.264 26.947 9.708 26.947 9.06C26.947 8.404 27.079 7.848 27.343 7.392C27.607 6.928 27.951 6.576 28.375 6.336C28.799 6.088 29.255 5.964 29.743 5.964C30.239 5.964 30.699 6.088 31.123 6.336C31.547 6.576 31.891 6.928 32.155 7.392C32.419 7.848 32.551 8.404 32.551 9.06C32.551 9.708 32.419 10.264 32.155 10.728C31.891 11.184 31.547 11.536 31.123 11.784C30.699 12.024 30.239 12.144 29.743 12.144ZM29.743 11.016C30.175 11.016 30.515 10.836 30.763 10.476C31.011 10.116 31.135 9.644 31.135 9.06C31.135 8.468 31.011 7.992 30.763 7.632C30.515 7.272 30.175 7.092 29.743 7.092C29.311 7.092 28.971 7.272 28.723 7.632C28.483 7.992 28.363 8.468 28.363 9.06C28.363 9.644 28.483 10.116 28.723 10.476C28.971 10.836 29.311 11.016 29.743 11.016ZM38.8913 12.144C38.3633 12.144 37.8513 12.044 37.3553 11.844C36.8673 11.644 36.4353 11.36 36.0593 10.992L36.8753 10.044C37.1553 10.308 37.4753 10.524 37.8353 10.692C38.1953 10.852 38.5553 10.932 38.9153 10.932C39.3633 10.932 39.7033 10.84 39.9353 10.656C40.1673 10.472 40.2833 10.228 40.2833 9.924C40.2833 9.596 40.1673 9.36 39.9353 9.216C39.7113 9.072 39.4233 8.924 39.0713 8.772L37.9913 8.304C37.7353 8.192 37.4833 8.048 37.2353 7.872C36.9953 7.696 36.7953 7.472 36.6353 7.2C36.4833 6.928 36.4073 6.6 36.4073 6.216C36.4073 5.8 36.5193 5.428 36.7433 5.1C36.9753 4.764 37.2873 4.5 37.6793 4.308C38.0793 4.108 38.5353 4.008 39.0473 4.008C39.5033 4.008 39.9433 4.1 40.3673 4.284C40.7913 4.46 41.1553 4.7 41.4593 5.004L40.7513 5.892C40.5033 5.684 40.2393 5.52 39.9593 5.4C39.6873 5.28 39.3833 5.22 39.0473 5.22C38.6793 5.22 38.3793 5.304 38.1473 5.472C37.9233 5.632 37.8113 5.856 37.8113 6.144C37.8113 6.344 37.8673 6.512 37.9793 6.648C38.0993 6.776 38.2553 6.888 38.4473 6.984C38.6393 7.072 38.8433 7.16 39.0593 7.248L40.1273 7.692C40.5913 7.892 40.9713 8.156 41.2673 8.484C41.5633 8.804 41.7113 9.248 41.7113 9.816C41.7113 10.24 41.5993 10.628 41.3753 10.98C41.1513 11.332 40.8273 11.616 40.4033 11.832C39.9873 12.04 39.4833 12.144 38.8913 12.144ZM44.8503 12.144C44.2183 12.144 43.7583 11.94 43.4703 11.532C43.1823 11.124 43.0383 10.548 43.0383 9.804V6.108H44.4183V9.624C44.4183 10.112 44.4903 10.456 44.6343 10.656C44.7783 10.856 45.0103 10.956 45.3303 10.956C45.5863 10.956 45.8103 10.892 46.0023 10.764C46.2023 10.636 46.4143 10.428 46.6383 10.14V6.108H48.0183V12H46.8903L46.7823 11.136H46.7463C46.4903 11.44 46.2103 11.684 45.9063 11.868C45.6023 12.052 45.2503 12.144 44.8503 12.144ZM52.7023 12.144C52.1423 12.144 51.6063 11.888 51.0943 11.376H51.0583L50.9383 12H49.8463V3.528H51.2263V5.712L51.1903 6.696C51.4383 6.48 51.7103 6.304 52.0063 6.168C52.3023 6.032 52.5983 5.964 52.8943 5.964C53.6303 5.964 54.2023 6.236 54.6103 6.78C55.0183 7.324 55.2223 8.048 55.2223 8.952C55.2223 9.624 55.1023 10.2 54.8623 10.68C54.6223 11.152 54.3103 11.516 53.9263 11.772C53.5503 12.02 53.1423 12.144 52.7023 12.144ZM52.4143 11.004C52.8063 11.004 53.1343 10.832 53.3983 10.488C53.6623 10.144 53.7943 9.64 53.7943 8.976C53.7943 8.384 53.6943 7.924 53.4943 7.596C53.2943 7.268 52.9703 7.104 52.5223 7.104C52.1063 7.104 51.6743 7.324 51.2263 7.764V10.512C51.4343 10.688 51.6383 10.816 51.8383 10.896C52.0463 10.968 52.2383 11.004 52.4143 11.004ZM58.2852 12.144C57.8852 12.144 57.4852 12.068 57.0852 11.916C56.6852 11.756 56.3412 11.56 56.0532 11.328L56.7012 10.44C56.9652 10.64 57.2292 10.8 57.4932 10.92C57.7572 11.04 58.0372 11.1 58.3332 11.1C58.6532 11.1 58.8892 11.032 59.0412 10.896C59.1932 10.76 59.2692 10.592 59.2692 10.392C59.2692 10.224 59.2052 10.088 59.0772 9.984C58.9572 9.872 58.8012 9.776 58.6092 9.696C58.4172 9.608 58.2172 9.524 58.0092 9.444C57.7532 9.348 57.4972 9.232 57.2412 9.096C56.9932 8.952 56.7892 8.772 56.6292 8.556C56.4692 8.332 56.3892 8.056 56.3892 7.728C56.3892 7.208 56.5812 6.784 56.9652 6.456C57.3492 6.128 57.8692 5.964 58.5252 5.964C58.9412 5.964 59.3132 6.036 59.6412 6.18C59.9692 6.324 60.2532 6.488 60.4932 6.672L59.8572 7.512C59.6492 7.36 59.4372 7.24 59.2212 7.152C59.0132 7.056 58.7932 7.008 58.5612 7.008C58.2652 7.008 58.0452 7.072 57.9012 7.2C57.7572 7.32 57.6852 7.472 57.6852 7.656C57.6852 7.888 57.8052 8.064 58.0452 8.184C58.2852 8.304 58.5652 8.42 58.8852 8.532C59.1572 8.628 59.4212 8.748 59.6772 8.892C59.9332 9.028 60.1452 9.208 60.3132 9.432C60.4892 9.656 60.5772 9.952 60.5772 10.32C60.5772 10.824 60.3812 11.256 59.9892 11.616C59.5972 11.968 59.0292 12.144 58.2852 12.144ZM64.3491 12.144C63.8131 12.144 63.3291 12.024 62.8971 11.784C62.4731 11.536 62.1331 11.184 61.8771 10.728C61.6291 10.264 61.5051 9.708 61.5051 9.06C61.5051 8.404 61.6411 7.848 61.9131 7.392C62.1851 6.928 62.5451 6.576 62.9931 6.336C63.4491 6.088 63.9371 5.964 64.4571 5.964C64.8331 5.964 65.1611 6.028 65.4411 6.156C65.7211 6.284 65.9691 6.44 66.1851 6.624L65.5131 7.524C65.3611 7.388 65.2051 7.284 65.0451 7.212C64.8851 7.132 64.7131 7.092 64.5291 7.092C64.0571 7.092 63.6691 7.272 63.3651 7.632C63.0691 7.992 62.9211 8.468 62.9211 9.06C62.9211 9.644 63.0651 10.116 63.3531 10.476C63.6491 10.836 64.0291 11.016 64.4931 11.016C64.7251 11.016 64.9411 10.968 65.1411 10.872C65.3491 10.768 65.5371 10.648 65.7051 10.512L66.2691 11.424C65.9971 11.664 65.6931 11.844 65.3571 11.964C65.0211 12.084 64.6851 12.144 64.3491 12.144ZM67.5121 12V6.108H68.6521L68.7481 7.152H68.7961C69.0041 6.768 69.2561 6.476 69.5521 6.276C69.8481 6.068 70.1521 5.964 70.4641 5.964C70.7441 5.964 70.9681 6.004 71.1361 6.084L70.8961 7.284C70.7921 7.252 70.6961 7.228 70.6081 7.212C70.5201 7.196 70.4121 7.188 70.2841 7.188C70.0521 7.188 69.8081 7.28 69.5521 7.464C69.2961 7.64 69.0761 7.952 68.8921 8.4V12H67.5121ZM72.0687 12V6.108H73.4487V12H72.0687ZM72.7647 5.076C72.5167 5.076 72.3167 5.004 72.1647 4.86C72.0127 4.716 71.9367 4.524 71.9367 4.284C71.9367 4.052 72.0127 3.864 72.1647 3.72C72.3167 3.576 72.5167 3.504 72.7647 3.504C73.0127 3.504 73.2127 3.576 73.3647 3.72C73.5167 3.864 73.5927 4.052 73.5927 4.284C73.5927 4.524 73.5167 4.716 73.3647 4.86C73.2127 5.004 73.0127 5.076 72.7647 5.076ZM75.2893 14.328V6.108H76.4293L76.5253 6.732H76.5733C76.8213 6.524 77.0973 6.344 77.4013 6.192C77.7133 6.04 78.0293 5.964 78.3493 5.964C79.0853 5.964 79.6533 6.236 80.0533 6.78C80.4613 7.324 80.6653 8.052 80.6653 8.964C80.6653 9.636 80.5453 10.212 80.3053 10.692C80.0653 11.164 79.7533 11.524 79.3693 11.772C78.9933 12.02 78.5853 12.144 78.1453 12.144C77.8893 12.144 77.6333 12.088 77.3773 11.976C77.1213 11.856 76.8733 11.696 76.6333 11.496L76.6693 12.48V14.328H75.2893ZM77.8573 11.004C78.2493 11.004 78.5773 10.832 78.8413 10.488C79.1053 10.144 79.2373 9.64 79.2373 8.976C79.2373 8.384 79.1373 7.924 78.9373 7.596C78.7373 7.268 78.4133 7.104 77.9653 7.104C77.5493 7.104 77.1173 7.324 76.6693 7.764V10.512C76.8853 10.688 77.0933 10.816 77.2933 10.896C77.4933 10.968 77.6813 11.004 77.8573 11.004ZM83.9492 12.144C83.2692 12.144 82.7852 11.948 82.4972 11.556C82.2172 11.156 82.0772 10.64 82.0772 10.008V7.2H81.2372V6.168L82.1492 6.108L82.3172 4.5H83.4692V6.108H84.9692V7.2H83.4692V10.008C83.4692 10.696 83.7452 11.04 84.2972 11.04C84.4012 11.04 84.5092 11.028 84.6212 11.004C84.7332 10.972 84.8292 10.94 84.9092 10.908L85.1492 11.928C84.9892 11.984 84.8052 12.032 84.5972 12.072C84.3972 12.12 84.1812 12.144 83.9492 12.144ZM86.2891 12V6.108H87.6691V12H86.2891ZM86.9851 5.076C86.7371 5.076 86.5371 5.004 86.3851 4.86C86.2331 4.716 86.1571 4.524 86.1571 4.284C86.1571 4.052 86.2331 3.864 86.3851 3.72C86.5371 3.576 86.7371 3.504 86.9851 3.504C87.2331 3.504 87.4331 3.576 87.5851 3.72C87.7371 3.864 87.8131 4.052 87.8131 4.284C87.8131 4.524 87.7371 4.716 87.5851 4.86C87.4331 5.004 87.2331 5.076 86.9851 5.076ZM91.9218 12.144C91.4338 12.144 90.9778 12.024 90.5538 11.784C90.1298 11.536 89.7858 11.184 89.5218 10.728C89.2578 10.264 89.1258 9.708 89.1258 9.06C89.1258 8.404 89.2578 7.848 89.5218 7.392C89.7858 6.928 90.1298 6.576 90.5538 6.336C90.9778 6.088 91.4338 5.964 91.9218 5.964C92.4178 5.964 92.8778 6.088 93.3018 6.336C93.7258 6.576 94.0698 6.928 94.3338 7.392C94.5978 7.848 94.7298 8.404 94.7298 9.06C94.7298 9.708 94.5978 10.264 94.3338 10.728C94.0698 11.184 93.7258 11.536 93.3018 11.784C92.8778 12.024 92.4178 12.144 91.9218 12.144ZM91.9218 11.016C92.3538 11.016 92.6938 10.836 92.9418 10.476C93.1898 10.116 93.3138 9.644 93.3138 9.06C93.3138 8.468 93.1898 7.992 92.9418 7.632C92.6938 7.272 92.3538 7.092 91.9218 7.092C91.4898 7.092 91.1498 7.272 90.9018 7.632C90.6618 7.992 90.5418 8.468 90.5418 9.06C90.5418 9.644 90.6618 10.116 90.9018 10.476C91.1498 10.836 91.4898 11.016 91.9218 11.016ZM96.1757 12V6.108H97.3157L97.4117 6.9H97.4597C97.7237 6.644 98.0117 6.424 98.3237 6.24C98.6357 6.056 98.9917 5.964 99.3917 5.964C100.024 5.964 100.484 6.168 100.772 6.576C101.06 6.984 101.204 7.56 101.204 8.304V12H99.8237V8.484C99.8237 7.996 99.7517 7.652 99.6077 7.452C99.4637 7.252 99.2277 7.152 98.8997 7.152C98.6437 7.152 98.4157 7.216 98.2157 7.344C98.0237 7.464 97.8037 7.644 97.5557 7.884V12H96.1757Z" fill="#DE294C"/>
</svg>
