<svg width="124" height="16" viewBox="0 0 124 16" fill="none" xmlns="http://www.w3.org/2000/svg">
<path d="M0.5 8C0.5 3.58172 4.08172 0 8.5 0H115.5C119.918 0 123.5 3.58172 123.5 8V8C123.5 12.4183 119.918 16 115.5 16H8.5C4.08172 16 0.5 12.4183 0.5 8V8Z" fill="#FFF3E0"/>
<path d="M4.5 8C4.5 5.79086 6.29086 4 8.5 4V4C10.7091 4 12.5 5.79086 12.5 8V8C12.5 10.2091 10.7091 12 8.5 12V12C6.29086 12 4.5 10.2091 4.5 8V8Z" fill="#FF9800"/>
<path d="M19.496 12V4.152H21.968C22.552 4.152 23.072 4.228 23.528 4.38C23.984 4.532 24.344 4.784 24.608 5.136C24.872 5.488 25.004 5.968 25.004 6.576C25.004 7.152 24.872 7.628 24.608 8.004C24.344 8.38 23.988 8.66 23.54 8.844C23.092 9.028 22.584 9.12 22.016 9.12H20.888V12H19.496ZM20.888 8.004H21.908C23.06 8.004 23.636 7.528 23.636 6.576C23.636 6.08 23.484 5.74 23.18 5.556C22.884 5.364 22.444 5.268 21.86 5.268H20.888V8.004ZM27.4113 12.144C26.8993 12.144 26.4793 11.984 26.1513 11.664C25.8313 11.344 25.6713 10.928 25.6713 10.416C25.6713 9.784 25.9473 9.296 26.4993 8.952C27.0513 8.6 27.9313 8.36 29.1393 8.232C29.1313 7.92 29.0473 7.652 28.8873 7.428C28.7353 7.196 28.4593 7.08 28.0593 7.08C27.7713 7.08 27.4873 7.136 27.2073 7.248C26.9353 7.36 26.6673 7.496 26.4033 7.656L25.8993 6.732C26.2273 6.524 26.5953 6.344 27.0033 6.192C27.4193 6.04 27.8593 5.964 28.3233 5.964C29.0593 5.964 29.6073 6.184 29.9673 6.624C30.3353 7.056 30.5193 7.684 30.5193 8.508V12H29.3793L29.2833 11.352H29.2353C28.9713 11.576 28.6873 11.764 28.3833 11.916C28.0873 12.068 27.7633 12.144 27.4113 12.144ZM27.8553 11.064C28.0953 11.064 28.3113 11.008 28.5033 10.896C28.7033 10.776 28.9153 10.616 29.1393 10.416V9.096C28.3393 9.2 27.7833 9.356 27.4713 9.564C27.1593 9.764 27.0033 10.012 27.0033 10.308C27.0033 10.572 27.0833 10.764 27.2433 10.884C27.4033 11.004 27.6073 11.064 27.8553 11.064ZM32.6468 14.424C32.4868 14.424 32.3468 14.412 32.2268 14.388C32.1068 14.364 31.9908 14.336 31.8788 14.304L32.1308 13.224C32.1868 13.24 32.2508 13.256 32.3228 13.272C32.4028 13.296 32.4788 13.308 32.5508 13.308C32.8628 13.308 33.1108 13.212 33.2948 13.02C33.4868 12.836 33.6308 12.596 33.7268 12.3L33.8348 11.928L31.5188 6.108H32.9228L33.9428 9C34.0308 9.256 34.1148 9.528 34.1948 9.816C34.2828 10.096 34.3708 10.376 34.4588 10.656H34.5068C34.5788 10.384 34.6508 10.108 34.7228 9.828C34.8028 9.54 34.8788 9.264 34.9508 9L35.8388 6.108H37.1708L35.0348 12.264C34.7868 12.928 34.4868 13.452 34.1348 13.836C33.7828 14.228 33.2868 14.424 32.6468 14.424ZM38.2722 12V6.108H39.4122L39.5082 6.912H39.5562C39.8042 6.648 40.0722 6.424 40.3602 6.24C40.6562 6.056 40.9882 5.964 41.3562 5.964C41.7882 5.964 42.1322 6.06 42.3882 6.252C42.6523 6.436 42.8523 6.692 42.9883 7.02C43.2683 6.716 43.5603 6.464 43.8643 6.264C44.1762 6.064 44.5162 5.964 44.8842 5.964C45.5082 5.964 45.9683 6.168 46.2643 6.576C46.5603 6.984 46.7083 7.56 46.7083 8.304V12H45.3163V8.484C45.3163 7.996 45.2403 7.652 45.0883 7.452C44.9443 7.252 44.7203 7.152 44.4163 7.152C44.0483 7.152 43.6363 7.396 43.1803 7.884V12H41.8002V8.484C41.8002 7.996 41.7242 7.652 41.5723 7.452C41.4282 7.252 41.2002 7.152 40.8882 7.152C40.5202 7.152 40.1082 7.396 39.6522 7.884V12H38.2722ZM50.9855 12.144C50.4415 12.144 49.9495 12.024 49.5095 11.784C49.0695 11.536 48.7215 11.184 48.4655 10.728C48.2095 10.264 48.0815 9.708 48.0815 9.06C48.0815 8.42 48.2095 7.868 48.4655 7.404C48.7295 6.94 49.0695 6.584 49.4855 6.336C49.9015 6.088 50.3375 5.964 50.7935 5.964C51.3295 5.964 51.7775 6.084 52.1375 6.324C52.4975 6.556 52.7695 6.884 52.9535 7.308C53.1375 7.724 53.2295 8.208 53.2295 8.76C53.2295 9.048 53.2095 9.272 53.1695 9.432H49.4255C49.4895 9.952 49.6775 10.356 49.9895 10.644C50.3015 10.932 50.6935 11.076 51.1655 11.076C51.4215 11.076 51.6575 11.04 51.8735 10.968C52.0975 10.888 52.3175 10.78 52.5335 10.644L53.0015 11.508C52.7215 11.692 52.4095 11.844 52.0655 11.964C51.7215 12.084 51.3615 12.144 50.9855 12.144ZM49.4135 8.496H52.0295C52.0295 8.04 51.9295 7.684 51.7295 7.428C51.5295 7.164 51.2295 7.032 50.8295 7.032C50.4855 7.032 50.1775 7.16 49.9055 7.416C49.6415 7.664 49.4775 8.024 49.4135 8.496ZM54.6276 12V6.108H55.7676L55.8636 6.9H55.9116C56.1756 6.644 56.4636 6.424 56.7756 6.24C57.0876 6.056 57.4436 5.964 57.8436 5.964C58.4756 5.964 58.9356 6.168 59.2236 6.576C59.5116 6.984 59.6556 7.56 59.6556 8.304V12H58.2756V8.484C58.2756 7.996 58.2036 7.652 58.0596 7.452C57.9156 7.252 57.6796 7.152 57.3516 7.152C57.0956 7.152 56.8676 7.216 56.6676 7.344C56.4756 7.464 56.2556 7.644 56.0076 7.884V12H54.6276ZM63.4984 12.144C62.8184 12.144 62.3344 11.948 62.0464 11.556C61.7664 11.156 61.6264 10.64 61.6264 10.008V7.2H60.7864V6.168L61.6984 6.108L61.8664 4.5H63.0184V6.108H64.5184V7.2H63.0184V10.008C63.0184 10.696 63.2944 11.04 63.8464 11.04C63.9504 11.04 64.0584 11.028 64.1704 11.004C64.2824 10.972 64.3784 10.94 64.4584 10.908L64.6984 11.928C64.5384 11.984 64.3544 12.032 64.1464 12.072C63.9464 12.12 63.7304 12.144 63.4984 12.144ZM68.4407 12V4.152H71.0927C71.6367 4.152 72.1247 4.224 72.5567 4.368C72.9967 4.512 73.3407 4.756 73.5887 5.1C73.8447 5.436 73.9727 5.896 73.9727 6.48C73.9727 7.08 73.8287 7.564 73.5407 7.932C73.2607 8.3 72.8847 8.564 72.4127 8.724L74.2847 12H72.7247L71.0327 8.928H69.8327V12H68.4407ZM69.8327 7.824H70.9487C71.4847 7.824 71.8927 7.712 72.1727 7.488C72.4607 7.256 72.6047 6.92 72.6047 6.48C72.6047 6.032 72.4607 5.72 72.1727 5.544C71.8927 5.36 71.4847 5.268 70.9487 5.268H69.8327V7.824ZM77.9051 12.144C77.3611 12.144 76.8691 12.024 76.4291 11.784C75.9891 11.536 75.6411 11.184 75.3851 10.728C75.1291 10.264 75.0011 9.708 75.0011 9.06C75.0011 8.42 75.1291 7.868 75.3851 7.404C75.6491 6.94 75.9891 6.584 76.4051 6.336C76.8211 6.088 77.2571 5.964 77.7131 5.964C78.2491 5.964 78.6971 6.084 79.0571 6.324C79.4171 6.556 79.6891 6.884 79.8731 7.308C80.0571 7.724 80.1491 8.208 80.1491 8.76C80.1491 9.048 80.1291 9.272 80.0891 9.432H76.3451C76.4091 9.952 76.5971 10.356 76.9091 10.644C77.2211 10.932 77.6131 11.076 78.0851 11.076C78.3411 11.076 78.5771 11.04 78.7931 10.968C79.0171 10.888 79.2371 10.78 79.4531 10.644L79.9211 11.508C79.6411 11.692 79.3291 11.844 78.9851 11.964C78.6411 12.084 78.2811 12.144 77.9051 12.144ZM76.3331 8.496H78.9491C78.9491 8.04 78.8491 7.684 78.6491 7.428C78.4491 7.164 78.1491 7.032 77.7491 7.032C77.4051 7.032 77.0971 7.16 76.8251 7.416C76.5611 7.664 76.3971 8.024 76.3331 8.496ZM85.1831 14.328V12.396L85.2311 11.412C85.0151 11.62 84.7671 11.796 84.4871 11.94C84.2071 12.076 83.9151 12.144 83.6111 12.144C82.8751 12.144 82.2871 11.872 81.8471 11.328C81.4071 10.784 81.1871 10.028 81.1871 9.06C81.1871 8.42 81.3031 7.868 81.5351 7.404C81.7751 6.94 82.0871 6.584 82.4711 6.336C82.8551 6.088 83.2591 5.964 83.6831 5.964C84.0111 5.964 84.3031 6.024 84.5591 6.144C84.8151 6.256 85.0671 6.432 85.3151 6.672H85.3511L85.4711 6.108H86.5631V14.328H85.1831ZM83.9471 11.004C84.3871 11.004 84.7991 10.784 85.1831 10.344V7.596C84.9831 7.412 84.7831 7.284 84.5831 7.212C84.3831 7.14 84.1831 7.104 83.9831 7.104C83.6071 7.104 83.2831 7.276 83.0111 7.62C82.7471 7.956 82.6151 8.432 82.6151 9.048C82.6151 9.68 82.7311 10.164 82.9631 10.5C83.1951 10.836 83.5231 11.004 83.9471 11.004ZM90.1525 12.144C89.5205 12.144 89.0605 11.94 88.7725 11.532C88.4845 11.124 88.3405 10.548 88.3405 9.804V6.108H89.7205V9.624C89.7205 10.112 89.7925 10.456 89.9365 10.656C90.0805 10.856 90.3125 10.956 90.6325 10.956C90.8885 10.956 91.1125 10.892 91.3045 10.764C91.5045 10.636 91.7165 10.428 91.9405 10.14V6.108H93.3205V12H92.1925L92.0845 11.136H92.0485C91.7925 11.44 91.5125 11.684 91.2085 11.868C90.9045 12.052 90.5525 12.144 90.1525 12.144ZM95.1485 12V6.108H96.5285V12H95.1485ZM95.8445 5.076C95.5965 5.076 95.3965 5.004 95.2445 4.86C95.0925 4.716 95.0165 4.524 95.0165 4.284C95.0165 4.052 95.0925 3.864 95.2445 3.72C95.3965 3.576 95.5965 3.504 95.8445 3.504C96.0925 3.504 96.2925 3.576 96.4445 3.72C96.5965 3.864 96.6725 4.052 96.6725 4.284C96.6725 4.524 96.5965 4.716 96.4445 4.86C96.2925 5.004 96.0925 5.076 95.8445 5.076ZM98.3691 12V6.108H99.5091L99.6051 7.152H99.6531C99.8611 6.768 100.113 6.476 100.409 6.276C100.705 6.068 101.009 5.964 101.321 5.964C101.601 5.964 101.825 6.004 101.993 6.084L101.753 7.284C101.649 7.252 101.553 7.228 101.465 7.212C101.377 7.196 101.269 7.188 101.141 7.188C100.909 7.188 100.665 7.28 100.409 7.464C100.153 7.64 99.9331 7.952 99.7491 8.4V12H98.3691ZM105.329 12.144C104.785 12.144 104.293 12.024 103.853 11.784C103.413 11.536 103.065 11.184 102.809 10.728C102.553 10.264 102.425 9.708 102.425 9.06C102.425 8.42 102.553 7.868 102.809 7.404C103.073 6.94 103.413 6.584 103.829 6.336C104.245 6.088 104.681 5.964 105.137 5.964C105.673 5.964 106.121 6.084 106.481 6.324C106.841 6.556 107.113 6.884 107.297 7.308C107.481 7.724 107.573 8.208 107.573 8.76C107.573 9.048 107.553 9.272 107.513 9.432H103.769C103.833 9.952 104.021 10.356 104.333 10.644C104.645 10.932 105.037 11.076 105.509 11.076C105.765 11.076 106.001 11.04 106.217 10.968C106.441 10.888 106.661 10.78 106.877 10.644L107.345 11.508C107.065 11.692 106.753 11.844 106.409 11.964C106.065 12.084 105.705 12.144 105.329 12.144ZM103.757 8.496H106.373C106.373 8.04 106.273 7.684 106.073 7.428C105.873 7.164 105.573 7.032 105.173 7.032C104.829 7.032 104.521 7.16 104.249 7.416C103.985 7.664 103.821 8.024 103.757 8.496ZM111.035 12.144C110.299 12.144 109.711 11.872 109.271 11.328C108.831 10.784 108.611 10.028 108.611 9.06C108.611 8.42 108.727 7.868 108.959 7.404C109.199 6.94 109.511 6.584 109.895 6.336C110.279 6.088 110.683 5.964 111.107 5.964C111.443 5.964 111.727 6.024 111.959 6.144C112.199 6.256 112.431 6.412 112.655 6.612L112.607 5.664V3.528H113.987V12H112.847L112.751 11.364H112.703C112.487 11.58 112.235 11.764 111.947 11.916C111.659 12.068 111.355 12.144 111.035 12.144ZM111.371 11.004C111.811 11.004 112.223 10.784 112.607 10.344V7.596C112.407 7.412 112.207 7.284 112.007 7.212C111.807 7.14 111.607 7.104 111.407 7.104C111.031 7.104 110.707 7.276 110.435 7.62C110.171 7.956 110.039 8.432 110.039 9.048C110.039 9.68 110.155 10.164 110.387 10.5C110.619 10.836 110.947 11.004 111.371 11.004Z" fill="#F57C00"/>
</svg>
