<svg width="85" height="16" viewBox="0 0 85 16" fill="none" xmlns="http://www.w3.org/2000/svg">
<path d="M0 8C0 3.58172 3.58172 0 8 0H77C81.4183 0 85 3.58172 85 8V8C85 12.4183 81.4183 16 77 16H8C3.58172 16 0 12.4183 0 8V8Z" fill="#E7F9E9"/>
<path d="M4 8C4 5.79086 5.79086 4 8 4V4C10.2091 4 12 5.79086 12 8V8C12 10.2091 10.2091 12 8 12V12C5.79086 12 4 10.2091 4 8V8Z" fill="#37D046"/>
<path d="M21.288 12.144C20.76 12.144 20.248 12.044 19.752 11.844C19.264 11.644 18.832 11.36 18.456 10.992L19.272 10.044C19.552 10.308 19.872 10.524 20.232 10.692C20.592 10.852 20.952 10.932 21.312 10.932C21.76 10.932 22.1 10.84 22.332 10.656C22.564 10.472 22.68 10.228 22.68 9.924C22.68 9.596 22.564 9.36 22.332 9.216C22.108 9.072 21.82 8.924 21.468 8.772L20.388 8.304C20.132 8.192 19.88 8.048 19.632 7.872C19.392 7.696 19.192 7.472 19.032 7.2C18.88 6.928 18.804 6.6 18.804 6.216C18.804 5.8 18.916 5.428 19.14 5.1C19.372 4.764 19.684 4.5 20.076 4.308C20.476 4.108 20.932 4.008 21.444 4.008C21.9 4.008 22.34 4.1 22.764 4.284C23.188 4.46 23.552 4.7 23.856 5.004L23.148 5.892C22.9 5.684 22.636 5.52 22.356 5.4C22.084 5.28 21.78 5.22 21.444 5.22C21.076 5.22 20.776 5.304 20.544 5.472C20.32 5.632 20.208 5.856 20.208 6.144C20.208 6.344 20.264 6.512 20.376 6.648C20.496 6.776 20.652 6.888 20.844 6.984C21.036 7.072 21.24 7.16 21.456 7.248L22.524 7.692C22.988 7.892 23.368 8.156 23.664 8.484C23.96 8.804 24.108 9.248 24.108 9.816C24.108 10.24 23.996 10.628 23.772 10.98C23.548 11.332 23.224 11.616 22.8 11.832C22.384 12.04 21.88 12.144 21.288 12.144ZM27.2471 12.144C26.6151 12.144 26.1551 11.94 25.8671 11.532C25.5791 11.124 25.4351 10.548 25.4351 9.804V6.108H26.8151V9.624C26.8151 10.112 26.8871 10.456 27.0311 10.656C27.1751 10.856 27.4071 10.956 27.7271 10.956C27.9831 10.956 28.2071 10.892 28.3991 10.764C28.5991 10.636 28.8111 10.428 29.0351 10.14V6.108H30.4151V12H29.2871L29.1791 11.136H29.1431C28.8871 11.44 28.6071 11.684 28.3031 11.868C27.9991 12.052 27.6471 12.144 27.2471 12.144ZM35.099 12.144C34.539 12.144 34.003 11.888 33.491 11.376H33.455L33.335 12H32.243V3.528H33.623V5.712L33.587 6.696C33.835 6.48 34.107 6.304 34.403 6.168C34.699 6.032 34.995 5.964 35.291 5.964C36.027 5.964 36.599 6.236 37.007 6.78C37.415 7.324 37.619 8.048 37.619 8.952C37.619 9.624 37.499 10.2 37.259 10.68C37.019 11.152 36.707 11.516 36.323 11.772C35.947 12.02 35.539 12.144 35.099 12.144ZM34.811 11.004C35.203 11.004 35.531 10.832 35.795 10.488C36.059 10.144 36.191 9.64 36.191 8.976C36.191 8.384 36.091 7.924 35.891 7.596C35.691 7.268 35.367 7.104 34.919 7.104C34.503 7.104 34.071 7.324 33.623 7.764V10.512C33.831 10.688 34.035 10.816 34.235 10.896C34.443 10.968 34.635 11.004 34.811 11.004ZM40.6819 12.144C40.2819 12.144 39.8819 12.068 39.4819 11.916C39.0819 11.756 38.7379 11.56 38.4499 11.328L39.0979 10.44C39.3619 10.64 39.6259 10.8 39.8899 10.92C40.1539 11.04 40.4339 11.1 40.7299 11.1C41.0499 11.1 41.2859 11.032 41.4379 10.896C41.5899 10.76 41.6659 10.592 41.6659 10.392C41.6659 10.224 41.6019 10.088 41.4739 9.984C41.3539 9.872 41.1979 9.776 41.0059 9.696C40.8139 9.608 40.6139 9.524 40.4059 9.444C40.1499 9.348 39.8939 9.232 39.6379 9.096C39.3899 8.952 39.1859 8.772 39.0259 8.556C38.8659 8.332 38.7859 8.056 38.7859 7.728C38.7859 7.208 38.9779 6.784 39.3619 6.456C39.7459 6.128 40.2659 5.964 40.9219 5.964C41.3379 5.964 41.7099 6.036 42.0379 6.18C42.3659 6.324 42.6499 6.488 42.8899 6.672L42.2539 7.512C42.0459 7.36 41.8339 7.24 41.6179 7.152C41.4099 7.056 41.1899 7.008 40.9579 7.008C40.6619 7.008 40.4419 7.072 40.2979 7.2C40.1539 7.32 40.0819 7.472 40.0819 7.656C40.0819 7.888 40.2019 8.064 40.4419 8.184C40.6819 8.304 40.9619 8.42 41.2819 8.532C41.5539 8.628 41.8179 8.748 42.0739 8.892C42.3299 9.028 42.5419 9.208 42.7099 9.432C42.8859 9.656 42.9739 9.952 42.9739 10.32C42.9739 10.824 42.7779 11.256 42.3859 11.616C41.9939 11.968 41.4259 12.144 40.6819 12.144ZM46.7458 12.144C46.2098 12.144 45.7258 12.024 45.2938 11.784C44.8698 11.536 44.5298 11.184 44.2738 10.728C44.0258 10.264 43.9018 9.708 43.9018 9.06C43.9018 8.404 44.0378 7.848 44.3098 7.392C44.5818 6.928 44.9418 6.576 45.3898 6.336C45.8458 6.088 46.3338 5.964 46.8538 5.964C47.2298 5.964 47.5578 6.028 47.8378 6.156C48.1178 6.284 48.3658 6.44 48.5818 6.624L47.9098 7.524C47.7578 7.388 47.6018 7.284 47.4418 7.212C47.2818 7.132 47.1098 7.092 46.9258 7.092C46.4538 7.092 46.0658 7.272 45.7618 7.632C45.4658 7.992 45.3178 8.468 45.3178 9.06C45.3178 9.644 45.4618 10.116 45.7498 10.476C46.0458 10.836 46.4258 11.016 46.8898 11.016C47.1218 11.016 47.3378 10.968 47.5378 10.872C47.7458 10.768 47.9338 10.648 48.1018 10.512L48.6658 11.424C48.3938 11.664 48.0898 11.844 47.7538 11.964C47.4178 12.084 47.0818 12.144 46.7458 12.144ZM49.9088 12V6.108H51.0488L51.1448 7.152H51.1928C51.4008 6.768 51.6528 6.476 51.9488 6.276C52.2448 6.068 52.5488 5.964 52.8608 5.964C53.1408 5.964 53.3648 6.004 53.5328 6.084L53.2928 7.284C53.1888 7.252 53.0928 7.228 53.0048 7.212C52.9168 7.196 52.8088 7.188 52.6808 7.188C52.4488 7.188 52.2048 7.28 51.9488 7.464C51.6928 7.64 51.4728 7.952 51.2888 8.4V12H49.9088ZM54.4654 12V6.108H55.8454V12H54.4654ZM55.1614 5.076C54.9134 5.076 54.7134 5.004 54.5614 4.86C54.4094 4.716 54.3334 4.524 54.3334 4.284C54.3334 4.052 54.4094 3.864 54.5614 3.72C54.7134 3.576 54.9134 3.504 55.1614 3.504C55.4094 3.504 55.6094 3.576 55.7614 3.72C55.9134 3.864 55.9894 4.052 55.9894 4.284C55.9894 4.524 55.9134 4.716 55.7614 4.86C55.6094 5.004 55.4094 5.076 55.1614 5.076ZM60.542 12.144C59.982 12.144 59.446 11.888 58.934 11.376H58.898L58.778 12H57.686V3.528H59.066V5.712L59.03 6.696C59.278 6.48 59.55 6.304 59.846 6.168C60.142 6.032 60.438 5.964 60.734 5.964C61.47 5.964 62.042 6.236 62.45 6.78C62.858 7.324 63.062 8.048 63.062 8.952C63.062 9.624 62.942 10.2 62.702 10.68C62.462 11.152 62.15 11.516 61.766 11.772C61.39 12.02 60.982 12.144 60.542 12.144ZM60.254 11.004C60.646 11.004 60.974 10.832 61.238 10.488C61.502 10.144 61.634 9.64 61.634 8.976C61.634 8.384 61.534 7.924 61.334 7.596C61.134 7.268 60.81 7.104 60.362 7.104C59.946 7.104 59.514 7.324 59.066 7.764V10.512C59.274 10.688 59.478 10.816 59.678 10.896C59.886 10.968 60.078 11.004 60.254 11.004ZM67.0477 12.144C66.5037 12.144 66.0117 12.024 65.5717 11.784C65.1317 11.536 64.7837 11.184 64.5277 10.728C64.2717 10.264 64.1437 9.708 64.1437 9.06C64.1437 8.42 64.2717 7.868 64.5277 7.404C64.7917 6.94 65.1317 6.584 65.5477 6.336C65.9637 6.088 66.3997 5.964 66.8557 5.964C67.3917 5.964 67.8397 6.084 68.1997 6.324C68.5597 6.556 68.8317 6.884 69.0157 7.308C69.1997 7.724 69.2917 8.208 69.2917 8.76C69.2917 9.048 69.2717 9.272 69.2317 9.432H65.4877C65.5517 9.952 65.7397 10.356 66.0517 10.644C66.3637 10.932 66.7557 11.076 67.2277 11.076C67.4837 11.076 67.7197 11.04 67.9357 10.968C68.1597 10.888 68.3797 10.78 68.5957 10.644L69.0637 11.508C68.7837 11.692 68.4717 11.844 68.1277 11.964C67.7837 12.084 67.4237 12.144 67.0477 12.144ZM65.4757 8.496H68.0917C68.0917 8.04 67.9917 7.684 67.7917 7.428C67.5917 7.164 67.2917 7.032 66.8917 7.032C66.5477 7.032 66.2397 7.16 65.9677 7.416C65.7037 7.664 65.5397 8.024 65.4757 8.496ZM72.7538 12.144C72.0178 12.144 71.4298 11.872 70.9898 11.328C70.5498 10.784 70.3298 10.028 70.3298 9.06C70.3298 8.42 70.4458 7.868 70.6778 7.404C70.9178 6.94 71.2298 6.584 71.6138 6.336C71.9978 6.088 72.4018 5.964 72.8258 5.964C73.1618 5.964 73.4458 6.024 73.6778 6.144C73.9178 6.256 74.1498 6.412 74.3738 6.612L74.3258 5.664V3.528H75.7058V12H74.5658L74.4698 11.364H74.4218C74.2058 11.58 73.9538 11.764 73.6658 11.916C73.3778 12.068 73.0738 12.144 72.7538 12.144ZM73.0898 11.004C73.5298 11.004 73.9418 10.784 74.3258 10.344V7.596C74.1258 7.412 73.9258 7.284 73.7258 7.212C73.5258 7.14 73.3258 7.104 73.1258 7.104C72.7498 7.104 72.4258 7.276 72.1538 7.62C71.8898 7.956 71.7578 8.432 71.7578 9.048C71.7578 9.68 71.8738 10.164 72.1058 10.5C72.3378 10.836 72.6658 11.004 73.0898 11.004Z" fill="#2AC437"/>
</svg>
