<svg width="58" height="16" viewBox="0 0 58 16" fill="none" xmlns="http://www.w3.org/2000/svg">
<path d="M0 8C0 3.58172 3.58172 0 8 0H50C54.4183 0 58 3.58172 58 8C58 12.4183 54.4183 16 50 16H8C3.58172 16 0 12.4183 0 8Z" fill="#E7F9E9"/>
<path d="M4 8C4 5.79086 5.79086 4 8 4C10.2091 4 12 5.79086 12 8C12 10.2091 10.2091 12 8 12C5.79086 12 4 10.2091 4 8Z" fill="#37D046"/>
<path d="M20.604 7.824L20.328 8.784H22.332L22.056 7.824C21.928 7.408 21.804 6.98 21.684 6.54C21.572 6.1 21.46 5.664 21.348 5.232H21.3C21.188 5.672 21.076 6.112 20.964 6.552C20.852 6.984 20.732 7.408 20.604 7.824ZM17.976 12L20.532 4.152H22.164L24.72 12H23.256L22.644 9.876H20.004L19.392 12H17.976ZM28.1074 12.144C27.7074 12.144 27.3314 12.076 26.9794 11.94C26.6354 11.804 26.3354 11.604 26.0794 11.34C25.8234 11.076 25.6234 10.752 25.4794 10.368C25.3354 9.984 25.2634 9.548 25.2634 9.06C25.2634 8.572 25.3434 8.136 25.5034 7.752C25.6634 7.368 25.8794 7.044 26.1514 6.78C26.4234 6.516 26.7354 6.316 27.0874 6.18C27.4474 6.036 27.8234 5.964 28.2154 5.964C28.5994 5.964 28.9274 6.028 29.1994 6.156C29.4794 6.284 29.7274 6.44 29.9434 6.624L29.2714 7.524C29.1114 7.388 28.9514 7.284 28.7914 7.212C28.6394 7.132 28.4714 7.092 28.2874 7.092C27.8074 7.092 27.4194 7.272 27.1234 7.632C26.8274 7.984 26.6794 8.46 26.6794 9.06C26.6794 9.652 26.8234 10.128 27.1114 10.488C27.4074 10.84 27.7874 11.016 28.2514 11.016C28.4834 11.016 28.6994 10.968 28.8994 10.872C29.1074 10.768 29.2954 10.648 29.4634 10.512L30.0274 11.424C29.7474 11.664 29.4394 11.844 29.1034 11.964C28.7754 12.084 28.4434 12.144 28.1074 12.144ZM33.2292 12.144C32.8852 12.144 32.5932 12.092 32.3532 11.988C32.1212 11.884 31.9292 11.74 31.7772 11.556C31.6332 11.364 31.5252 11.14 31.4532 10.884C31.3892 10.62 31.3572 10.328 31.3572 10.008V7.2H30.5172V6.168L31.4292 6.108L31.5972 4.5H32.7492V6.108H34.2492V7.2H32.7492V10.008C32.7492 10.696 33.0252 11.04 33.5772 11.04C33.6812 11.04 33.7852 11.028 33.8892 11.004C34.0012 10.98 34.1012 10.948 34.1892 10.908L34.4292 11.928C34.2692 11.984 34.0852 12.032 33.8772 12.072C33.6772 12.12 33.4612 12.144 33.2292 12.144ZM35.5691 12V6.108H36.9491V12H35.5691ZM36.2651 5.076C36.0171 5.076 35.8131 5.004 35.6531 4.86C35.4931 4.716 35.4131 4.528 35.4131 4.296C35.4131 4.064 35.4931 3.876 35.6531 3.732C35.8131 3.58 36.0171 3.504 36.2651 3.504C36.5131 3.504 36.7171 3.58 36.8771 3.732C37.0371 3.876 37.1171 4.064 37.1171 4.296C37.1171 4.528 37.0371 4.716 36.8771 4.86C36.7171 5.004 36.5131 5.076 36.2651 5.076ZM40.1097 12L38.0577 6.108H39.4617L40.3977 9.168C40.4777 9.456 40.5577 9.748 40.6377 10.044C40.7257 10.34 40.8097 10.64 40.8897 10.944H40.9377C41.0257 10.64 41.1097 10.34 41.1897 10.044C41.2697 9.748 41.3537 9.456 41.4417 9.168L42.3777 6.108H43.7097L41.7057 12H40.1097ZM47.2608 12.144C46.8528 12.144 46.4728 12.076 46.1208 11.94C45.7688 11.796 45.4608 11.592 45.1968 11.328C44.9328 11.064 44.7248 10.744 44.5728 10.368C44.4288 9.984 44.3568 9.548 44.3568 9.06C44.3568 8.58 44.4328 8.148 44.5848 7.764C44.7368 7.38 44.9368 7.056 45.1848 6.792C45.4408 6.528 45.7328 6.324 46.0608 6.18C46.3888 6.036 46.7248 5.964 47.0688 5.964C47.4688 5.964 47.8208 6.032 48.1248 6.168C48.4288 6.304 48.6808 6.496 48.8808 6.744C49.0888 6.992 49.2448 7.288 49.3488 7.632C49.4528 7.976 49.5048 8.352 49.5048 8.76C49.5048 8.896 49.4968 9.024 49.4808 9.144C49.4728 9.264 49.4608 9.36 49.4448 9.432H45.7008C45.7648 9.96 45.9488 10.368 46.2528 10.656C46.5648 10.936 46.9608 11.076 47.4408 11.076C47.6968 11.076 47.9328 11.04 48.1488 10.968C48.3728 10.888 48.5928 10.78 48.8088 10.644L49.2768 11.508C48.9968 11.692 48.6848 11.844 48.3408 11.964C47.9968 12.084 47.6368 12.144 47.2608 12.144ZM45.6888 8.496H48.3048C48.3048 8.04 48.2048 7.684 48.0048 7.428C47.8128 7.164 47.5128 7.032 47.1048 7.032C46.7528 7.032 46.4448 7.156 46.1808 7.404C45.9168 7.652 45.7528 8.016 45.6888 8.496Z" fill="#2AC437"/>
</svg>
