<svg width="33" height="32" viewBox="0 0 33 32" xmlns="http://www.w3.org/2000/svg">
<path d="M29.8053 7.62677L23.672 2.4801L21.952 4.5201L28.0853 9.66677L29.8053 7.62677ZM10.9787 4.5201L9.27201 2.4801L3.13867 7.61344L4.85867 9.65344L10.9787 4.5201ZM17.1387 10.6668H15.1387V18.6668L21.472 22.4668L22.472 20.8268L17.1387 17.6668V10.6668ZM16.472 5.33344C9.84534 5.33344 4.47201 10.7068 4.47201 17.3334C4.47201 23.9601 9.83201 29.3334 16.472 29.3334C23.0987 29.3334 28.472 23.9601 28.472 17.3334C28.472 10.7068 23.0987 5.33344 16.472 5.33344ZM16.472 26.6668C11.312 26.6668 7.13867 22.4934 7.13867 17.3334C7.13867 12.1734 11.312 8.0001 16.472 8.0001C21.632 8.0001 25.8053 12.1734 25.8053 17.3334C25.8053 22.4934 21.632 26.6668 16.472 26.6668Z"/>
</svg>
