<svg xmlns="http://www.w3.org/2000/svg" viewBox="0 0 18.44 22"><circle id="icon_selected" cx="11.94" cy="15.5" r="6.5"/><path class="icon" d="M7.24,7.34v8.44a.46.46,0,0,1-.45.47H5.88a.46.46,0,0,1-.45-.47V7.34a.45.45,0,0,1,.45-.46h.91a.45.45,0,0,1,.45.46ZM11,6.88H10.1a.45.45,0,0,0-.45.46v8.44a.46.46,0,0,0,.45.47H11a.46.46,0,0,0,.45-.47V7.34A.45.45,0,0,0,11,6.88Zm5-3.76a.93.93,0,0,1,.91.94v.47a.46.46,0,0,1-.45.47h-.76V18.13A1.84,1.84,0,0,1,13.87,20H3a1.84,1.84,0,0,1-1.81-1.87V5H.45A.46.46,0,0,1,0,4.53V4.06a.92.92,0,0,1,.9-.94H3.71L5,.91A1.82,1.82,0,0,1,6.54,0h3.81A1.82,1.82,0,0,1,11.9.91l1.28,2.21Zm-10.16,0h5.25L10.41,2a.22.22,0,0,0-.19-.12H6.67A.22.22,0,0,0,6.48,2L5.82,3.12Zm8,1.88H3V17.89a.23.23,0,0,0,.22.24H13.65a.23.23,0,0,0,.22-.24V5Z"/></svg>