<svg width="78" height="16" viewBox="0 0 78 16" fill="none" xmlns="http://www.w3.org/2000/svg">
<path d="M0 8C0 3.58172 3.58172 0 8 0H70C74.4183 0 78 3.58172 78 8V8C78 12.4183 74.4183 16 70 16H8C3.58172 16 0 12.4183 0 8V8Z" fill="#FBE5EA"/>
<path d="M4 8C4 5.79086 5.79086 4 8 4V4C10.2091 4 12 5.79086 12 8V8C12 10.2091 10.2091 12 8 12V12C5.79086 12 4 10.2091 4 8V8Z" fill="#DE294C"/>
<path d="M22.128 12.144C21.472 12.144 20.876 11.988 20.34 11.676C19.804 11.364 19.376 10.908 19.056 10.308C18.744 9.7 18.588 8.964 18.588 8.1C18.588 7.244 18.748 6.512 19.068 5.904C19.396 5.288 19.832 4.82 20.376 4.5C20.92 4.172 21.52 4.008 22.176 4.008C22.672 4.008 23.112 4.108 23.496 4.308C23.88 4.508 24.196 4.74 24.444 5.004L23.7 5.904C23.5 5.696 23.276 5.532 23.028 5.412C22.788 5.284 22.516 5.22 22.212 5.22C21.788 5.22 21.408 5.336 21.072 5.568C20.744 5.792 20.484 6.116 20.292 6.54C20.108 6.964 20.016 7.472 20.016 8.064C20.016 8.96 20.212 9.664 20.604 10.176C20.996 10.68 21.52 10.932 22.176 10.932C22.528 10.932 22.84 10.86 23.112 10.716C23.384 10.564 23.632 10.368 23.856 10.128L24.6 11.004C24.28 11.372 23.912 11.656 23.496 11.856C23.088 12.048 22.632 12.144 22.128 12.144ZM27.2981 12.144C26.7861 12.144 26.3661 11.984 26.0381 11.664C25.7181 11.344 25.5581 10.928 25.5581 10.416C25.5581 9.784 25.8341 9.296 26.3861 8.952C26.9381 8.6 27.8181 8.36 29.0261 8.232C29.0181 7.92 28.9341 7.652 28.7741 7.428C28.6221 7.196 28.3461 7.08 27.9461 7.08C27.6581 7.08 27.3741 7.136 27.0941 7.248C26.8221 7.36 26.5541 7.496 26.2901 7.656L25.7861 6.732C26.1141 6.524 26.4821 6.344 26.8901 6.192C27.3061 6.04 27.7461 5.964 28.2101 5.964C28.9461 5.964 29.4941 6.184 29.8541 6.624C30.2221 7.056 30.4061 7.684 30.4061 8.508V12H29.2661L29.1701 11.352H29.1221C28.8581 11.576 28.5741 11.764 28.2701 11.916C27.9741 12.068 27.6501 12.144 27.2981 12.144ZM27.7421 11.064C27.9821 11.064 28.1981 11.008 28.3901 10.896C28.5901 10.776 28.8021 10.616 29.0261 10.416V9.096C28.2261 9.2 27.6701 9.356 27.3581 9.564C27.0461 9.764 26.8901 10.012 26.8901 10.308C26.8901 10.572 26.9701 10.764 27.1301 10.884C27.2901 11.004 27.4941 11.064 27.7421 11.064ZM32.1376 12V6.108H33.2776L33.3736 6.9H33.4216C33.6856 6.644 33.9736 6.424 34.2856 6.24C34.5976 6.056 34.9536 5.964 35.3536 5.964C35.9856 5.964 36.4456 6.168 36.7336 6.576C37.0216 6.984 37.1656 7.56 37.1656 8.304V12H35.7856V8.484C35.7856 7.996 35.7136 7.652 35.5696 7.452C35.4256 7.252 35.1896 7.152 34.8616 7.152C34.6056 7.152 34.3776 7.216 34.1776 7.344C33.9856 7.464 33.7656 7.644 33.5176 7.884V12H32.1376ZM41.3924 12.144C40.8564 12.144 40.3724 12.024 39.9404 11.784C39.5164 11.536 39.1764 11.184 38.9204 10.728C38.6724 10.264 38.5484 9.708 38.5484 9.06C38.5484 8.404 38.6844 7.848 38.9564 7.392C39.2284 6.928 39.5884 6.576 40.0364 6.336C40.4924 6.088 40.9804 5.964 41.5004 5.964C41.8764 5.964 42.2044 6.028 42.4844 6.156C42.7644 6.284 43.0124 6.44 43.2284 6.624L42.5564 7.524C42.4044 7.388 42.2484 7.284 42.0884 7.212C41.9284 7.132 41.7564 7.092 41.5724 7.092C41.1004 7.092 40.7124 7.272 40.4084 7.632C40.1124 7.992 39.9644 8.468 39.9644 9.06C39.9644 9.644 40.1084 10.116 40.3964 10.476C40.6924 10.836 41.0724 11.016 41.5364 11.016C41.7684 11.016 41.9844 10.968 42.1844 10.872C42.3924 10.768 42.5804 10.648 42.7484 10.512L43.3124 11.424C43.0404 11.664 42.7364 11.844 42.4004 11.964C42.0644 12.084 41.7284 12.144 41.3924 12.144ZM46.7824 12.144C46.2384 12.144 45.7464 12.024 45.3064 11.784C44.8664 11.536 44.5184 11.184 44.2624 10.728C44.0064 10.264 43.8784 9.708 43.8784 9.06C43.8784 8.42 44.0064 7.868 44.2624 7.404C44.5264 6.94 44.8664 6.584 45.2824 6.336C45.6984 6.088 46.1344 5.964 46.5904 5.964C47.1264 5.964 47.5744 6.084 47.9344 6.324C48.2944 6.556 48.5664 6.884 48.7504 7.308C48.9344 7.724 49.0264 8.208 49.0264 8.76C49.0264 9.048 49.0064 9.272 48.9664 9.432H45.2224C45.2864 9.952 45.4744 10.356 45.7864 10.644C46.0984 10.932 46.4904 11.076 46.9624 11.076C47.2184 11.076 47.4544 11.04 47.6704 10.968C47.8944 10.888 48.1144 10.78 48.3304 10.644L48.7984 11.508C48.5184 11.692 48.2064 11.844 47.8624 11.964C47.5184 12.084 47.1584 12.144 46.7824 12.144ZM45.2104 8.496H47.8264C47.8264 8.04 47.7264 7.684 47.5264 7.428C47.3264 7.164 47.0264 7.032 46.6264 7.032C46.2824 7.032 45.9744 7.16 45.7024 7.416C45.4384 7.664 45.2744 8.024 45.2104 8.496ZM51.7684 12.144C51.2804 12.144 50.9324 11.996 50.7244 11.7C50.5244 11.404 50.4244 11 50.4244 10.488V3.528H51.8044V10.56C51.8044 10.728 51.8364 10.848 51.9004 10.92C51.9644 10.984 52.0324 11.016 52.1044 11.016C52.1364 11.016 52.1644 11.016 52.1884 11.016C52.2204 11.008 52.2644 11 52.3204 10.992L52.5004 12.024C52.4204 12.056 52.3164 12.084 52.1884 12.108C52.0684 12.132 51.9284 12.144 51.7684 12.144ZM55.1062 12.144C54.6182 12.144 54.2702 11.996 54.0622 11.7C53.8622 11.404 53.7622 11 53.7622 10.488V3.528H55.1422V10.56C55.1422 10.728 55.1742 10.848 55.2382 10.92C55.3022 10.984 55.3702 11.016 55.4422 11.016C55.4742 11.016 55.5022 11.016 55.5262 11.016C55.5582 11.008 55.6022 11 55.6582 10.992L55.8382 12.024C55.7582 12.056 55.6542 12.084 55.5262 12.108C55.4062 12.132 55.2662 12.144 55.1062 12.144ZM59.6201 12.144C59.0761 12.144 58.5841 12.024 58.1441 11.784C57.7041 11.536 57.3561 11.184 57.1001 10.728C56.8441 10.264 56.7161 9.708 56.7161 9.06C56.7161 8.42 56.8441 7.868 57.1001 7.404C57.3641 6.94 57.7041 6.584 58.1201 6.336C58.5361 6.088 58.9721 5.964 59.4281 5.964C59.9641 5.964 60.4121 6.084 60.7721 6.324C61.1321 6.556 61.4041 6.884 61.5881 7.308C61.7721 7.724 61.8641 8.208 61.8641 8.76C61.8641 9.048 61.8441 9.272 61.8041 9.432H58.0601C58.1241 9.952 58.3121 10.356 58.6241 10.644C58.9361 10.932 59.3281 11.076 59.8001 11.076C60.0561 11.076 60.2921 11.04 60.5081 10.968C60.7321 10.888 60.9521 10.78 61.1681 10.644L61.6361 11.508C61.3561 11.692 61.0441 11.844 60.7001 11.964C60.3561 12.084 59.9961 12.144 59.6201 12.144ZM58.0481 8.496H60.6641C60.6641 8.04 60.5641 7.684 60.3641 7.428C60.1641 7.164 59.8641 7.032 59.4641 7.032C59.1201 7.032 58.8121 7.16 58.5401 7.416C58.2761 7.664 58.1121 8.024 58.0481 8.496ZM65.3261 12.144C64.5901 12.144 64.0021 11.872 63.5621 11.328C63.1221 10.784 62.9021 10.028 62.9021 9.06C62.9021 8.42 63.0181 7.868 63.2501 7.404C63.4901 6.94 63.8021 6.584 64.1861 6.336C64.5701 6.088 64.9741 5.964 65.3981 5.964C65.7341 5.964 66.0181 6.024 66.2501 6.144C66.4901 6.256 66.7221 6.412 66.9461 6.612L66.8981 5.664V3.528H68.2781V12H67.1381L67.0421 11.364H66.9941C66.7781 11.58 66.5261 11.764 66.2381 11.916C65.9501 12.068 65.6461 12.144 65.3261 12.144ZM65.6621 11.004C66.1021 11.004 66.5141 10.784 66.8981 10.344V7.596C66.6981 7.412 66.4981 7.284 66.2981 7.212C66.0981 7.14 65.8981 7.104 65.6981 7.104C65.3221 7.104 64.9981 7.276 64.7261 7.62C64.4621 7.956 64.3301 8.432 64.3301 9.048C64.3301 9.68 64.4461 10.164 64.6781 10.5C64.9101 10.836 65.2381 11.004 65.6621 11.004Z" fill="#DE294C"/>
</svg>
