<svg xmlns="http://www.w3.org/2000/svg" viewBox="0 0 299.76 98.39"><title>NotHappy</title><g id="Layer_2" data-name="Layer 2"><g id="Layer_1-2" data-name="Layer 1"><g id="Out_of_Commission" data-name="Out of Commission"><path d="M223.78,20.07c3.22,3.83,4.17,8.27,4.08,13.18a90.24,90.24,0,0,0,.75,11.49c.31,2.69-.26,4-2.75,5.18-1.13.51-2.17,1.2-3.26,1.81.06.23-.12,2.72,3.39,2.72h24.59c7,0,9.37,4.68,9.37,9.37H148.71A8.42,8.42,0,0,1,142,60.09c-2.15-2.88-5.47-6.7-16.19-6.7-6.65-8.89-19.53-24-45.8-12.21,19-6,34-2.68,45.4,14.28,8.49,0,13.85,1.33,16.29,8.36H63.23c0,18.83,31.62,25.27,49.62,16.68,3.25-1.61,7.85-4.19,10.49-1.12,2.93,7.07-13.56,19-35.13,19-3.51,0-46.7-2.67-46.7-40.76,0-8.74,2.5-43.83,52-43.83,21.23,0,54.55,13.67,63.65,16.43,7.45,2.26,14.36,2,20.21-3.83,7.14-8.84,16.38-16.62,23.91-16.72A4.69,4.69,0,0,0,204,8.21c3.29-3.11,6.95-7,12-8.21,0,3.94-.1,8.92-.1,12.94,3.44-1.4,6.89-5.65,10.64-4.74C224.92,13.56,223.8,15.81,223.78,20.07Zm-3.49,13.7a11.39,11.39,0,0,0,.23-3.87c-1.15-1.38-7.47-1-10.52-.27C222.09,28.39,220.29,33.77,220.29,33.77Z" style="fill:#888"/><path d="M39.81,71.84c-.69-4.21-2-4.68-4.68-4.68H3.51C2.09,67.16,0,68.54,0,71.84Z" style="fill:#888"/><path d="M39.81,74.35H11.71c-1.08,0-2.34.1-2.34,2.35H42.15C41.85,75.48,41.42,74.35,39.81,74.35Z" style="fill:#888"/><path d="M282.2,73.18c1.61,0,2,1.13,2.34,2.35H74.94a3.37,3.37,0,0,1-3.51-2.35Z" style="fill:#888"/><path d="M295.08,66c2.65,0,4,.46,4.68,4.68H71.43c-2.66,0-4-.47-4.69-4.68Z" style="fill:#888"/><path d="M233.72,64l2.52-9.52a1.56,1.56,0,0,1,1.52-1.17h2.43a1.57,1.57,0,0,1,1.57,1.57v9.52A1.57,1.57,0,0,1,240.19,66h-4.95A1.57,1.57,0,0,1,233.72,64Z" style="fill:#fff"/><path d="M237.23,64l1.26-9.52c.09-.69.4-1.17.76-1.17h1.21c.44,0,.79.71.79,1.57v9.52c0,.86-.35,1.57-.79,1.57H238C237.47,66,237.09,65,237.23,64Z" style="fill:#c4c4c4"/><path d="M247.87,63.35l-2.59-9.79a1.77,1.77,0,0,0-1.62-1.42h-2.79a1.84,1.84,0,0,0-1.69,1.79l-1,9.79A1.94,1.94,0,0,0,239.89,66h6.36A2,2,0,0,0,247.87,63.35Z" style="fill:#fff"/><path d="M239.22,50.23c-1.39-2-7.43-2.37-7.31,1.5.15,5,4.72.66,4.72.66-1.37.12-2.91,1-3,.3,0-.26,1.76-2.3,5.7-.32h0Z" style="fill:#fff"/><path d="M243,50.31c5-3.33,8.21-2.84,7.87,1.12-.42,4.94-4.86.66-4.86.66,1.41.12,3,1,3.07.29,0-.25-1.82-2.29-5.87-.31h0Z" style="fill:#fff"/><rect x="238.41" y="49.82" width="5.43" height="4.88" rx="1.44" style="fill:#c4c4c4"/><path d="M241,63.75l-.28-9.25-.25,0L240.32,64c-.09,1,.16,1.95.5,1.95h1.25C241.4,66,240.88,64.94,241,63.75Z" style="fill:#c4c4c4"/><rect id="Knot" x="238.84" y="49.66" width="4.15" height="4.15" rx="1.44" style="fill:#fff"/></g></g></g></svg>