<svg width="32" height="32" viewBox="0 0 32 32" fill="none" xmlns="http://www.w3.org/2000/svg">
<path d="M2.66797 9.33317C2.66797 8.62593 2.94892 7.94765 3.44902 7.44755C3.94911 6.94746 4.62739 6.6665 5.33464 6.6665H26.668C27.3752 6.6665 28.0535 6.94746 28.5536 7.44755C29.0537 7.94765 29.3346 8.62593 29.3346 9.33317V22.6665C29.3346 23.3737 29.0537 24.052 28.5536 24.5521C28.0535 25.0522 27.3752 25.3332 26.668 25.3332H5.33464C4.62739 25.3332 3.94911 25.0522 3.44902 24.5521C2.94892 24.052 2.66797 23.3737 2.66797 22.6665V9.33317Z" stroke="white" stroke-width="2.66667" stroke-linecap="round" stroke-linejoin="round"/>
<path d="M16 20C18.2091 20 20 18.2091 20 16C20 13.7909 18.2091 12 16 12C13.7909 12 12 13.7909 12 16C12 18.2091 13.7909 20 16 20Z" stroke="white" stroke-width="2.66667" stroke-linecap="round" stroke-linejoin="round"/>
<path d="M2.66797 11.9998C4.08246 11.9998 5.43901 11.4379 6.43921 10.4377C7.4394 9.43755 8.0013 8.08099 8.0013 6.6665M24.0013 25.3332C24.0013 23.9187 24.5632 22.5621 25.5634 21.5619C26.5636 20.5617 27.9201 19.9998 29.3346 19.9998" stroke="white" stroke-width="2.66667" stroke-linecap="round" stroke-linejoin="round"/>
</svg>
