<svg xmlns="http://www.w3.org/2000/svg" viewBox="0 0 16 16"><path class="generator" id="generator" fill="white" d="M14.28,6.06c-.48-1.47-2.13-2.9-3.14-2.69a1.29,1.29,0,0,0-.76.47A4.48,4.48,0,0,0,9.27,5.72l-.13.37L8.85,6l-.28-.11-.08-.17a2.06,2.06,0,0,1-.13-1.3A.83.83,0,0,1,8.64,4a3.52,3.52,0,0,1,.54-.43,11.76,11.76,0,0,0,1.09-.74.73.73,0,0,0,.27-.45.86.86,0,0,0-.32-.46,2.21,2.21,0,0,0-.81-.35,5.16,5.16,0,0,0-1.57,0A3.06,3.06,0,0,0,5.59,2.89a1,1,0,0,0-.08.69,4.72,4.72,0,0,0,1.16,2.2l.24.3-.23.19-.22.18-.23,0a2.06,2.06,0,0,1-1.17-.54c-.2-.24-.27-.54-.31-1.43a4.3,4.3,0,0,0-.12-1.09C4.53,3,4.36,2.91,4,3a1.58,1.58,0,0,0-.72.44A4.43,4.43,0,0,0,2.1,6.28a1.65,1.65,0,0,0,.51,1.51,2.85,2.85,0,0,0,1,.32,6,6,0,0,0,1.79,0A1.53,1.53,0,0,1,5.79,8a2.91,2.91,0,0,1,.06.29c0,.26,0,.26,0,.4a2,2,0,0,1-1.22.81c-.27,0-.53-.08-1.36-.49s-1-.46-1.19-.43-.27.1-.34.3a3,3,0,0,0,1.05,2.69c.91,1,1.9,1.33,2.52.92a4.29,4.29,0,0,0,1.08-1.28,7,7,0,0,0,.46-1.09.73.73,0,0,1,.07-.2,1.15,1.15,0,0,1,.28.09l.29.11.07.17a2,2,0,0,1,.19.84c0,.64-.16.84-1.26,1.55-.74.47-1,.7-1,.94a.89.89,0,0,0,.39.51,2.58,2.58,0,0,0,1.64.34,3.91,3.91,0,0,0,.81-.08A2.88,2.88,0,0,0,10.45,13a2.32,2.32,0,0,0-.33-1.67,5.28,5.28,0,0,0-.78-1.14l-.24-.3a1.36,1.36,0,0,1,.22-.19l.22-.18.23,0a1.69,1.69,0,0,1,1.3.73,3.66,3.66,0,0,1,.19,1.29c.05,1.11.15,1.4.47,1.43a1.32,1.32,0,0,0,.7-.22,4.09,4.09,0,0,0,1.4-2.39,4.24,4.24,0,0,0,.05-1.36,1.37,1.37,0,0,0-.52-.87,3.27,3.27,0,0,0-.93-.3,6,6,0,0,0-2,.1l-.21,0a1.9,1.9,0,0,1-.06-.29l0-.3.12-.17a1.77,1.77,0,0,1,1.23-.77A3.18,3.18,0,0,1,12.73,7c.8.4,1,.48,1.23.46s.24-.07.34-.28A1.77,1.77,0,0,0,14.28,6.06ZM8,9.56A1.56,1.56,0,1,1,9.56,8,1.56,1.56,0,0,1,8,9.56Z"/><path fill="white" d="M8,0a8,8,0,1,0,8,8A8,8,0,0,0,8,0ZM8,15.25A7.25,7.25,0,1,1,15.25,8,7.26,7.26,0,0,1,8,15.25Z"/></svg>