<svg width="16" height="18" viewBox="0 0 16 18" xmlns="http://www.w3.org/2000/svg">
<path d="M2.57201 6.80241C2.71488 6.3992 3.28512 6.3992 3.42799 6.80241L3.81867 7.90499C3.8644 8.03406 3.96594 8.1356 4.09501 8.18133L5.19759 8.57201C5.6008 8.71488 5.6008 9.28512 5.19759 9.42799L4.09501 9.81867C3.96594 9.8644 3.8644 9.96594 3.81867 10.095L3.42799 11.1976C3.28512 11.6008 2.71488 11.6008 2.57201 11.1976L2.18133 10.095C2.1356 9.96594 2.03406 9.8644 1.90499 9.81867L0.802411 9.42799C0.399197 9.28512 0.399196 8.71488 0.80241 8.57201L1.90499 8.18133C2.03406 8.1356 2.1356 8.03406 2.18133 7.90499L2.57201 6.80241Z" fill="white"/>
<path d="M8.82201 13.0524C8.96488 12.6492 9.53512 12.6492 9.67799 13.0524L10.0687 14.155C10.1144 14.2841 10.2159 14.3856 10.345 14.4313L11.4476 14.822C11.8508 14.9649 11.8508 15.5351 11.4476 15.678L10.345 16.0687C10.2159 16.1144 10.1144 16.2159 10.0687 16.345L9.67799 17.4476C9.53512 17.8508 8.96488 17.8508 8.82201 17.4476L8.43133 16.345C8.3856 16.2159 8.28406 16.1144 8.15499 16.0687L7.05241 15.678C6.6492 15.5351 6.6492 14.9649 7.05241 14.822L8.15499 14.4313C8.28406 14.3856 8.3856 14.2841 8.43133 14.155L8.82201 13.0524Z" fill="white"/>
<path d="M10.4745 0.709649C10.6916 0.0967836 11.5584 0.096784 11.7755 0.709649L12.5198 2.81017C12.5893 3.00635 12.7436 3.16068 12.9398 3.23019L15.0404 3.97448C15.6532 4.19164 15.6532 5.05836 15.0404 5.27552L12.9398 6.01981C12.7436 6.08932 12.5893 6.24365 12.5198 6.43983L11.7755 8.54035C11.5584 9.15322 10.6916 9.15322 10.4745 8.54035L9.73019 6.43983C9.66068 6.24365 9.50635 6.08932 9.31017 6.01981L7.20965 5.27552C6.59678 5.05836 6.59678 4.19164 7.20965 3.97448L9.31017 3.23019C9.50635 3.16068 9.66068 3.00635 9.73019 2.81017L10.4745 0.709649Z" fill="white"/>
</svg>
