<svg width="24" height="24" viewBox="0 0 24 24" fill="none" xmlns="http://www.w3.org/2000/svg">
<path fill-rule="evenodd" clip-rule="evenodd" d="M15.7128 1.17962C13.2707 0.606792 10.7293 0.606792 8.28718 1.17962C4.76052 2.00687 2.00687 4.76052 1.17962 8.28718C0.606792 10.7293 0.606792 13.2708 1.17962 15.7128C2.00687 19.2395 4.76052 21.9931 8.28719 22.8204C10.7293 23.3932 13.2707 23.3932 15.7128 22.8204C19.2395 21.9931 21.9931 19.2395 22.8204 15.7128C23.3932 13.2707 23.3932 10.7293 22.8204 8.28719C21.9931 4.76052 19.2395 2.00687 15.7128 1.17962ZM7.69222 8.41014C7.69222 8.01362 8.01366 7.69218 8.41018 7.69218H13.1966C13.5931 7.69218 13.9146 8.01362 13.9146 8.41014C13.9146 8.80667 13.5931 9.12811 13.1966 9.12811H8.41018C8.01366 9.12811 7.69222 8.80667 7.69222 8.41014ZM7.69222 12C7.69222 11.6034 8.01366 11.282 8.41018 11.282H15.5898C15.9863 11.282 16.3078 11.6034 16.3078 12C16.3078 12.3965 15.9863 12.7179 15.5898 12.7179H8.41018C8.01366 12.7179 7.69222 12.3965 7.69222 12ZM7.69222 15.5898C7.69222 15.1933 8.01366 14.8718 8.41018 14.8718H12C12.3965 14.8718 12.718 15.1933 12.718 15.5898C12.718 15.9863 12.3965 16.3078 12 16.3078H8.41018C8.01366 16.3078 7.69222 15.9863 7.69222 15.5898Z" fill="white"/>
</svg>
