<svg width="68" height="16" viewBox="0 0 68 16" fill="none" xmlns="http://www.w3.org/2000/svg">
<path d="M0 8C0 3.58172 3.58172 0 8 0H60C64.4183 0 68 3.58172 68 8C68 12.4183 64.4183 16 60 16H8C3.58172 16 0 12.4183 0 8Z" fill="#FBE5EA"/>
<path d="M4 8C4 5.79086 5.79086 4 8 4C10.2091 4 12 5.79086 12 8C12 10.2091 10.2091 12 8 12C5.79086 12 4 10.2091 4 8Z" fill="#DE294C"/>
<path d="M18.996 12V4.152H20.388V12H18.996ZM22.3427 12V6.108H23.4827L23.5787 6.9H23.6267C23.8907 6.644 24.1747 6.424 24.4787 6.24C24.7907 6.056 25.1507 5.964 25.5587 5.964C26.1907 5.964 26.6507 6.168 26.9387 6.576C27.2267 6.976 27.3707 7.552 27.3707 8.304V12H25.9907V8.484C25.9907 7.996 25.9187 7.652 25.7747 7.452C25.6307 7.252 25.3947 7.152 25.0667 7.152C24.8107 7.152 24.5827 7.216 24.3827 7.344C24.1907 7.464 23.9707 7.644 23.7227 7.884V12H22.3427ZM30.5656 12.144C30.0456 12.144 29.6256 11.988 29.3056 11.676C28.9856 11.356 28.8256 10.936 28.8256 10.416C28.8256 10.104 28.8896 9.828 29.0176 9.588C29.1536 9.34 29.3616 9.128 29.6416 8.952C29.9296 8.776 30.2896 8.628 30.7216 8.508C31.1616 8.388 31.6856 8.296 32.2936 8.232C32.2856 8.08 32.2616 7.936 32.2216 7.8C32.1896 7.656 32.1296 7.532 32.0416 7.428C31.9616 7.316 31.8536 7.232 31.7176 7.176C31.5816 7.112 31.4136 7.08 31.2136 7.08C30.9256 7.08 30.6416 7.136 30.3616 7.248C30.0896 7.36 29.8216 7.496 29.5576 7.656L29.0536 6.732C29.3816 6.524 29.7496 6.344 30.1576 6.192C30.5656 6.04 31.0056 5.964 31.4776 5.964C32.2136 5.964 32.7616 6.184 33.1216 6.624C33.4896 7.056 33.6736 7.684 33.6736 8.508V12H32.5336L32.4376 11.352H32.3896C32.1256 11.576 31.8416 11.764 31.5376 11.916C31.2416 12.068 30.9176 12.144 30.5656 12.144ZM31.0096 11.064C31.2496 11.064 31.4656 11.008 31.6576 10.896C31.8576 10.784 32.0696 10.624 32.2936 10.416V9.096C31.8936 9.144 31.5576 9.208 31.2856 9.288C31.0136 9.368 30.7936 9.46 30.6256 9.564C30.4576 9.66 30.3376 9.772 30.2656 9.9C30.1936 10.028 30.1576 10.164 30.1576 10.308C30.1576 10.572 30.2376 10.764 30.3976 10.884C30.5576 11.004 30.7616 11.064 31.0096 11.064ZM37.8651 12.144C37.4651 12.144 37.0891 12.076 36.7371 11.94C36.3931 11.804 36.0931 11.604 35.8371 11.34C35.5811 11.076 35.3811 10.752 35.2371 10.368C35.0931 9.984 35.0211 9.548 35.0211 9.06C35.0211 8.572 35.1011 8.136 35.2611 7.752C35.4211 7.368 35.6371 7.044 35.9091 6.78C36.1811 6.516 36.4931 6.316 36.8451 6.18C37.2051 6.036 37.5811 5.964 37.9731 5.964C38.3571 5.964 38.6851 6.028 38.9571 6.156C39.2371 6.284 39.4851 6.44 39.7011 6.624L39.0291 7.524C38.8691 7.388 38.7091 7.284 38.5491 7.212C38.3971 7.132 38.2291 7.092 38.0451 7.092C37.5651 7.092 37.1771 7.272 36.8811 7.632C36.5851 7.984 36.4371 8.46 36.4371 9.06C36.4371 9.652 36.5811 10.128 36.8691 10.488C37.1651 10.84 37.5451 11.016 38.0091 11.016C38.2411 11.016 38.4571 10.968 38.6571 10.872C38.8651 10.768 39.0531 10.648 39.2211 10.512L39.7851 11.424C39.5051 11.664 39.1971 11.844 38.8611 11.964C38.5331 12.084 38.2011 12.144 37.8651 12.144ZM42.9868 12.144C42.6428 12.144 42.3508 12.092 42.1108 11.988C41.8788 11.884 41.6868 11.74 41.5348 11.556C41.3908 11.364 41.2828 11.14 41.2108 10.884C41.1468 10.62 41.1148 10.328 41.1148 10.008V7.2H40.2748V6.168L41.1868 6.108L41.3548 4.5H42.5068V6.108H44.0068V7.2H42.5068V10.008C42.5068 10.696 42.7828 11.04 43.3348 11.04C43.4388 11.04 43.5428 11.028 43.6468 11.004C43.7588 10.98 43.8588 10.948 43.9468 10.908L44.1868 11.928C44.0268 11.984 43.8428 12.032 43.6348 12.072C43.4348 12.12 43.2188 12.144 42.9868 12.144ZM45.3268 12V6.108H46.7068V12H45.3268ZM46.0228 5.076C45.7748 5.076 45.5708 5.004 45.4108 4.86C45.2508 4.716 45.1708 4.528 45.1708 4.296C45.1708 4.064 45.2508 3.876 45.4108 3.732C45.5708 3.58 45.7748 3.504 46.0228 3.504C46.2708 3.504 46.4748 3.58 46.6348 3.732C46.7948 3.876 46.8748 4.064 46.8748 4.296C46.8748 4.528 46.7948 4.716 46.6348 4.86C46.4748 5.004 46.2708 5.076 46.0228 5.076ZM49.8674 12L47.8154 6.108H49.2194L50.1554 9.168C50.2354 9.456 50.3154 9.748 50.3954 10.044C50.4834 10.34 50.5674 10.64 50.6474 10.944H50.6954C50.7834 10.64 50.8674 10.34 50.9474 10.044C51.0274 9.748 51.1114 9.456 51.1994 9.168L52.1354 6.108H53.4674L51.4634 12H49.8674ZM57.0185 12.144C56.6105 12.144 56.2305 12.076 55.8785 11.94C55.5265 11.796 55.2185 11.592 54.9545 11.328C54.6905 11.064 54.4825 10.744 54.3305 10.368C54.1865 9.984 54.1145 9.548 54.1145 9.06C54.1145 8.58 54.1905 8.148 54.3425 7.764C54.4945 7.38 54.6945 7.056 54.9425 6.792C55.1985 6.528 55.4905 6.324 55.8185 6.18C56.1465 6.036 56.4825 5.964 56.8265 5.964C57.2265 5.964 57.5785 6.032 57.8825 6.168C58.1865 6.304 58.4385 6.496 58.6385 6.744C58.8465 6.992 59.0025 7.288 59.1065 7.632C59.2105 7.976 59.2625 8.352 59.2625 8.76C59.2625 8.896 59.2545 9.024 59.2385 9.144C59.2305 9.264 59.2185 9.36 59.2025 9.432H55.4585C55.5225 9.96 55.7065 10.368 56.0105 10.656C56.3225 10.936 56.7185 11.076 57.1985 11.076C57.4545 11.076 57.6905 11.04 57.9065 10.968C58.1305 10.888 58.3505 10.78 58.5665 10.644L59.0345 11.508C58.7545 11.692 58.4425 11.844 58.0985 11.964C57.7545 12.084 57.3945 12.144 57.0185 12.144ZM55.4465 8.496H58.0625C58.0625 8.04 57.9625 7.684 57.7625 7.428C57.5705 7.164 57.2705 7.032 56.8625 7.032C56.5105 7.032 56.2025 7.156 55.9385 7.404C55.6745 7.652 55.5105 8.016 55.4465 8.496Z" fill="#DE294C"/>
</svg>
