<svg xmlns="http://www.w3.org/2000/svg" xmlns:xlink="http://www.w3.org/1999/xlink" viewBox="0 0 706.43 791.03"><path d="M691.77,468.26h0l-.09-.06a35.5,35.5,0,0,0-5-2.87l-313.58-181a39.84,39.84,0,0,0-39.85,0L164.65,381.67a16,16,0,0,0,0,27.61L459.29,579.41l-86.18,49.66a39.83,39.83,0,0,1-39.79,0L51.38,466.6C28.53,453.44,0,469.93,0,496.29v70.92a55.79,55.79,0,0,0,27.89,48.31L313.36,780.35a79.69,79.69,0,0,0,79.7,0L678.54,615.52a55.79,55.79,0,0,0,27.89-48.31V496.29A33.81,33.81,0,0,0,691.77,468.26Z" style="fill:white"/><path d="M678.54,175.5,393.06,10.68a79.69,79.69,0,0,0-79.7,0L27.89,175.5A55.8,55.8,0,0,0,0,223.82v70.93c0,26.38,28.56,42.87,51.41,29.68L333.29,161.68a39.79,39.79,0,0,1,39.85,0L655,324.43c22.85,13.19,51.41-3.3,51.41-29.68V223.82A55.8,55.8,0,0,0,678.54,175.5Z" style="fill:white"/></svg>