<svg xmlns="http://www.w3.org/2000/svg" xmlns:xlink="http://www.w3.org/1999/xlink" viewBox="0 0 706.43 791.03"><defs><linearGradient id="linear-gradient" x1="-424.47" y1="1173.78" x2="-423.47" y2="1173.78" gradientTransform="matrix(434.28, -626.5, -626.5, -434.28, 919914.18, 244559.22)" gradientUnits="userSpaceOnUse"><stop offset="0" stop-color="#916"/><stop offset="0.08" stop-color="#916"/><stop offset="0.15" stop-color="#a81b62"/><stop offset="0.33" stop-color="#ce3458"/><stop offset="0.47" stop-color="#e54352"/><stop offset="0.56" stop-color="#ee4950"/><stop offset="1" stop-color="#ef7a4f"/></linearGradient><linearGradient id="linear-gradient-2" x1="-424.47" y1="1173.78" x2="-423.47" y2="1173.78" gradientTransform="matrix(434.28, -626.5, -626.5, -434.28, 919783.5, 244468.63)" xlink:href="#linear-gradient"/></defs><title>Logo</title><g id="Layer_2" data-name="Layer 2"><g id="Layer_1-2" data-name="Layer 1"><path d="M691.77,468.26h0l-.09-.06a35.5,35.5,0,0,0-5-2.87l-313.58-181a39.84,39.84,0,0,0-39.85,0L164.65,381.67a16,16,0,0,0,0,27.61L459.29,579.41l-86.18,49.66a39.83,39.83,0,0,1-39.79,0L51.38,466.6C28.53,453.44,0,469.93,0,496.29v70.92a55.79,55.79,0,0,0,27.89,48.31L313.36,780.35a79.69,79.69,0,0,0,79.7,0L678.54,615.52a55.79,55.79,0,0,0,27.89-48.31V496.29A33.81,33.81,0,0,0,691.77,468.26Z" style="fill:url(#linear-gradient)"/><path d="M678.54,175.5,393.06,10.68a79.69,79.69,0,0,0-79.7,0L27.89,175.5A55.8,55.8,0,0,0,0,223.82v70.93c0,26.38,28.56,42.87,51.41,29.68L333.29,161.68a39.79,39.79,0,0,1,39.85,0L655,324.43c22.85,13.19,51.41-3.3,51.41-29.68V223.82A55.8,55.8,0,0,0,678.54,175.5Z" style="fill:url(#linear-gradient-2)"/></g></g></svg>