<svg xmlns="http://www.w3.org/2000/svg" viewBox="0 0 21 16.5"><circle cx="14.5" cy="10" r="6.5" class="sidebar_Icon_Selected"/><path d="M5.5,6.5V8.79A1.72,1.72,0,0,0,7.21,10.5H18.79A1.72,1.72,0,0,0,20.5,8.79V2.21A1.72,1.72,0,0,0,18.79.5H7.21A1.72,1.72,0,0,0,5.5,2.21V3.5" style="fill:none;stroke:#000;stroke-linecap:round;stroke-miterlimit:10"/><line x1="0.5" y1="5" x2="8.5" y2="5" style="fill:none;stroke:#000;stroke-linecap:round;stroke-miterlimit:10"/><line x1="1" y1="2.5" x2="4" y2="2.5" style="fill:none;stroke:#000;stroke-linecap:round;stroke-miterlimit:10"/><line x1="2.15" y1="7.46" x2="5.35" y2="7.46" style="fill:none;stroke:#000;stroke-linecap:round;stroke-miterlimit:10"/><line x1="3.5" y1="9.5" x2="0.5" y2="9.5" style="fill:none;stroke:#000;stroke-linecap:round;stroke-miterlimit:10"/><path d="M18.16,2.5l-4.6,3.88a.86.86,0,0,1-1.12,0L6.14.89" style="fill:none;stroke:#000;stroke-linecap:round;stroke-miterlimit:10"/><line x1="6.14" y1="9.88" x2="10.87" y2="5" style="fill:none;stroke:#000;stroke-linecap:round;stroke-miterlimit:10"/><line x1="19.86" y1="10.09" x2="14.95" y2="5.21" style="fill:none;stroke:#000;stroke-linecap:round;stroke-miterlimit:10"/></svg>