<svg xmlns="http://www.w3.org/2000/svg" width="41" height="16" viewBox="0 0 41 16"><path d="M0,8A8,8,0,0,1,8,0H33a8,8,0,0,1,8,8h0a8,8,0,0,1-8,8H8A8,8,0,0,1,0,8Z" style="fill:#fbe5ea"/><path d="M4,8A4,4,0,0,1,8,4H8a4,4,0,0,1,4,4h0a4,4,0,0,1-4,4H8A4,4,0,0,1,4,8Z" style="fill:#de294c"/><path d="M19,12V4.15h1.42l2.45,4.42.81,1.67h0c0-.4-.07-.84-.12-1.31s-.06-.93-.06-1.37V4.15h1.34V12H23.45L21,7.58l-.8-1.66h-.05c0,.41.07.85.11,1.3s.07.91.07,1.35V12Zm10.24.14a2.69,2.69,0,0,1-1.36-.36,2.83,2.83,0,0,1-1-1,3.38,3.38,0,0,1-.39-1.67,3.33,3.33,0,0,1,.39-1.67,2.76,2.76,0,0,1,1-1A2.61,2.61,0,0,1,29.24,6a2.65,2.65,0,0,1,1.38.38,2.76,2.76,0,0,1,1,1,3.33,3.33,0,0,1,.39,1.67,3.38,3.38,0,0,1-.39,1.67,2.83,2.83,0,0,1-1,1A2.73,2.73,0,0,1,29.24,12.14Zm0-1.12a1.18,1.18,0,0,0,1-.54,2.46,2.46,0,0,0,.38-1.42,2.47,2.47,0,0,0-.38-1.43,1.23,1.23,0,0,0-2,0,2.55,2.55,0,0,0-.36,1.43,2.53,2.53,0,0,0,.36,1.42A1.18,1.18,0,0,0,29.24,11Z" style="fill:#de294c"/></svg>