<svg xmlns="http://www.w3.org/2000/svg" width="42" height="16" viewBox="0 0 42 16"><path d="M0,8A8,8,0,0,1,8,0H34a8,8,0,0,1,8,8h0a8,8,0,0,1-8,8H8A8,8,0,0,1,0,8Z" style="fill:#fbe5ea"/><path d="M4,8A4,4,0,0,1,8,4H8a4,4,0,0,1,4,4h0a4,4,0,0,1-4,4H8A4,4,0,0,1,4,8Z" style="fill:#de294c"/><path d="M22,12.14a3.53,3.53,0,0,1-1.4-.27,3.14,3.14,0,0,1-1.09-.82,3.83,3.83,0,0,1-.71-1.29A5.41,5.41,0,0,1,18.59,8a5.18,5.18,0,0,1,.25-1.69,3.47,3.47,0,0,1,.71-1.27,3.08,3.08,0,0,1,1.09-.8A3.53,3.53,0,0,1,22,4a3.58,3.58,0,0,1,1.41.27,3.08,3.08,0,0,1,1.09.8,3.49,3.49,0,0,1,.72,1.27A5.18,5.18,0,0,1,25.51,8a5.41,5.41,0,0,1-.25,1.72,3.85,3.85,0,0,1-.72,1.29,3.14,3.14,0,0,1-1.09.82A3.58,3.58,0,0,1,22,12.14Zm0-1.21a1.74,1.74,0,0,0,.84-.2,2,2,0,0,0,.64-.58,2.93,2.93,0,0,0,.41-.91A4.94,4.94,0,0,0,24.07,8,3.36,3.36,0,0,0,23.52,6a1.82,1.82,0,0,0-3,0A3.43,3.43,0,0,0,20,8a4.49,4.49,0,0,0,.14,1.2,2.93,2.93,0,0,0,.41.91,1.93,1.93,0,0,0,.63.58A1.8,1.8,0,0,0,22,10.93ZM30.89,12V7.2H28.66V12H27.28V7.2h-.79v-1l.79-.06V5.59a2.84,2.84,0,0,1,.12-.84,1.92,1.92,0,0,1,.36-.66,1.72,1.72,0,0,1,.64-.43,2.49,2.49,0,0,1,.92-.16,3.24,3.24,0,0,1,.64.06,2.56,2.56,0,0,1,.51.16l-.26,1a2,2,0,0,0-.34-.12,2.25,2.25,0,0,0-.4,0,.72.72,0,0,0-.59.25,1.06,1.06,0,0,0-.22.74v.52h2.23V5.5A3.11,3.11,0,0,1,31,4.66,1.81,1.81,0,0,1,31.34,4a1.56,1.56,0,0,1,.6-.44,2.41,2.41,0,0,1,.9-.16,2.91,2.91,0,0,1,.6.06,2.72,2.72,0,0,1,.48.15l-.27,1A1.41,1.41,0,0,0,33,4.48q-.75,0-.75,1v.64h1.16V7.2H32.27V12Z" style="fill:#de294c"/></svg>