<svg xmlns="http://www.w3.org/2000/svg" width="42" height="16" viewBox="0 0 42 16"><path d="M0,8A8.1,8.1,0,0,1,8.2,0H33.8A8.1,8.1,0,0,1,42,8h0a8.1,8.1,0,0,1-8.2,8H8.2A8.1,8.1,0,0,1,0,8Z" style="fill:#e7f9e9"/><path d="M4,8A4,4,0,0,1,8,4H8a4,4,0,0,1,4,4h0a4,4,0,0,1-4,4H8A4,4,0,0,1,4,8Z" style="fill:#37d046"/><path d="M22,12.14a3.53,3.53,0,0,1-1.4-.27,3.14,3.14,0,0,1-1.09-.82,3.83,3.83,0,0,1-.71-1.29A5.41,5.41,0,0,1,18.59,8a5.18,5.18,0,0,1,.25-1.69,3.47,3.47,0,0,1,.71-1.27,3.08,3.08,0,0,1,1.09-.8A3.53,3.53,0,0,1,22,4a3.58,3.58,0,0,1,1.41.27,3.08,3.08,0,0,1,1.09.8,3.49,3.49,0,0,1,.72,1.27A5.18,5.18,0,0,1,25.51,8a5.41,5.41,0,0,1-.25,1.72,3.85,3.85,0,0,1-.72,1.29,3.14,3.14,0,0,1-1.09.82A3.58,3.58,0,0,1,22,12.14Zm0-1.21a1.74,1.74,0,0,0,.84-.2,2,2,0,0,0,.64-.58,2.93,2.93,0,0,0,.41-.91A4.94,4.94,0,0,0,24.07,8,3.36,3.36,0,0,0,23.52,6a1.82,1.82,0,0,0-3,0A3.43,3.43,0,0,0,20,8a4.49,4.49,0,0,0,.14,1.2,2.93,2.93,0,0,0,.41.91,1.93,1.93,0,0,0,.63.58A1.8,1.8,0,0,0,22,10.93ZM27,12V6.11h1.14l.1.79h0a4.13,4.13,0,0,1,.85-.66A2.12,2.12,0,0,1,30.26,6a1.58,1.58,0,0,1,1.38.62,2.89,2.89,0,0,1,.43,1.72V12H30.69V8.48a1.79,1.79,0,0,0-.22-1,.8.8,0,0,0-.7-.3,1.32,1.32,0,0,0-.69.19,4.38,4.38,0,0,0-.66.54V12Z" style="fill:#2ac437"/></svg>