<svg width="69" height="16" viewBox="0 0 69 16" fill="none" xmlns="http://www.w3.org/2000/svg">
<path d="M0 8C0 3.58172 3.58172 0 8 0H61C65.4183 0 69 3.58172 69 8C69 12.4183 65.4183 16 61 16H8C3.58172 16 0 12.4183 0 8Z" fill="#FFF3E0"/>
<path d="M4 8C4 5.79086 5.79086 4 8 4C10.2091 4 12 5.79086 12 8C12 10.2091 10.2091 12 8 12C5.79086 12 4 10.2091 4 8Z" fill="#FF9800"/>
<path d="M18.996 12V4.152H21.468C21.9 4.152 22.3 4.192 22.668 4.272C23.044 4.352 23.368 4.488 23.64 4.68C23.912 4.872 24.124 5.124 24.276 5.436C24.428 5.74 24.504 6.12 24.504 6.576C24.504 7.008 24.428 7.384 24.276 7.704C24.124 8.024 23.912 8.292 23.64 8.508C23.376 8.716 23.06 8.872 22.692 8.976C22.332 9.072 21.94 9.12 21.516 9.12H20.388V12H18.996ZM20.388 8.004H21.408C22.56 8.004 23.136 7.528 23.136 6.576C23.136 6.08 22.984 5.74 22.68 5.556C22.384 5.364 21.944 5.268 21.36 5.268H20.388V8.004ZM28.1908 12.144C27.7828 12.144 27.4028 12.076 27.0508 11.94C26.6988 11.796 26.3908 11.592 26.1268 11.328C25.8628 11.064 25.6548 10.744 25.5028 10.368C25.3588 9.984 25.2868 9.548 25.2868 9.06C25.2868 8.58 25.3628 8.148 25.5148 7.764C25.6668 7.38 25.8668 7.056 26.1148 6.792C26.3708 6.528 26.6628 6.324 26.9908 6.18C27.3188 6.036 27.6548 5.964 27.9988 5.964C28.3988 5.964 28.7508 6.032 29.0548 6.168C29.3588 6.304 29.6108 6.496 29.8108 6.744C30.0188 6.992 30.1748 7.288 30.2788 7.632C30.3828 7.976 30.4348 8.352 30.4348 8.76C30.4348 8.896 30.4268 9.024 30.4108 9.144C30.4028 9.264 30.3908 9.36 30.3748 9.432H26.6308C26.6948 9.96 26.8788 10.368 27.1828 10.656C27.4948 10.936 27.8908 11.076 28.3708 11.076C28.6268 11.076 28.8628 11.04 29.0788 10.968C29.3028 10.888 29.5228 10.78 29.7388 10.644L30.2068 11.508C29.9268 11.692 29.6148 11.844 29.2708 11.964C28.9268 12.084 28.5668 12.144 28.1908 12.144ZM26.6188 8.496H29.2348C29.2348 8.04 29.1348 7.684 28.9348 7.428C28.7428 7.164 28.4428 7.032 28.0348 7.032C27.6828 7.032 27.3748 7.156 27.1108 7.404C26.8468 7.652 26.6828 8.016 26.6188 8.496ZM31.8329 12V6.108H32.9729L33.0689 6.9H33.1169C33.3809 6.644 33.6649 6.424 33.9689 6.24C34.2809 6.056 34.6409 5.964 35.0489 5.964C35.6809 5.964 36.1409 6.168 36.4289 6.576C36.7169 6.976 36.8609 7.552 36.8609 8.304V12H35.4809V8.484C35.4809 7.996 35.4089 7.652 35.2649 7.452C35.1209 7.252 34.8849 7.152 34.5569 7.152C34.3009 7.152 34.0729 7.216 33.8729 7.344C33.6809 7.464 33.4609 7.644 33.2129 7.884V12H31.8329ZM40.6917 12.144C39.9477 12.144 39.3557 11.876 38.9157 11.34C38.4837 10.796 38.2677 10.036 38.2677 9.06C38.2677 8.58 38.3357 8.148 38.4717 7.764C38.6157 7.38 38.8037 7.056 39.0357 6.792C39.2677 6.528 39.5317 6.324 39.8277 6.18C40.1317 6.036 40.4437 5.964 40.7637 5.964C41.0997 5.964 41.3837 6.024 41.6157 6.144C41.8477 6.256 42.0797 6.412 42.3117 6.612L42.2637 5.664V3.528H43.6437V12H42.5037L42.4077 11.364H42.3597C42.1437 11.58 41.8917 11.764 41.6037 11.916C41.3157 12.068 41.0117 12.144 40.6917 12.144ZM41.0277 11.004C41.4677 11.004 41.8797 10.784 42.2637 10.344V7.596C42.0557 7.412 41.8517 7.284 41.6517 7.212C41.4597 7.14 41.2637 7.104 41.0637 7.104C40.6797 7.104 40.3557 7.272 40.0917 7.608C39.8277 7.944 39.6957 8.424 39.6957 9.048C39.6957 9.688 39.8077 10.176 40.0317 10.512C40.2637 10.84 40.5957 11.004 41.0277 11.004ZM45.4812 12V6.108H46.8612V12H45.4812ZM46.1772 5.076C45.9292 5.076 45.7252 5.004 45.5652 4.86C45.4052 4.716 45.3252 4.528 45.3252 4.296C45.3252 4.064 45.4052 3.876 45.5652 3.732C45.7252 3.58 45.9292 3.504 46.1772 3.504C46.4252 3.504 46.6292 3.58 46.7892 3.732C46.9492 3.876 47.0292 4.064 47.0292 4.296C47.0292 4.528 46.9492 4.716 46.7892 4.86C46.6292 5.004 46.4252 5.076 46.1772 5.076ZM48.7018 12V6.108H49.8418L49.9378 6.9H49.9858C50.2498 6.644 50.5338 6.424 50.8378 6.24C51.1498 6.056 51.5098 5.964 51.9178 5.964C52.5498 5.964 53.0098 6.168 53.2978 6.576C53.5858 6.976 53.7298 7.552 53.7298 8.304V12H52.3498V8.484C52.3498 7.996 52.2778 7.652 52.1338 7.452C51.9898 7.252 51.7538 7.152 51.4258 7.152C51.1698 7.152 50.9418 7.216 50.7418 7.344C50.5498 7.464 50.3298 7.644 50.0818 7.884V12H48.7018ZM57.5486 14.604C57.1966 14.604 56.8686 14.572 56.5646 14.508C56.2686 14.444 56.0126 14.348 55.7966 14.22C55.5806 14.092 55.4086 13.932 55.2806 13.74C55.1606 13.548 55.1006 13.324 55.1006 13.068C55.1006 12.82 55.1726 12.588 55.3166 12.372C55.4606 12.164 55.6686 11.976 55.9406 11.808V11.76C55.7886 11.664 55.6606 11.536 55.5566 11.376C55.4606 11.216 55.4126 11.016 55.4126 10.776C55.4126 10.544 55.4766 10.336 55.6046 10.152C55.7406 9.96 55.8926 9.804 56.0606 9.684V9.636C55.8606 9.484 55.6806 9.276 55.5206 9.012C55.3686 8.74 55.2926 8.428 55.2926 8.076C55.2926 7.74 55.3566 7.44 55.4846 7.176C55.6126 6.912 55.7806 6.692 55.9886 6.516C56.2046 6.332 56.4526 6.196 56.7326 6.108C57.0126 6.012 57.3086 5.964 57.6206 5.964C57.7806 5.964 57.9326 5.98 58.0766 6.012C58.2286 6.036 58.3646 6.068 58.4846 6.108H60.5966V7.128H59.5166C59.6126 7.24 59.6926 7.384 59.7566 7.56C59.8206 7.728 59.8526 7.916 59.8526 8.124C59.8526 8.452 59.7926 8.74 59.6726 8.988C59.5606 9.236 59.4046 9.444 59.2046 9.612C59.0046 9.78 58.7686 9.908 58.4966 9.996C58.2246 10.084 57.9326 10.128 57.6206 10.128C57.4926 10.128 57.3606 10.116 57.2246 10.092C57.0886 10.068 56.9526 10.028 56.8166 9.972C56.7286 10.052 56.6566 10.132 56.6006 10.212C56.5526 10.292 56.5286 10.4 56.5286 10.536C56.5286 10.704 56.5966 10.836 56.7326 10.932C56.8766 11.028 57.1286 11.076 57.4886 11.076H58.5326C59.2446 11.076 59.7806 11.192 60.1406 11.424C60.5086 11.648 60.6926 12.016 60.6926 12.528C60.6926 12.816 60.6166 13.088 60.4646 13.344C60.3206 13.6 60.1126 13.82 59.8406 14.004C59.5686 14.188 59.2366 14.332 58.8446 14.436C58.4606 14.548 58.0286 14.604 57.5486 14.604ZM57.6206 9.264C57.9006 9.264 58.1406 9.164 58.3406 8.964C58.5406 8.756 58.6406 8.46 58.6406 8.076C58.6406 7.708 58.5406 7.424 58.3406 7.224C58.1486 7.016 57.9086 6.912 57.6206 6.912C57.3326 6.912 57.0886 7.012 56.8886 7.212C56.6886 7.412 56.5886 7.7 56.5886 8.076C56.5886 8.46 56.6886 8.756 56.8886 8.964C57.0886 9.164 57.3326 9.264 57.6206 9.264ZM57.7646 13.704C58.2446 13.704 58.6286 13.608 58.9166 13.416C59.2126 13.232 59.3606 13.012 59.3606 12.756C59.3606 12.524 59.2686 12.368 59.0846 12.288C58.9086 12.208 58.6526 12.168 58.3166 12.168H57.5126C57.1926 12.168 56.9246 12.14 56.7086 12.084C56.4046 12.316 56.2526 12.576 56.2526 12.864C56.2526 13.128 56.3846 13.332 56.6486 13.476C56.9206 13.628 57.2926 13.704 57.7646 13.704Z" fill="#F57C00"/>
</svg>
