<svg xmlns="http://www.w3.org/2000/svg" viewBox="0 0 16 16"><path d="M15.69,5.36a6.74,6.74,0,0,0-5-5.05,11.49,11.49,0,0,0-5.28,0A6.74,6.74,0,0,0,.31,5.36a11.49,11.49,0,0,0,0,5.28,6.74,6.74,0,0,0,5.05,5,11.49,11.49,0,0,0,5.28,0,6.74,6.74,0,0,0,5-5A11.49,11.49,0,0,0,15.69,5.36ZM8,11.49a.64.64,0,1,1,.64-.64A.64.64,0,0,1,8,11.49Zm2.17-5.17A2.28,2.28,0,0,1,9.53,8L8.36,9.13a.51.51,0,0,1-.72,0,.52.52,0,0,1,0-.73L8.81,7.23a1.3,1.3,0,0,0,.38-.91V6.21a1.19,1.19,0,1,0-2.38,0v.43a.51.51,0,0,1-1,0V6.21a2.21,2.21,0,0,1,4.42,0Z"/></svg>