<svg width="24px" height="24px" xmlns="http://www.w3.org/2000/svg" viewBox="0 0 24 24">
    <path d="M23.91,11.53a1.23,1.23,0,0,0-1.11-.76V7.2a2.41,2.41,0,0,0-2.4-2.4H13.2V3.13a1.77,1.77,0,0,0,.6-1.33A1.8,1.8,0,0,0,10.73.53a1.76,1.76,0,0,0-.52,1.27,1.77,1.77,0,0,0,.6,1.33V4.8H3.61a2.41,2.41,0,0,0-2.4,2.4v3.6h-.1a1.26,1.26,0,0,0-.79.38A1.19,1.19,0,0,0,0,12v2.4a1.23,1.23,0,0,0,.35.85,1.23,1.23,0,0,0,.85.35h0v6A2.41,2.41,0,0,0,3.61,24H20.4a2.41,2.41,0,0,0,2.4-2.4v-6A1.2,1.2,0,0,0,24,14.4V12.07A1.26,1.26,0,0,0,23.91,11.53ZM3.61,21.6V7.2H20.4V12h0v2.4h0V21.6Z"/>
    <path d="M7.81,14.4c1,0,1.8-1.07,1.8-2.4S8.8,9.6,7.81,9.6,6,10.67,6,12,6.81,14.4,7.81,14.4Z"/>
    <path d="M16.2,14.4c1,0,1.8-1.07,1.8-2.4s-.8-2.4-1.8-2.4-1.8,1.07-1.8,2.4S15.21,14.4,16.2,14.4Z"/>
    <path d="M7.21,16.8H16.8v2.4H7.21Z"/>
</svg>