<svg xmlns="http://www.w3.org/2000/svg" xmlns:xlink="http://www.w3.org/1999/xlink" viewBox="0 0 2060.28 513.52"><defs><linearGradient id="linear-gradient" x1="-1355.25" y1="1035.03" x2="-1354.25" y2="1035.03" gradientTransform="matrix(85.24, -85.24, -85.24, -85.24, 204139.37, -27192.27)" gradientUnits="userSpaceOnUse"><stop offset="0" stop-color="#916"/><stop offset="0.08" stop-color="#916"/><stop offset="0.15" stop-color="#a81b62"/><stop offset="0.33" stop-color="#ce3458"/><stop offset="0.47" stop-color="#e54352"/><stop offset="0.56" stop-color="#ee4950"/><stop offset="1" stop-color="#ef7a4f"/></linearGradient></defs><title>SilkFlo_1</title><g id="Layer_2" data-name="Layer 2"><g id="Layer_1-2" data-name="Layer 1"><path d="M288.77,284.59a328.71,328.71,0,0,0-45.93-34.44q-25.05-15.66-50.79-30.27-20.19-12.52-39-21.92t-29.93-20.52Q112,166.31,112,152.38q0-17.37,16.35-28.53t42.09-11.13a187.59,187.59,0,0,1,33.41,2.79,210.83,210.83,0,0,1,31.31,8.34q16,5.59,36.18,13.92l33.4-79.32q-27.13-16-64-26.44a262.63,262.63,0,0,0-71.68-10.43q-52.89,0-90.8,16.69T20.18,84.89Q0,114.82,0,152.38a106,106,0,0,0,12.87,51.5,164.82,164.82,0,0,0,33.75,42.79,313.77,313.77,0,0,0,45.93,34.79q25,15.66,48.7,30.27,20.17,11.13,38.62,21.92a211.49,211.49,0,0,1,30.62,21.22q12.16,10.42,12.18,23,0,11.84-8.35,21.57t-24,15.31q-15.66,5.58-40,5.57a200,200,0,0,1-41.06-4.53,267.87,267.87,0,0,1-40.7-11.83,298.81,298.81,0,0,1-32.35-14.26L4.87,474.54a186.75,186.75,0,0,0,30.62,14.61,332.49,332.49,0,0,0,39,12.19q20.87,5.21,41.05,8.69a218.39,218.39,0,0,0,36.88,3.49q57.75,0,98.45-17.75t62.28-48q21.56-30.27,21.57-68.54,0-29.91-12.52-52.88a157.7,157.7,0,0,0-33.4-41.75" style="fill:#fff"/><rect x="387.56" y="167" width="109.24" height="337.47" style="fill:#fff"/><path d="M483.93,17.74A58.35,58.35,0,0,0,441.13,0Q416.77,0,399,17.74T381.3,59.84q0,25.75,17.39,43.14t42.44,17.4q25.74,0,43.15-17.4t17.39-43.14Q501.67,35.49,483.93,17.74Z" style="fill:url(#linear-gradient)"/><polygon points="576.11 504.47 684.67 504.47 684.67 13.22 576.11 20.87 576.11 504.47" style="fill:#fff"/><polygon points="1078.49 233.1 1015.17 157.26 880.18 276.24 880.18 13.22 771.63 20.87 771.63 504.47 880.18 504.47 880.18 393.83 909.41 370.17 984.56 504.47 1105.63 504.47 986.64 307.56 1078.49 233.1" style="fill:#fff"/><polygon points="1463.97 116.2 1450.75 32.01 1163.38 32.01 1163.38 504.47 1271.92 504.47 1271.92 315.2 1431.27 315.2 1418.04 229.62 1271.92 229.62 1271.92 116.2 1463.97 116.2" style="fill:#fff"/><polygon points="1521.02 504.47 1629.58 504.47 1629.58 13.22 1521.02 20.87 1521.02 504.47" style="fill:#fff"/><path d="M2036.61,239q-23.64-40-65.75-61.23t-97.75-21.22q-52.89,0-94.64,21.92t-65.75,61.23q-24,39.33-24,95.68t23.31,96a151.88,151.88,0,0,0,64.36,60.18q41,20.52,96.73,21.23,54.26-.71,96.37-21.23a156.54,156.54,0,0,0,66.44-60.53q24.35-40,24.36-95,0-57-23.67-97.07m-98.1,142.29q-9,19.5-25.39,29.93t-40,10.43q-21.58,0-37.93-10.78t-25-30.27q-8.7-19.47-8.7-45.22,0-27.13,8.7-46.62a71.62,71.62,0,0,1,25.75-31q17-11.48,39.31-11.48,21.55,0,37.93,11.83t25.39,31.65q9,19.84,9,45.59,0,26.44-9,45.91" style="fill:#fff"/></g></g></svg>