<svg xmlns="http://www.w3.org/2000/svg" viewBox="0 0 12 8">
    <path style="fill: var(--bs-red)" d="M12,7.33v.14a.56.56,0,0,1,0,.12l-.06.09a.31.31,0,0,1-.09.11l-.08,0-.13.07h-.13a.42.42,0,0,1-.14.09H8a.68.68,0,0,1-.67-.67A.67.67,0,0,1,8,6.67H9.88L7.22,3.53,4.34,5.24a.65.65,0,0,1-.45.08.59.59,0,0,1-.4-.23l-3.34-4A.71.71,0,0,1,0,.86.54.54,0,0,1,0,.61.67.67,0,0,1,.08.36.65.65,0,0,1,.24.15.66.66,0,0,1,.67,0,.67.67,0,0,1,1,.06a.58.58,0,0,1,.23.18l3,3.56L7,2.09a.69.69,0,0,1,.85.14l2.82,3.3V4A.67.67,0,0,1,12,4Z"/>
</svg>