<svg xmlns="http://www.w3.org/2000/svg" viewBox="0 0 12 8">
    <path style="fill: var(--bs-green)" d="M12,.67V.53a.56.56,0,0,0,0-.12L11.9.32a.31.31,0,0,0-.09-.11l-.08,0L11.6.09h-.13A.42.42,0,0,0,11.33,0H8a.63.63,0,0,0-.47.2.63.63,0,0,0-.2.47A.67.67,0,0,0,8,1.33H9.88L7.22,4.47,4.34,2.76a.65.65,0,0,0-.45-.08.59.59,0,0,0-.4.23l-3.34,4A.71.71,0,0,0,0,7.14a.54.54,0,0,0,0,.25.67.67,0,0,0,.08.25.65.65,0,0,0,.16.21A.66.66,0,0,0,.67,8,.67.67,0,0,0,1,7.94a.58.58,0,0,0,.23-.18l3-3.56L7,5.91a.69.69,0,0,0,.85-.14l2.82-3.3V4A.67.67,0,0,0,12,4Z"/>
</svg>