<svg width="33" height="32" viewBox="0 0 33 32" xmlns="http://www.w3.org/2000/svg">
<path d="M16.4733 29.3333C21.7746 29.3333 27.14 27.5013 27.14 24V7.99996C27.14 4.49863 21.7746 2.66663 16.4733 2.66663C11.172 2.66663 5.80664 4.49863 5.80664 7.99996V24C5.80664 27.5013 11.172 29.3333 16.4733 29.3333ZM16.4733 26.6666C11.5106 26.6666 8.47331 24.94 8.47331 24V22.3093C10.528 23.4266 13.5093 24 16.4733 24C19.4373 24 22.4186 23.4266 24.4733 22.3093V24C24.4733 24.94 21.436 26.6666 16.4733 26.6666ZM16.4733 5.33329C21.436 5.33329 24.4733 7.05996 24.4733 7.99996C24.4733 8.93996 21.436 10.6666 16.4733 10.6666C11.5106 10.6666 8.47331 8.93996 8.47331 7.99996C8.47331 7.05996 11.5106 5.33329 16.4733 5.33329ZM8.47331 11.6426C10.528 12.76 13.5093 13.3333 16.4733 13.3333C19.4373 13.3333 22.4186 12.76 24.4733 11.6426V13.3333C24.4733 14.2733 21.436 16 16.4733 16C11.5106 16 8.47331 14.2733 8.47331 13.3333V11.6426ZM8.47331 16.976C10.528 18.0933 13.5093 18.6666 16.4733 18.6666C19.4373 18.6666 22.4186 18.0933 24.4733 16.976V18.6666C24.4733 19.6066 21.436 21.3333 16.4733 21.3333C11.5106 21.3333 8.47331 19.6066 8.47331 18.6666V16.976Z"/>
</svg>