<svg width="33" height="32" viewBox="0 0 33 32" fill="none" xmlns="http://www.w3.org/2000/svg">
<g clip-path="url(#clip0_6790_2672)">
<path d="M29.8659 7.62665L23.7326 2.47998L22.0126 4.51998L28.1459 9.66665L29.8659 7.62665ZM11.0392 4.51998L9.33255 2.47998L3.19922 7.61331L4.91922 9.65331L11.0392 4.51998ZM17.1992 10.6666H15.1992V18.6666L21.5326 22.4666L22.5326 20.8266L17.1992 17.6666V10.6666ZM16.5326 5.33331C9.90589 5.33331 4.53255 10.7066 4.53255 17.3333C4.53255 23.96 9.89255 29.3333 16.5326 29.3333C23.1592 29.3333 28.5326 23.96 28.5326 17.3333C28.5326 10.7066 23.1592 5.33331 16.5326 5.33331ZM16.5326 26.6666C11.3726 26.6666 7.19922 22.4933 7.19922 17.3333C7.19922 12.1733 11.3726 7.99998 16.5326 7.99998C21.6926 7.99998 25.8659 12.1733 25.8659 17.3333C25.8659 22.4933 21.6926 26.6666 16.5326 26.6666Z" fill="white"/>
</g>
<defs>
<clipPath id="clip0_6790_2672">
<rect width="32" height="32" fill="white" transform="translate(0.53125)"/>
</clipPath>
</defs>
</svg>