<svg xmlns="http://www.w3.org/2000/svg" viewBox="0 0 20 20"><path d="M13.31,10.1H8.08a.77.77,0,1,0,0,1.54h5.23a.77.77,0,0,0,0-1.54Z" /><path d="M10.17,7H7A.77.77,0,1,0,7,8.51h3.13a.77.77,0,0,0,0-1.54Z" /><path d="M19.64,6.24A7.87,7.87,0,0,0,13.76.36a13.23,13.23,0,0,0-6.13,0A7.9,7.9,0,0,0,1.74,6.24a13.5,13.5,0,0,0,0,6.13A8.27,8.27,0,0,0,2.1,13.5a3.38,3.38,0,1,0,4.4,4.4,8.27,8.27,0,0,0,1.13.36,13.5,13.5,0,0,0,6.13,0,7.9,7.9,0,0,0,5.88-5.89A13.23,13.23,0,0,0,19.64,6.24ZM3.38,18.46a1.84,1.84,0,0,1-.55-3.59,1.3,1.3,0,0,0,.1.15l.2.31a8,8,0,0,0,1.54,1.54l.31.2.15.1A1.82,1.82,0,0,1,3.38,18.46Zm10-1.7a11.86,11.86,0,0,1-5.43,0,6.28,6.28,0,0,1-1.64-.64c-.17-.09-.33-.21-.5-.32l-.24-.16A6.07,6.07,0,0,1,4.36,14.4l-.17-.25a5,5,0,0,1-.31-.49A6.28,6.28,0,0,1,3.24,12a11.86,11.86,0,0,1,0-5.43A6.36,6.36,0,0,1,8,1.85a11.86,11.86,0,0,1,5.43,0,6.36,6.36,0,0,1,4.74,4.74,11.86,11.86,0,0,1,0,5.43A6.36,6.36,0,0,1,13.41,16.76Z" /></svg>