<svg width="24" height="20" viewBox="0 0 24 20" fill="none" xmlns="http://www.w3.org/2000/svg">
<path d="M3.63462 4.85714C3.63462 2.17462 5.83014 0 8.53846 0C11.2468 0 13.4423 2.17462 13.4423 4.85714C13.4423 7.53967 11.2468 9.71429 8.53846 9.71429C5.83014 9.71429 3.63462 7.53967 3.63462 4.85714Z" fill="white"/>
<path d="M5.43904 11.9077L5.64454 11.8752C7.56169 11.5721 9.51523 11.5721 11.4324 11.8752L11.6379 11.9077C14.3392 12.3347 16.3269 14.6426 16.3269 17.352C16.3269 18.8145 15.13 20 13.6535 20H3.42342C1.94693 20 0.75 18.8145 0.75 17.352C0.75 14.6426 2.7377 12.3347 5.43904 11.9077Z" fill="white"/>
<path d="M15.4615 0C14.9836 0 14.5962 0.383756 14.5962 0.857143C14.5962 1.33053 14.9836 1.71429 15.4615 1.71429C17.214 1.71429 18.6346 3.12139 18.6346 4.85714C18.6346 6.5929 17.214 8 15.4615 8C14.9836 8 14.5962 8.38376 14.5962 8.85714C14.5962 9.33053 14.9836 9.71429 15.4615 9.71429C18.1699 9.71429 20.3654 7.53967 20.3654 4.85714C20.3654 2.17462 18.1699 0 15.4615 0Z" fill="white"/>
<path d="M16.8937 11.8645C16.4157 11.8645 16.0283 12.2482 16.0283 12.7216C16.0283 13.195 16.4157 13.5788 16.8937 13.5788H18.0107C18.1037 13.5788 18.1966 13.586 18.2882 13.6005C20.1496 13.8948 21.5192 15.485 21.5192 17.352C21.5192 17.8677 21.0972 18.2857 20.5766 18.2857H18.2191C17.7411 18.2857 17.3537 18.6695 17.3537 19.1429C17.3537 19.6162 17.7411 20 18.2191 20H20.5766C22.0531 20 23.25 18.8145 23.25 17.352C23.25 14.6426 21.2623 12.3347 18.561 11.9077C18.379 11.8789 18.1948 11.8645 18.0107 11.8645H16.8937Z" fill="white"/>
</svg>