<svg width="32" height="32" viewBox="0 0 32 32" fill="none" xmlns="http://www.w3.org/2000/svg">
<g clip-path="url(#clip0_7304_2283)">
<g clip-path="url(#clip1_7304_2283)">
<path d="M15.8754 3.0319C15.9146 3.01041 15.9587 2.99939 16.0034 2.9999C16.0474 2.99973 16.0908 3.01074 16.1294 3.0319C16.1751 3.05933 16.2125 3.09875 16.2374 3.1459L29.9514 26.4799C30.0234 26.5999 30.0214 26.7279 29.9554 26.8459C29.93 26.8943 29.8929 26.9356 29.8474 26.9659C29.8078 26.9902 29.7618 27.002 29.7154 26.9999H2.2914C2.24498 27.0022 2.19896 26.9903 2.1594 26.9659C2.11391 26.9356 2.07677 26.8943 2.0514 26.8459C2.01844 26.7904 2.00139 26.7269 2.00209 26.6623C2.0028 26.5978 2.02124 26.5347 2.0554 26.4799L15.7674 3.1459C15.7924 3.09881 15.8297 3.05941 15.8754 3.0319V3.0319ZM17.9634 2.1319C17.7654 1.78703 17.48 1.5005 17.1358 1.30125C16.7917 1.10199 16.4011 0.99707 16.0034 0.99707C15.6057 0.99707 15.2151 1.10199 14.871 1.30125C14.5269 1.5005 14.2414 1.78703 14.0434 2.1319L0.329404 25.4659C-0.584596 27.0219 0.511403 28.9999 2.2894 28.9999H29.7154C31.4934 28.9999 32.5914 27.0199 31.6754 25.4659L17.9634 2.1319Z" fill="white"/>
<path d="M14.0039 22.9997C14.0039 22.7371 14.0556 22.477 14.1561 22.2344C14.2567 21.9917 14.404 21.7713 14.5897 21.5855C14.7754 21.3998 14.9959 21.2525 15.2385 21.152C15.4812 21.0515 15.7413 20.9997 16.0039 20.9997C16.2666 20.9997 16.5266 21.0515 16.7693 21.152C17.0119 21.2525 17.2324 21.3998 17.4181 21.5855C17.6038 21.7713 17.7512 21.9917 17.8517 22.2344C17.9522 22.477 18.0039 22.7371 18.0039 22.9997C18.0039 23.5302 17.7932 24.0389 17.4181 24.414C17.043 24.789 16.5343 24.9997 16.0039 24.9997C15.4735 24.9997 14.9648 24.789 14.5897 24.414C14.2146 24.0389 14.0039 23.5302 14.0039 22.9997V22.9997ZM14.1999 10.9897C14.1733 10.7374 14.2 10.4823 14.2783 10.241C14.3566 9.99967 14.4848 9.77751 14.6545 9.58892C14.8243 9.40033 15.0318 9.24953 15.2635 9.14631C15.4953 9.04309 15.7462 8.98975 15.9999 8.98975C16.2536 8.98975 16.5045 9.04309 16.7363 9.14631C16.9681 9.24953 17.1755 9.40033 17.3453 9.58892C17.515 9.77751 17.6432 9.99967 17.7215 10.241C17.7998 10.4823 17.8265 10.7374 17.7999 10.9897L17.0999 18.0037C17.0764 18.2793 16.9503 18.536 16.7466 18.723C16.5429 18.9101 16.2765 19.0139 15.9999 19.0139C15.7234 19.0139 15.4569 18.9101 15.2532 18.723C15.0495 18.536 14.9234 18.2793 14.8999 18.0037L14.1999 10.9897Z" fill="white"/>
</g>
</g>
<defs>
<clipPath id="clip0_7304_2283">
<rect width="32" height="32" fill="white"/>
</clipPath>
<clipPath id="clip1_7304_2283">
<rect width="32" height="32" fill="white" transform="translate(0 -1)"/>
</clipPath>
</defs>
</svg>
