<svg xmlns="http://www.w3.org/2000/svg" width="43" height="16" viewBox="0 0 43 16"><path d="M0,8A8,8,0,0,1,8,0H35a8,8,0,0,1,8,8h0a8,8,0,0,1-8,8H8A8,8,0,0,1,0,8Z" style="fill:#e7f9e9"/><path d="M4,8A4,4,0,0,1,8,4H8a4,4,0,0,1,4,4h0a4,4,0,0,1-4,4H8A4,4,0,0,1,4,8Z" style="fill:#37d046"/><path d="M20.3,12V9.08L18,4.15h1.49l.85,2c.11.29.23.58.34.86s.23.56.36.86H21c.12-.3.25-.59.37-.86s.23-.57.35-.86l.85-2h1.45L21.7,9.08V12Zm6.61.14a3,3,0,0,1-1.47-.36,2.72,2.72,0,0,1-1.05-1A3.49,3.49,0,0,1,24,9.06a3.48,3.48,0,0,1,.38-1.66,2.89,2.89,0,0,1,1-1.06A2.54,2.54,0,0,1,26.72,6a2.38,2.38,0,0,1,1.35.36,2.15,2.15,0,0,1,.81,1,3.44,3.44,0,0,1,.28,1.45,2.88,2.88,0,0,1-.06.67H25.35a1.92,1.92,0,0,0,.57,1.21,1.65,1.65,0,0,0,1.17.44A2.25,2.25,0,0,0,27.8,11a2.91,2.91,0,0,0,.66-.33l.47.87A4.31,4.31,0,0,1,28,12,3.22,3.22,0,0,1,26.91,12.14ZM25.34,8.5H28a1.68,1.68,0,0,0-.3-1.07,1,1,0,0,0-.9-.4,1.32,1.32,0,0,0-.93.39A1.76,1.76,0,0,0,25.34,8.5Zm6.86,3.64a3.39,3.39,0,0,1-1.2-.22,4.09,4.09,0,0,1-1-.59l.65-.89a3.88,3.88,0,0,0,.79.48,2,2,0,0,0,.84.18,1.09,1.09,0,0,0,.71-.2.67.67,0,0,0,.22-.51A.5.5,0,0,0,33,10a1.5,1.5,0,0,0-.47-.28c-.19-.09-.39-.18-.6-.26a6.33,6.33,0,0,1-.76-.34,2.18,2.18,0,0,1-.62-.54,1.4,1.4,0,0,1-.24-.83,1.6,1.6,0,0,1,.58-1.27A2.3,2.3,0,0,1,32.44,6a2.83,2.83,0,0,1,1.12.22,4.31,4.31,0,0,1,.85.49l-.64.84a3.38,3.38,0,0,0-.63-.36A1.66,1.66,0,0,0,32.48,7a1,1,0,0,0-.66.19.55.55,0,0,0-.22.46.56.56,0,0,0,.36.52,6.89,6.89,0,0,0,.84.35,5.63,5.63,0,0,1,.79.36,2,2,0,0,1,.64.54,1.45,1.45,0,0,1,.26.89,1.69,1.69,0,0,1-.59,1.3A2.47,2.47,0,0,1,32.2,12.14Z" style="fill:#2ac437"/></svg>